<svg width="25" height="25" version="1.1" viewBox="0 0 6.615 6.615" xmlns="http://www.w3.org/2000/svg">
  <g style="fill:#682d63;" transform="translate(-146.9 -153)">
    <g transform="matrix(.01292 0 0 .01292 146.9 153.2)">
      <path d="m413.5 128.9c-17.29-86.77-101.6-143.1-188.4-125.8-63.46 12.65-113.1 62.24-125.8 125.7-61.52 7.09-105.6 62.71-98.56 124.2 6.523 56.62 54.48 99.34 111.5 99.3h80.09c8.848 0 16.02-7.172 16.02-16.02 0-8.848-7.172-16.02-16.02-16.02h-80.09c-44.24-0.2617-79.88-36.33-79.63-80.57 0.2617-44.24 36.33-79.89 80.57-79.62 8.164 0 15.02-6.141 15.92-14.26 8.133-70.3 71.72-120.7 142-112.6 59.11 6.836 105.7 53.46 112.6 112.6 1.344 8.262 8.5 14.31 16.87 14.26 44.24 0 80.1 35.86 80.1 80.1 0 44.23-35.86 80.09-80.1 80.09h-80.09c-8.848 0-16.02 7.172-16.02 16.02 0 8.848 7.172 16.02 16.02 16.02h80.1c61.93-0.3867 111.8-50.9 111.4-112.8-0.3516-56.39-42.53-103.8-98.51-110.6z"/>
      <path d="m313 385.2-40.61 40.62v-201.6c0-8.848-7.172-16.02-16.02-16.02-8.848 0-16.02 7.172-16.02 16.02v201.6l-40.61-40.62c-6.145-6.367-16.29-6.543-22.65-0.3945-6.363 6.145-6.539 16.29-0.3945 22.65 0.1328 0.1367 0.2617 0.2656 0.3945 0.3945l67.94 67.95c1.484 1.48 3.242 2.656 5.176 3.461 3.941 1.668 8.391 1.668 12.34 0 1.934-0.8047 3.691-1.98 5.172-3.461l67.94-67.95c6.363-6.145 6.539-16.29 0.3945-22.65-6.148-6.363-16.29-6.539-22.65-0.3945-0.1328 0.1289-0.2656 0.2578-0.3945 0.3945z"/>
    </g>
  </g>
</svg>
