<svg width="25" height="25" version="1.1" viewBox="0 0 6.615 6.615" xmlns="http://www.w3.org/2000/svg">
  <g transform="translate(-146.9 -153)">
    <g transform="matrix(.03662 0 0 .03662 153 149.5)">
      <g style="fill:#682d63;" transform="matrix(.3528 0 0 .3528 -166.3 93.66)">
        <path d="m256 512c-141.4 0-256-114.6-256-256s114.6-256 256-256 256 114.6 256 256c-0.168 141.3-114.7 255.8-256 256zm0-480c-123.7 0-224 100.3-224 224s100.3 224 224 224 224-100.3 224-224c-0.1328-123.7-100.3-223.9-224-224z"/>
        <path d="m256 368c-8.836 0-16-7.164-16-16v-192c8e-3 -8.836 7.18-15.99 16.02-15.98 3.809 4e-3 7.488 1.363 10.38 3.84l112 96c6.707 5.754 7.48 15.86 1.727 22.56-0.5312 0.6172-1.105 1.195-1.727 1.727l-112 96c-2.891 2.492-6.582 3.859-10.4 3.855zm16-173.2v122.4l71.43-61.21z"/>
        <path d="m96 368c-8.836 0-16-7.164-16-16v-192c0.0078-8.836 7.18-15.99 16.02-15.98 3.809 4e-3 7.488 1.363 10.38 3.84l112 96c6.707 5.754 7.48 15.86 1.727 22.56-0.5273 0.6172-1.105 1.195-1.727 1.727l-112 96c-2.891 2.492-6.582 3.859-10.4 3.855zm16-173.2v122.4l71.42-61.21z"/>
        <path d="m416 368c-8.836 0-16-7.164-16-16v-192c0-8.836 7.164-16 16-16s16 7.164 16 16v192c0 8.836-7.164 16-16 16z"/>
      </g>
    </g>
  </g>
</svg>
