<svg width="25" height="25" version="1.1" viewBox="0 0 6.615 6.615" xmlns="http://www.w3.org/2000/svg">
  <g style="fill:#682d63;" transform="translate(-146.9 -153)">
    <g transform="matrix(.03662 0 0 .03662 145.4 141.2)">
      <g transform="matrix(.3528 0 0 .3528 42.18 319.9)">
        <path d="m256 512c-141.4 0-256-114.6-256-256s114.6-256 256-256 256 114.6 256 256c-0.168 141.3-114.7 255.8-256 256zm0-480c-123.7 0-224 100.3-224 224s100.3 224 224 224 224-100.3 224-224c-0.1328-123.7-100.3-223.9-224-224z"/>
        <path d="m256 368c-3.82 0-7.516-1.367-10.41-3.855l-112-96c-6.707-5.754-7.48-15.86-1.727-22.56 0.5274-0.6172 1.105-1.195 1.727-1.727l112-96c6.707-5.754 16.8-4.98 22.56 1.73 2.488 2.898 3.855 6.594 3.855 10.41v192c0 8.836-7.164 16-16 16zm-87.41-112 71.41 61.21v-122.4z"/>
        <path d="m416 368c-3.82 0-7.516-1.367-10.41-3.855l-112-96c-6.707-5.754-7.48-15.86-1.727-22.56 0.5274-0.6172 1.105-1.195 1.727-1.727l112-96c6.707-5.754 16.81-4.98 22.56 1.73 2.488 2.898 3.855 6.594 3.855 10.41v192c0 8.836-7.164 16-16 16zm-87.41-112 71.41 61.21v-122.4z"/>
        <path d="m96 368c-8.836 0-16-7.164-16-16v-192c0-8.836 7.164-16 16-16 8.836 0 16 7.164 16 16v192c0 8.836-7.164 16-16 16z"/>
      </g>
    </g>
  </g>
</svg>
