<?xml version="1.0" encoding="UTF-8"?>
<svg width="960" height="960" version="1.1" xmlns="http://www.w3.org/2000/svg">
 <g transform="translate(0 -92.362)">
  <g>
   <g transform="matrix(5.9924 0 0 5.9924 -3614.6 -2083)" fill="#fed766">
    <path d="m679.39 474.98c-16.35-2.0438-28.985-15.979-28.985-32.886 0-16.908 12.634-30.843 28.985-32.886v-26.755c-31.028 2.2296-55.554 28.056-55.554 59.642 0 31.586 24.526 57.412 55.554 59.642v-26.755m8.361-65.773c16.35 2.0438 28.985 15.979 28.985 32.886 0 16.908-12.634 30.843-28.985 32.886v26.755c31.028-2.2296 55.554-28.056 55.554-59.642 0-31.586-24.526-57.412-55.554-59.642v26.755" fill="#fed766" stroke-width=".80724"/>
   </g>
   <path d="m418.25 160.23v82.338h-371.19v41.17h40.295v41.608h41.608v41.17h41.608v42.046h123.95v39.419h82.779v83.652h-41.608v41.608h-83.217v40.732h-40.732v123.51h41.17v41.17h41.608v41.608h40.295v41.17h42.046v42.046h41.17v40.292h40.73v40.732h42.046v-41.17h40.732v-40.73h41.608v-42.046h41.608v-39.857h40.292v-42.046h41.608v-41.17h41.17v-123.95h-41.608v-40.732h-82.338v-42.046h-41.17v-81.9h81.9v-41.17h124.82v-40.732h41.608v-42.046h40.295v-41.17h41.606v-40.732h-371.4v-42.044h41.17v-40.732zm-0.43793 370.53h123.73v42.046h-40.295v41.608h-41.608v-42.484h-41.826z" fill="#fe4a49" fill-rule="evenodd"/>
  </g>
 </g>
</svg>
