<?xml version="1.0" encoding="UTF-8" standalone="no"?>
<svg
   xmlns:dc="http://purl.org/dc/elements/1.1/"
   xmlns:cc="http://creativecommons.org/ns#"
   xmlns:rdf="http://www.w3.org/1999/02/22-rdf-syntax-ns#"
   xmlns:svg="http://www.w3.org/2000/svg"
   xmlns="http://www.w3.org/2000/svg"
   xmlns:sodipodi="http://sodipodi.sourceforge.net/DTD/sodipodi-0.dtd"
   xmlns:inkscape="http://www.inkscape.org/namespaces/inkscape"
   version="1.1"
   id="svg4166"
   viewBox="0 0 153.75 153.75"
   height="164"
   width="164"
   sodipodi:docname="basspistol-Patches.svg"
   inkscape:version="0.92.4 (5da689c313, 2019-01-14)">
  <sodipodi:namedview
     pagecolor="#ffffff"
     bordercolor="#666666"
     borderopacity="1"
     objecttolerance="10"
     gridtolerance="10"
     guidetolerance="10"
     inkscape:pageopacity="0"
     inkscape:pageshadow="2"
     inkscape:window-width="2560"
     inkscape:window-height="1048"
     id="namedview59"
     showgrid="false"
     inkscape:zoom="1.2615122"
     inkscape:cx="197.16989"
     inkscape:cy="131.56417"
     inkscape:window-x="0"
     inkscape:window-y="0"
     inkscape:window-maximized="1"
     inkscape:current-layer="svg4166"
     units="px" />
  <defs
     id="defs4168">
    <circle
       style="opacity:1;fill:none;fill-opacity:1;stroke:none;stroke-width:4.4000001;stroke-linecap:round;stroke-linejoin:round;stroke-miterlimit:4;stroke-dasharray:none;stroke-opacity:1"
       id="path4784-9"
       cx="106.29922"
       cy="946.06299"
       r="93.035713" />
    <circle
       style="opacity:1;fill:none;fill-opacity:1;stroke:none;stroke-width:4.4000001;stroke-linecap:round;stroke-linejoin:round;stroke-miterlimit:4;stroke-dasharray:none;stroke-opacity:1"
       id="path4784-9-0"
       cx="106.29922"
       cy="946.06299"
       r="93.035713" />
    <circle
       style="opacity:1;fill:none;fill-opacity:1;stroke:none;stroke-width:4.4000001;stroke-linecap:round;stroke-linejoin:round;stroke-miterlimit:4;stroke-dasharray:none;stroke-opacity:1"
       id="path4784-9-7"
       cx="106.29922"
       cy="946.06299"
       r="93.035713" />
    <circle
       style="opacity:1;fill:none;fill-opacity:1;stroke:none;stroke-width:4.4000001;stroke-linecap:round;stroke-linejoin:round;stroke-miterlimit:4;stroke-dasharray:none;stroke-opacity:1"
       id="path4784-9-3"
       cx="106.29922"
       cy="946.06299"
       r="93.035713" />
    <circle
       style="opacity:1;fill:none;fill-opacity:1;stroke:none;stroke-width:4.4000001;stroke-linecap:round;stroke-linejoin:round;stroke-miterlimit:4;stroke-dasharray:none;stroke-opacity:1"
       id="path4784-9-4"
       cx="106.29922"
       cy="946.06299"
       r="93.035713" />
    <circle
       style="opacity:1;fill:none;fill-opacity:1;stroke:none;stroke-width:4.4000001;stroke-linecap:round;stroke-linejoin:round;stroke-miterlimit:4;stroke-dasharray:none;stroke-opacity:1"
       id="path4784-9-76"
       cx="106.29922"
       cy="946.06299"
       r="93.035713" />
  </defs>
  <metadata
     id="metadata4171">
    <rdf:RDF>
      <cc:Work
         rdf:about="">
        <dc:format>image/svg+xml</dc:format>
        <dc:type
           rdf:resource="http://purl.org/dc/dcmitype/StillImage" />
        <dc:title></dc:title>
      </cc:Work>
    </rdf:RDF>
  </metadata>
  <g
     id="g1617"
     transform="matrix(0.57320186,0.12114123,-0.12114123,0.57320186,20.812363,-9.234477)">
    <circle
       r="124.01575"
       cy="124.01575"
       cx="124.01575"
       id="path4716-0"
       style="opacity:0.85;fill:#445500;fill-opacity:1;stroke:none;stroke-width:8.51666737;stroke-linecap:round;stroke-linejoin:round;stroke-miterlimit:4;stroke-dasharray:none;stroke-opacity:1" />
    <circle
       r="108.54167"
       cy="124.01575"
       cx="124.01575"
       id="circle4223"
       style="opacity:1;fill:none;fill-opacity:1;stroke:none;stroke-width:5.13333368;stroke-linecap:round;stroke-linejoin:round;stroke-miterlimit:4;stroke-dasharray:none;stroke-opacity:1" />
    <g
       id="g4250"
       transform="matrix(1.1666667,0,0,1.1666667,-4.3377308,6.9999964)">
      <path
         style="color:#000000;font-style:normal;font-variant:normal;font-weight:normal;font-stretch:normal;font-size:medium;line-height:normal;font-family:sans-serif;text-indent:0;text-align:start;text-decoration:none;text-decoration-line:none;text-decoration-style:solid;text-decoration-color:#000000;letter-spacing:normal;word-spacing:normal;text-transform:none;writing-mode:lr-tb;direction:ltr;baseline-shift:baseline;text-anchor:start;white-space:normal;clip-rule:nonzero;display:inline;overflow:visible;visibility:visible;opacity:1;isolation:auto;mix-blend-mode:normal;color-interpolation:sRGB;color-interpolation-filters:linearRGB;solid-color:#000000;solid-opacity:1;fill:#ffffff;fill-opacity:1;fill-rule:nonzero;stroke:none;stroke-width:6.14500046;stroke-linecap:butt;stroke-linejoin:round;stroke-miterlimit:4;stroke-dasharray:none;stroke-dashoffset:0;stroke-opacity:1;color-rendering:auto;image-rendering:auto;shape-rendering:auto;text-rendering:auto;enable-background:accumulate"
         d="m 69.128906,31.443359 c -0.366483,0.0026 -0.763167,0.01039 -1.193359,0.02539 l -0.996094,0.0332 c -1.62993,0.05484 -2.933104,1.373444 -2.96875,3.003906 l -0.103515,4.683594 c -0.03574,1.625709 -0.06949,1.984558 -0.09961,2.492188 -5.873266,1.678721 -9.441841,3.292069 -12.810547,6.177734 -1.658041,1.420305 -3.594608,3.29208 -5.320312,5.082031 -1.725705,1.789952 -3.150316,3.343422 -4.060547,4.697266 -2.861645,4.256388 -3.800986,5.808504 -5.345703,8.849609 -2.887108,5.683869 -4.086645,9.230737 -5.740235,16.939453 -1.204358,5.614551 -1.600382,17.8681 -0.757812,23.53907 0.235548,1.58534 0.492897,3.57168 0.541016,4.07812 0.42436,4.46602 2.775226,11.53724 5.162109,16.2793 5.724585,11.37305 13.830845,19.86351 23.783203,24.61523 3.359643,1.60405 6.173353,2.31836 11.142578,2.86914 3.091842,0.3427 6.656053,-0.2126 11.597656,-1.49023 6.485095,-1.67668 12.057034,-3.24778 14.951172,-4.24414 1.003696,-0.34554 3.272714,-0.98248 4.642574,-1.29102 1.65963,-0.37378 4.03802,-1.02003 5.60743,-1.52734 4.20081,-1.35792 6.35105,-1.91699 7.75586,-2.11133 1.35977,-0.18809 2.86787,-0.60871 4.18359,-1.11719 0.47485,-0.18351 3.85993,-1.18073 6.61523,-1.85546 6.0349,-1.47787 12.28035,-3.60432 15.79883,-5.62305 2.25548,-1.29408 4.12906,-3.22187 5.875,-5.58594 2.72781,3.16448 7.27917,4.36441 11.57422,3.14258 0.14074,-0.04 0.1153,-0.0225 0.22266,-0.0469 0.0666,0.11027 0.068,0.0871 0.15039,0.2461 0.46993,0.90679 0.61577,2.89412 -0.40625,5.60937 -0.29048,0.77176 -0.54652,1.55326 -0.74414,2.25196 -0.19763,0.69869 -0.39063,0.96828 -0.39063,2.15039 0,1.71161 0.79626,2.80285 1.61328,3.73047 0.81703,0.92761 1.81987,1.73344 3.01953,2.52734 1.48361,0.9818 3.63268,1.49595 5.29883,1.26758 2.7446,-0.3762 5.12357,-1.67218 8.75782,-4.46094 1.93696,-1.48636 3.19354,-2.36393 4.18164,-3.93359 0.98809,-1.56967 1.04271,-3.3201 1,-4.91016 -0.14122,-5.25651 -1.7865,-9.73337 -5.64063,-15.91406 l -1.14258,-1.83203 0.0234,-2.77344 c 0.0148,-1.68426 0.0439,-2.66093 -0.14844,-3.75977 -0.16919,-0.96662 -0.82663,-2.01451 -1.36133,-2.6289 0.77894,-0.67188 1.44185,-1.48385 1.84766,-2.54688 0.30618,-0.80195 0.32265,-2.09443 -0.19726,-3.0293 -0.51992,-0.93486 -1.26036,-1.37161 -1.82422,-1.61718 -1.12774,-0.49115 -1.95766,-0.47264 -2.82813,-0.42383 -0.8969,0.0503 -1.81806,0.12638 -2.73242,0.45508 -0.0557,-0.0495 -0.12934,-0.0947 -0.18945,-0.14258 0.19313,-3.473462 -0.86195,-7.537436 -2.54688,-11.007818 -2.03886,-4.199382 -5.44952,-7.510811 -9.60937,-8.767578 -0.72379,-0.218661 -1.8141,-0.605021 -1.90821,-0.644531 -0.29512,-0.123901 -0.60875,-0.228852 -0.92187,-0.34375 -0.10254,-0.144005 -0.22431,-0.316216 -0.31836,-0.501953 -0.57189,-1.12941 -1.62816,-2.894076 -2.56836,-4.353516 -0.41586,-0.645563 -0.79682,-1.272496 -1.05078,-1.716797 -0.0963,-0.168495 -0.14884,-0.26897 -0.19727,-0.361328 -0.10285,-0.356367 -0.23061,-0.548867 -0.30664,-0.683594 -0.12254,-0.217162 -0.2155,-0.34685 -0.30859,-0.474609 -0.18619,-0.255518 -0.36987,-0.477083 -0.58399,-0.724609 -0.42824,-0.495053 -0.96104,-1.06273 -1.55273,-1.652344 -1.5998,-1.594178 -3.41543,-2.8227 -5.47461,-3.699219 -1.36129,-0.579451 -3.33675,-1.446761 -4.29688,-1.884766 -1.08881,-0.496704 -3.79137,-1.679334 -6.13476,-2.685546 -6.98183,-2.997884 -14.85747,-6.547189 -17.01367,-7.640625 -1.42388,-0.722074 -3.71622,-1.739666 -5.41407,-2.410157 -2.6405,-1.042766 -5.06281,-2.134573 -6.80859,-3.037109 -0.872887,-0.451268 -1.580982,-0.860564 -2.013671,-1.146484 -0.432688,-0.28592 -0.605218,-0.834128 -0.06055,0.183593 -0.822486,-1.536804 -1.602763,-2.079272 -2.894531,-2.74414 -0.161221,-0.08298 -1.430329,-0.910159 -2.064453,-1.421875 -0.994488,-0.802519 -2.070252,-1.566212 -3.15625,-2.117188 0.120719,0.06124 -2.200653,-1.409538 -3.859375,-2.630859 -1.793985,-1.320929 -3.938987,-2.813905 -5.150391,-3.552734 -1.662814,-1.014131 -2.554249,-1.643801 -5.597656,-3.964844 -1.647068,-1.256128 -3.888009,-1.911345 -6.527344,-1.896485 h -0.0039 z"
         id="path3073-0"
         inkscape:connector-curvature="0" />
      <path
         style="color:#000000;font-style:normal;font-variant:normal;font-weight:normal;font-stretch:normal;font-size:medium;line-height:normal;font-family:sans-serif;text-indent:0;text-align:start;text-decoration:none;text-decoration-line:none;text-decoration-style:solid;text-decoration-color:#000000;letter-spacing:normal;word-spacing:normal;text-transform:none;writing-mode:lr-tb;direction:ltr;baseline-shift:baseline;text-anchor:start;white-space:normal;clip-rule:nonzero;display:inline;overflow:visible;visibility:visible;opacity:1;isolation:auto;mix-blend-mode:normal;color-interpolation:sRGB;color-interpolation-filters:linearRGB;solid-color:#000000;solid-opacity:1;fill:#000000;fill-opacity:1;fill-rule:nonzero;stroke:none;stroke-width:0.90000004;stroke-linecap:butt;stroke-linejoin:miter;stroke-miterlimit:4;stroke-dasharray:none;stroke-dashoffset:0;stroke-opacity:1;color-rendering:auto;image-rendering:auto;shape-rendering:auto;text-rendering:auto;enable-background:accumulate"
         d="m 70.044922,34.179688 c -0.592626,-0.02452 -1.271817,-0.0178 -2.080078,0.0098 l -1.425782,0.04883 -0.113281,5.109375 c -0.0511,2.324035 -0.0887,3.512015 -0.197265,4.035156 -0.05428,0.261572 -0.103201,0.315125 -0.134766,0.341797 -0.03157,0.02667 -0.131761,0.06858 -0.357422,0.128907 -6.788855,1.815044 -9.720294,3.171121 -13.136719,6.097656 -1.55648,1.333306 -3.461506,3.170715 -5.138671,4.910156 -1.677167,1.739441 -3.113396,3.358115 -3.773438,4.339844 -2.847719,4.235677 -3.664112,5.586639 -5.181641,8.574219 -2.828682,5.56886 -3.879252,8.674282 -5.515625,16.302734 -1.022228,4.765499 -1.442697,17.796678 -0.728515,22.603518 0.240416,1.6181 0.494108,3.53612 0.558593,4.21484 0.346975,3.6516 2.707489,11.00263 4.894532,15.34766 5.514821,10.95633 13.209805,18.95952 22.568359,23.42774 3.158862,1.50818 5.447916,2.09057 10.304688,2.6289 0.03251,0.004 0.08245,-0.007 0.115234,-0.004 2.50949,0.25711 5.790582,-0.18933 10.535156,-1.41602 6.450349,-1.6677 12.049089,-3.25369 14.75586,-4.18555 1.183608,-0.40749 3.423512,-1.0321 4.919919,-1.36914 1.53896,-0.34662 3.93588,-0.99964 5.375,-1.46484 4.24441,-1.37201 6.50918,-1.98023 8.20508,-2.21485 0.97666,-0.1351 2.54103,-0.55648 3.59766,-0.96484 0.93322,-0.36066 4.11321,-1.26588 6.93554,-1.95703 5.84574,-1.43153 12.15144,-3.64799 15.11719,-5.34961 2.26733,-1.30088 4.11742,-3.16424 5.96875,-5.97852 0.33751,-0.51306 0.69415,-0.98133 0.98242,-1.31054 0.12991,-0.14836 0.23921,-0.25596 0.32618,-0.33399 0.0537,0.0557 0.10884,0.11195 0.18164,0.20899 0.19726,0.26296 0.43281,0.65094 0.63867,1.07617 1.58042,3.26477 5.90598,4.7939 9.93945,3.64648 1.22116,-0.34739 1.80612,-0.43005 2.13867,-0.2832 0.33255,0.14686 0.68508,0.64844 1.28125,1.79883 0.96295,1.85811 0.90728,4.58776 -0.27929,7.74023 -0.26297,0.69864 -0.50153,1.42352 -0.67579,2.03907 -0.17425,0.61554 -0.29296,1.07117 -0.29296,1.4375 0,0.67157 0.36677,1.32566 0.95898,1.99804 0.59221,0.67238 1.43366,1.36789 2.49805,2.07227 1.33096,0.88078 2.04971,1.05593 3.49804,0.85742 2.24597,-0.30786 3.97757,-1.22643 7.51563,-3.94141 1.91445,-1.46907 2.96545,-2.30655 3.56055,-3.25195 0.59509,-0.9454 0.63643,-1.92404 0.5957,-3.44141 -0.12909,-4.80534 -1.49559,-8.58939 -5.24219,-14.59765 l -1.54883,-2.48047 0.0312,-3.53711 c 0.0146,-1.66385 0.009,-2.6044 -0.10937,-3.2832 -0.1187,-0.6788 -0.4117,-1.10934 -0.80469,-1.48243 -0.49591,-0.47077 -1.20265,-0.95625 -1.75391,-1.17187 -0.18269,-0.0715 -0.26118,-0.15727 -0.30468,-0.24219 -0.0435,-0.0849 -0.058,-0.18592 -0.0234,-0.32422 0.069,-0.27658 0.36859,-0.66563 0.91601,-0.90039 1.22494,-0.52529 2.19144,-1.39976 2.58985,-2.44336 0.10079,-0.264 0.0951,-0.57714 -0.0391,-0.81836 -0.13419,-0.24122 -0.34966,-0.3888 -0.57813,-0.48828 -0.45693,-0.19895 -1.0207,-0.24343 -1.63476,-0.20898 -1.22814,0.0689 -2.65087,0.44104 -3.39844,1.3418 -0.13498,0.16264 -0.23511,0.24892 -0.30274,0.29882 -0.009,-0.0141 0.005,0.006 -0.006,-0.0176 -0.054,-0.11331 -0.12095,-0.3155 -0.18164,-0.5918 -0.16405,-0.7468 -0.65023,-1.44276 -1.32031,-1.74805 -0.32486,-0.14817 -0.37363,-0.18563 -0.43359,-0.35937 -0.06,-0.17375 -0.0829,-0.5903 -0.0391,-1.33594 0.15717,-2.66826 -0.80874,-6.700823 -2.29297,-9.757816 -1.75562,-3.616009 -4.75566,-6.417265 -8.00977,-7.400391 -0.79699,-0.240787 -1.80452,-0.587341 -2.16406,-0.738281 -0.42152,-0.176974 -1.03176,-0.403722 -1.40235,-0.521484 0.0522,0.01659 -0.2267,-0.164445 -0.46289,-0.458985 -0.23619,-0.29454 -0.49555,-0.691602 -0.70117,-1.097656 -0.45979,-0.90802 -1.53917,-2.73379 -2.43164,-4.119141 -0.43827,-0.680349 -0.83713,-1.333854 -1.12305,-1.833984 -0.14295,-0.250065 -0.25703,-0.462098 -0.33203,-0.613281 -0.0375,-0.07559 -0.066,-0.136525 -0.0801,-0.171875 -0.0141,-0.03535 0,-0.08329 0,0.05078 -1e-5,-0.213589 -0.0591,-0.252352 -0.0996,-0.324219 -0.0405,-0.07187 -0.0861,-0.141147 -0.14258,-0.21875 -0.11305,-0.155206 -0.26477,-0.339431 -0.44922,-0.552734 -0.3689,-0.426606 -0.86869,-0.962424 -1.41992,-1.511719 -1.39039,-1.385516 -2.87121,-2.385251 -4.65039,-3.142578 -1.38683,-0.590315 -3.35505,-1.453949 -4.35938,-1.912109 -1.02347,-0.466896 -3.7501,-1.659712 -6.08008,-2.660157 -7.01155,-3.010643 -14.78033,-6.503103 -17.16601,-7.71289 -1.28194,-0.650091 -3.59736,-1.679105 -5.19141,-2.308594 -2.71174,-1.070896 -5.19232,-2.189489 -7.046874,-3.148438 -0.927278,-0.479473 -1.698811,-0.918947 -2.255859,-1.287109 -0.557048,-0.368162 -0.902401,-0.722196 -0.927735,-0.769531 -0.342758,-0.6405 -1.067863,-1.279315 -1.78125,-1.646484 -0.547965,-0.282042 -1.729685,-1.080231 -2.513671,-1.712891 -0.836625,-0.675117 -1.998633,-1.46684 -2.695313,-1.820313 -0.520081,-0.263858 -2.508282,-1.592769 -4.228516,-2.859375 -1.740066,-1.28123 -3.947531,-2.805745 -4.960937,-3.423828 -1.727555,-1.05361 -2.760222,-1.785388 -5.820313,-4.11914 -0.764361,-0.583007 -1.484482,-0.967206 -2.404296,-1.166016 -0.459907,-0.0994 -0.965968,-0.155166 -1.558594,-0.179687 z m -1.533203,2.05664 0.984375,0.09961 c 0.389384,0.03893 0.770458,0.10163 1.058594,0.166015 0.136781,0.03056 0.247501,0.06155 0.326171,0.08789 0.0073,0.03953 0.01354,0.06761 0.02148,0.125 0.02736,0.197318 0.05415,0.487104 0.07813,0.835937 0.04683,0.681695 0.08156,1.604692 0.0918,2.583985 l 0.03125,3.289062 H 69.808597 68.511722 V 39.80664 Z m 2.193359,9.564453 c 1.224108,-0.01037 2.412763,0.08192 3.533203,0.283203 6.830859,1.227111 15.729672,5.198321 20.027344,8.900391 5.070377,4.367687 10.243925,10.648532 12.568355,15.222656 1.18537,2.33264 3.85735,9.855019 4.53125,12.779297 0.73935,3.208004 1.87963,11.94398 1.87305,14.195313 -0.0156,5.257699 -1.72502,16.662189 -3.0957,20.757809 -1.13937,3.40448 -4.40395,9.98099 -6.4707,13.03321 -1.82828,2.70005 -6.820883,7.76542 -10.617192,10.73437 -3.581383,2.80087 -10.313566,6.54483 -13.101563,7.3418 -2.34062,0.66914 -10.160756,1.15301 -12.558594,0.77734 -0.841259,-0.13181 -2.341102,-0.5867 -3.197265,-0.97265 -0.935225,-0.42159 -2.150484,-0.87679 -2.814454,-1.04297 -0.449533,-0.11251 -1.554993,-0.69308 -2.222656,-1.21875 -0.771688,-0.60757 -2.249473,-1.51532 -3.376953,-2.08399 -3.67698,-1.85449 -8.848438,-7.69689 -14.8125,-16.96679 -2.593703,-4.03139 -5.501608,-13.14224 -6.333984,-19.99805 -1.05871,-8.72017 -0.758155,-18.312175 0.71875,-23.992189 0.371094,-1.427288 0.786933,-3.226974 0.933593,-4.05664 0.118183,-0.668483 0.779309,-2.647984 1.583985,-4.748047 0.804676,-2.100063 1.758918,-4.379761 2.474609,-5.832032 3.110016,-6.310702 8.792485,-13.130372 14.910156,-17.880859 3.839898,-2.981752 9.234447,-4.878339 14.212891,-5.1875 0.41487,-0.02576 0.826339,-0.04146 1.234375,-0.04492 z m 2.464844,2.111328 c -0.715232,-0.0132 -1.443343,0.0017 -2.189453,0.04297 -10.580804,0.584914 -18.311248,4.818803 -24.320313,13.324219 -5.62776,7.965691 -9.166593,15.713174 -10.742187,23.552734 -0.709116,3.52831 -0.820722,5.324918 -0.828125,13.326168 -0.0079,8.72567 0.05303,9.50083 0.972656,13.17383 1.244591,4.97109 2.614616,9.12324 4.097656,12.4043 1.686831,3.73192 4.867977,8.27097 8.304688,12.22851 3.436711,3.95755 7.096369,7.32097 9.878906,8.68555 2.784637,1.36561 7.200528,2.93495 9.636719,3.41211 3.32997,0.65219 8.463796,0.48709 11.394531,-0.38477 3.013565,-0.89648 6.144741,-2.39227 8.523438,-4.07812 0.866476,-0.6141 2.243279,-1.56409 3.046874,-2.10156 1.169244,-0.78203 3.107555,-2.58556 5.101563,-4.625 1.994008,-2.03944 4.012165,-4.29375 5.236325,-5.93946 5.68255,-7.63936 8.20432,-15.95266 9.14063,-29.98632 0.44481,-6.66712 0.45124,-6.138893 -0.17969,-10.945316 -1.23128,-9.379821 -3.93227,-16.492952 -9.42578,-24.828125 -3.938096,-5.975187 -6.640029,-8.56895 -12.968751,-12.453126 -5.309226,-3.258468 -9.673062,-4.716191 -14.679687,-4.808594 z m 25.173828,7.66211 c 0.126622,0.052 0.196221,0.07675 0.335938,0.134765 1.120259,0.465203 2.647142,1.117918 4.363282,1.863282 3.43228,1.490727 7.61991,3.353298 10.83203,4.833984 1.52933,0.704983 3.59292,1.580736 4.63281,1.964844 0.98558,0.364049 2.52435,1.041904 3.35547,1.476562 0.88886,0.464883 2.16285,1.022271 2.91797,1.271485 0.83845,0.276709 3.93293,1.636431 7.01953,3.0625 3.0866,1.426069 6.24501,2.949798 7.3125,3.560547 1.04787,0.599531 2.42953,1.73853 3.60938,2.916015 1.17984,1.177485 2.17127,2.436363 2.45507,3.111328 0.28095,0.668148 0.79999,1.615531 1.20704,2.201172 0.86276,1.241276 2.09776,4.28296 3.06835,7.363281 0.96037,3.047822 1.66649,6.173187 1.68165,7.685547 -0.015,0.0063 -9.4e-4,0.0024 -0.0274,0.0098 -0.17269,0.04859 -0.56453,0.08359 -1.16015,0.06445 -1.19126,-0.03827 -3.21431,-0.265417 -6.38086,-0.697266 -2.73866,-0.373494 -6.04054,-0.768495 -7.38282,-0.880859 -1.3052,-0.109308 -3.70783,-0.357199 -5.32031,-0.548828 -1.62106,-0.19264 -4.60168,-0.536771 -6.62695,-0.765625 -2.01542,-0.227742 -4.91702,-0.616938 -6.41992,-0.859375 l -2.41993,-0.388672 -0.20898,-2.033203 c -0.31469,-3.064864 -2.55164,-12.397954 -3.65039,-15.222656 -1.43048,-3.677559 -1.66449,-4.217825 -2.82617,-6.509766 -1.99477,-3.935575 -4.64875,-7.578257 -8.25977,-11.349609 -0.845238,-0.882785 -1.543968,-1.639428 -2.10742,-2.263672 z m 5.08008,21.082031 c 0.1575,0.01766 0.34073,0.118736 0.59179,0.378906 0.66951,0.693786 1.51859,2.451616 2.39844,5.203125 2.6145,8.176336 2.64832,20.816869 0.0488,31.095699 -0.53448,2.11341 -2.12322,6.02173 -3.76367,9.52344 -0.82023,1.75086 -1.65312,3.4074 -2.375,4.69922 -0.721885,1.29182 -1.394877,2.25126 -1.640626,2.45898 -0.131634,0.11125 -0.159861,0.16692 -0.277344,0.3086 -0.117483,0.14168 -0.269295,0.33036 -0.447266,0.55469 -0.355941,0.44865 -0.815035,1.03864 -1.292968,1.66601 -1.678841,2.2038 -8.206715,7.89202 -11.621094,10.07617 -1.01073,0.64657 -3.448287,1.74469 -5.28711,2.36133 l -0.0078,0.002 c -3.002758,1.006 -3.755839,1.1183 -7.386719,1.11132 -3.558351,-0.006 -4.383754,-0.12743 -6.923828,-1.02343 -0.808175,-0.28509 -1.624509,-0.58436 -2.287109,-0.83789 -0.6626,-0.25355 -1.193434,-0.47309 -1.339844,-0.54688 -3.981453,-2.00671 -5.208886,-2.80892 -7.638672,-4.99219 -7.382478,-6.6335 -12.110315,-14.10474 -14.560547,-22.99219 -2.312501,-8.38797 -2.500749,-9.52367 -2.667969,-16.17382 -0.121781,-4.843614 0.110016,-8.84297 0.664063,-11.869144 0.554047,-3.026174 1.452503,-5.062879 2.519531,-6.001953 0.651673,-0.573521 1.130121,-0.832183 1.291016,-0.855469 0.08045,-0.01164 0.06004,-0.01071 0.08789,0.01367 0.02785,0.02438 0.09915,0.120293 0.160157,0.3125 0.111535,0.351404 0.112707,0.629265 -0.07031,1.121094 -0.183022,0.491829 -0.574064,1.169074 -1.232422,2.140625 -0.79784,1.177349 -1.266944,2.191804 -1.365234,3.130859 -0.09829,0.939056 0.22461,1.792958 0.894531,2.462891 1.044903,1.044876 2.485676,1.310322 4.208985,0.847656 0.254803,-0.06841 0.410922,-0.204258 0.607422,-0.376953 0.196498,-0.172694 0.409627,-0.391429 0.634765,-0.65039 0.450276,-0.517926 0.949529,-1.192377 1.412109,-1.917969 0.679556,-1.065956 1.123273,-1.685853 1.445313,-1.996094 0.32204,-0.310241 0.460274,-0.342743 0.822266,-0.34375 h 0.002 c 0.424753,-0.0015 0.656819,0.09896 0.769531,0.207031 0.112712,0.108076 0.173155,0.256537 0.142578,0.558594 -0.06115,0.604113 -0.610334,1.678965 -1.697265,2.898438 -1.163265,1.30515 -1.590753,2.160136 -1.59961,3.291015 -0.01405,1.80079 1.068392,3.224376 2.746094,3.546875 0.749421,0.144058 1.473992,0.01476 2.082031,-0.509766 0.608039,-0.524524 1.139139,-1.368766 1.839844,-2.6875 0.490082,-0.922318 0.893261,-1.410202 1,-1.470703 0.05337,-0.03025 -0.03233,-0.02536 -0.002,-0.0078 0.03043,0.01754 0.148728,0.126654 0.283203,0.339844 0.03754,0.05952 0.07635,0.196361 0.0332,0.46875 -0.04315,0.272388 -0.16856,0.657257 -0.384766,1.136718 -0.489769,1.086199 -0.642576,2.055111 -0.455078,3.054688 0.314482,1.676263 1.613252,2.541913 2.919922,2.402343 1.30667,-0.13957 2.596032,-1.176112 3.144531,-2.904296 0.05533,-0.17432 0.348294,-0.390625 0.550782,-0.390625 0.0874,0 0.104087,0.0049 0.148437,0.0098 -0.01613,0.01317 -0.0052,0.183145 -0.111328,0.632813 -0.165119,0.699563 -0.310391,1.726183 -0.333984,2.386718 -0.0093,0.25944 -0.0126,0.46893 0.01367,0.66992 0.02627,0.20099 0.09433,0.42343 0.269531,0.58985 0.175197,0.16642 0.397142,0.22233 0.599609,0.24024 0.202467,0.0179 0.414007,0.006 0.675781,-0.0137 l 0.720703,-0.0527 0.574219,2.78126 c 0.714711,3.4722 1.802308,6.08568 3.341797,7.85742 1.53949,1.77174 3.549955,2.66797 5.931641,2.66797 2.834047,0 5.254861,-1.39007 6.919922,-3.73242 1.66506,-2.34235 2.602716,-5.6245 2.605468,-9.48438 l 0.002,-1.89649 0.0078,0.006 c 0.313229,0.28347 0.590783,0.48869 0.935547,0.5625 0.344764,0.0738 0.695975,-0.0368 0.986328,-0.21875 0.61157,-0.38323 0.932367,-1.064866 0.935547,-1.816406 0.0032,-0.75154 -0.266096,-1.593375 -0.765625,-2.507813 -0.354131,-0.648264 -0.526426,-1.055618 -0.554688,-1.210937 -0.01413,-0.07766 -0.0043,-0.06775 -0.01172,-0.05273 -0.0075,0.01502 -0.0066,0.0017 0.0625,-0.04102 0.164495,-0.101669 0.281301,-0.13331 0.357422,-0.134766 0.07612,-0.0015 0.132981,0.01352 0.238281,0.0957 0.210599,0.164361 0.532104,0.650675 0.876953,1.486329 0.41436,1.004082 0.995611,1.759835 1.703125,2.18164 0.707514,0.421806 1.563797,0.467247 2.316406,0.06445 0.917718,-0.491158 1.362941,-1.476039 1.330078,-2.568359 -0.03286,-1.092321 -0.492055,-2.328438 -1.335937,-3.570313 -0.646306,-0.951126 -0.821054,-1.700996 -0.728516,-2.074218 0.04627,-0.186612 0.12959,-0.300091 0.308594,-0.404297 0.179004,-0.104206 0.469725,-0.181641 0.880859,-0.181641 0.213985,0 0.751084,0.339945 1.160157,0.925781 0.409071,0.585837 0.701185,1.358976 0.703124,1.9375 0.0021,0.703018 0.359748,1.62977 0.810547,2.369141 0.345448,0.566579 0.610007,0.961319 1.060547,1.177734 0.450541,0.216416 0.935041,0.192917 1.65625,0.140625 0.690247,-0.05002 1.174335,-0.116447 1.591797,-0.373046 0.417463,-0.256601 0.670173,-0.658035 0.943359,-1.205079 0.422763,-0.846507 0.535204,-1.761013 0.304688,-2.740234 -0.230516,-0.979221 -0.779923,-2.026188 -1.644531,-3.263672 -0.83344,-1.192892 -1.256383,-1.913562 -1.355469,-2.302734 -0.04954,-0.194586 -0.03808,-0.28676 0.0078,-0.400391 0.0459,-0.113631 0.152225,-0.261599 0.345704,-0.455078 0.279137,-0.279137 0.526763,-0.453995 0.720703,-0.537109 0.19394,-0.08311 0.321124,-0.08639 0.453125,-0.04492 0.264002,0.08295 0.651204,0.485767 1.027344,1.363281 0.376797,0.879023 0.880691,2.310829 1.095703,3.109375 0.250406,0.929919 0.811609,2.00889 1.404297,2.601563 1.777212,1.777227 5.124182,1.152673 6.078122,-1.150391 0.35037,-0.845858 0.40061,-1.757541 0.11719,-2.777344 -0.28342,-1.019802 -0.87791,-2.162126 -1.81055,-3.601562 -0.97523,-1.505157 -1.53456,-2.573121 -1.74414,-3.34961 -0.20957,-0.776488 -0.12167,-1.229201 0.22852,-1.763672 0.3285,-0.501344 0.62477,-0.709628 0.81836,-0.748047 0.0484,-0.0096 0.0979,-0.0137 0.15039,-0.0078 z m 47.84179,10.634766 c 0.0973,0.02172 0.16709,0.0309 0.29102,0.06641 0.47568,0.136274 1.11534,0.366861 1.78711,0.640625 1.34353,0.547527 2.84425,1.295555 3.4375,1.748047 2.14554,1.636489 3.89854,4.649107 4.89258,8.078125 0.99404,3.429017 1.23431,7.266917 0.46679,10.519527 -0.73373,3.1097 -2.29154,6.651 -3.81445,8.71289 -0.46936,0.63547 -1.86854,1.70732 -3.40625,2.61524 -1.53771,0.9079 -3.24995,1.69443 -4.33594,1.93945 -0.46285,0.10443 -0.94929,0.23503 -1.38086,0.35156 0.0551,-0.0852 0.081,-0.13167 0.14844,-0.23437 0.48769,-0.7427 1.73633,-3.00196 1.73633,-3.00196 l 0.0156,-0.0273 0.5957,-1.57031 c 0.66451,-0.57869 1.53301,-0.78018 3.03125,-0.82813 1.91315,-0.0612 1.68836,0.95643 -0.45899,2.07422 -1.45242,0.75607 -1.59254,0.91292 -0.82812,0.91992 1.31158,0.0129 3.91759,-1.25238 4.38672,-2.1289 1.19994,-2.24217 -0.0881,-3.73438 -3.22266,-3.73438 h -1.5332 l 0.27539,-2.43359 c 0.15538,-1.37111 0.38164,-3.5658 0.50391,-4.88672 l 0.2246,-2.42969 v -0.004 h 2.0625 c 2.0718,0 2.60643,0.1283 3.04102,0.72266 0.75357,1.03064 0.49799,1.41481 -1.34766,2.02149 -1.08284,0.35592 -1.40155,0.58303 -0.94921,0.67773 1.06094,0.22192 3.09988,-0.26395 3.72265,-0.88672 0.89133,-0.89133 0.71871,-3.17966 -0.3125,-4.14844 -0.98708,-0.92732 -3.80494,-1.88281 -5.55664,-1.88281 -0.48223,0 -0.75962,-0.0131 -0.95703,-0.20703 l -0.20117,-2.519528 -0.67774,-3.771484 -0.21289,-0.861328 c 0.19544,-0.0034 0.4806,0.03871 0.91602,0.109375 2.18235,0.354147 3.371,1.730468 1.49414,1.730468 -0.50604,0 -0.91992,0.164779 -0.91992,0.367188 0,0.58689 2.09861,0.4268 2.73437,-0.208985 1.65616,-1.656158 -0.1634,-4.499404 -3.41211,-5.332031 -0.87403,-0.224001 -1.4228,-0.453944 -1.82226,-0.75 l -0.21485,-0.867187 -0.01,-0.02539 c 0,0 -0.0988,-0.259602 -0.18164,-0.525391 -0.003,-0.01102 -0.004,-0.01827 -0.008,-0.0293 z m -78.894526,1.226562 c 0.582703,-0.03267 1.119276,0.01468 1.630859,0.146484 1.023167,0.263613 1.944676,0.866545 2.927735,1.84961 1.051582,1.051592 1.880715,2.31564 2.236328,3.359375 0.359947,1.056383 0.556239,2.35498 0.570312,3.482422 0.01407,1.127441 -0.207524,2.103111 -0.425781,2.394531 -0.124177,0.16581 -0.198217,0.23079 -0.212891,0.23828 -0.01467,0.007 -0.02988,0.0276 -0.21875,-0.0234 -0.377744,-0.10212 -1.225429,-0.52918 -2.820312,-1.37695 -2.243308,-1.192448 -3.659238,-1.829137 -4.972656,-1.814455 -1.043213,0.01166 -1.961817,0.566828 -2.980469,1.375005 l 0.0039,-0.11329 -0.792969,0.70704 c -0.560214,0.49931 -1.10941,0.95329 -1.533203,1.27734 -0.211896,0.16203 -0.393282,0.29279 -0.521484,0.375 -0.0393,0.0252 -0.05916,0.0356 -0.08594,0.0508 -0.03728,-0.003 -0.06064,8.7e-4 -0.121093,-0.0879 -0.07688,-0.11285 -0.166052,-0.34666 -0.214844,-0.67773 -0.09757,-0.66216 -0.04854,-1.691733 0.185555,-2.9297 0.473064,-2.501871 1.107291,-4.291867 1.974609,-5.533203 0.867318,-1.241336 1.954522,-1.961348 3.464844,-2.367188 0.694714,-0.186679 1.323547,-0.299362 1.90625,-0.332031 z m 43.933596,9.121094 c 0.75992,-0.01943 1.80912,-0.01502 3.00195,0.01172 2.38566,0.05347 5.35095,0.194444 7.78516,0.396488 4.65504,0.38637 12.98337,0.98256 19.78515,1.41601 1.28352,0.0818 2.47482,0.18009 3.35547,0.27344 0.44033,0.0467 0.80542,0.0933 1.05664,0.13281 0.0847,0.0133 0.13376,0.024 0.18946,0.0352 7.3e-4,0.003 9.5e-4,0.003 0.002,0.006 0.0314,0.11952 0.0684,0.29897 0.10547,0.51368 0.0741,0.42942 0.15029,1.00506 0.20508,1.60937 l 0.1582,1.7461 -2.51367,0.004 h -0.44922 c -1.90963,0.002 -4.28402,0.0607 -5.32813,0.13477 -0.13563,0.01 -0.71093,0.0185 -1.53711,0.0176 -0.82617,-8.8e-4 -1.92882,-0.009 -3.21679,-0.0215 -2.57594,-0.0246 -5.89388,-0.0699 -9.23633,-0.12304 -3.34245,-0.0532 -6.70938,-0.11493 -9.38281,-0.17383 -2.67344,-0.0589 -4.68091,-0.11579 -5.20704,-0.1543 -0.11928,-0.009 -0.11778,-0.0252 -0.0937,-0.004 0.024,0.0214 -0.008,0.0102 -0.0332,-0.1582 -0.051,-0.33679 -0.0292,-1.13951 0.0566,-2.57617 0.0515,-0.86223 0.12249,-1.6704 0.19336,-2.26954 0.0354,-0.29956 0.07,-0.548107 0.10156,-0.716793 0.003,-0.01823 0.006,-0.02275 0.01,-0.03906 0.0345,-0.0047 0.0512,-0.0093 0.0957,-0.01367 0.20861,-0.02071 0.51653,-0.03717 0.89649,-0.04687 z m 48.29883,9.640628 c 0.0146,0.0201 0.0263,0.0327 0.0469,0.0801 0.0626,0.14403 0.11914,0.40413 0.11914,0.75976 0,1.61329 0.53282,2.78176 1.91406,4.26563 0.41435,0.44516 0.58731,0.68299 0.69141,1.08203 0.1041,0.39903 0.1238,1.01307 0.0996,2.09765 -0.0562,2.51402 -1.02115,5.59649 -2.36523,7.58008 -0.51598,0.76145 -0.94932,1.10196 -1.01758,1.11914 -0.0341,0.009 0.0235,0.0292 -0.0293,-0.0215 -0.0528,-0.0507 -0.15885,-0.21113 -0.25977,-0.47657 -0.099,-0.26047 -0.19002,-0.51834 -0.2539,-0.71874 -0.032,-0.10021 -0.0566,-0.18627 -0.0723,-0.2461 -0.0156,-0.0598 -0.0156,-0.13238 -0.0156,-0.0371 0,-0.12788 -0.0198,-0.14439 -0.0312,-0.17773 -0.0114,-0.0333 -0.0222,-0.0602 -0.0352,-0.0898 -0.0258,-0.0593 -0.0577,-0.12595 -0.0977,-0.20507 -0.0799,-0.15825 -0.19186,-0.36473 -0.32813,-0.61133 -0.27255,-0.49321 -0.64599,-1.14275 -1.05664,-1.83399 l -1.35352,-2.27929 0.96094,-1.75586 c 1.03587,-1.89059 2.26925,-5.34714 2.82813,-7.89453 0.0735,-0.33518 0.18249,-0.54783 0.2539,-0.63477 z m -14.87891,3.80664 c 0.23109,-0.004 0.43423,0.004 0.60156,0.0195 0.16561,0.0157 0.29405,0.0418 0.36524,0.0645 -0.0145,-0.003 0.0459,0.18723 0.041,0.48438 -0.005,0.3259 -0.0476,0.74308 -0.11719,1.16601 -0.13912,0.84587 -0.44503,1.76609 -0.59179,1.9668 0.0212,-0.029 -0.2079,0.15452 -0.63477,0.30273 -0.42687,0.14822 -1.04686,0.30891 -1.84961,0.47657 -1.60549,0.3353 -3.9441,0.69954 -7.0332,1.09179 -1.32341,0.16806 -4.21998,0.57093 -6.44922,0.89649 -2.2265,0.32516 -6.3674,0.9285 -9.20117,1.34179 -2.83942,0.41414 -6.30923,0.97423 -7.74805,1.25196 -2.15968,0.41687 -3.65143,0.66342 -4.60742,0.75586 -0.47799,0.0462 -0.82454,0.0527 -1.02734,0.0312 -0.0659,-0.007 -0.0821,-0.0147 -0.10938,-0.0234 0.002,-0.0686 0.0103,-0.15802 0.0312,-0.27149 0.0475,-0.2579 0.14558,-0.59206 0.2793,-0.9121 0.31921,-0.76398 0.74307,-2.2479 0.98437,-3.41016 0.11684,-0.56282 0.23032,-1.07883 0.31836,-1.45117 0.0355,-0.15024 0.0629,-0.25618 0.0879,-0.35157 0.076,-0.0147 0.15713,-0.0287 0.26953,-0.0469 0.28524,-0.0462 0.67526,-0.10094 1.14454,-0.16211 0.93854,-0.12233 2.19076,-0.26837 3.55664,-0.41602 2.73176,-0.29528 5.92756,-0.59935 8.02148,-0.74218 5.99325,-0.40881 7.89804,-0.57655 22.90234,-2.01758 0.27551,-0.0264 0.53454,-0.0412 0.76563,-0.0449 z m 9.51758,8.44922 c 0.12288,-0.0263 0.21971,-0.0186 0.26562,0.01 -0.0443,-0.0274 0.0546,0.0536 0.15039,0.1875 0.0958,0.13394 0.21418,0.32232 0.3418,0.54688 0.25523,0.4491 0.54955,1.03859 0.82422,1.64453 0.27467,0.60594 0.53008,1.23157 0.71484,1.7539 0.18477,0.52234 0.28708,0.98615 0.28711,1.07032 6e-5,0.15079 -0.0158,0.24996 -0.0273,0.28711 -0.0116,0.0371 0.002,0.0107 -0.002,0.0137 -0.009,0.006 -0.23734,0.0742 -0.71485,0.0723 -0.5202,-0.002 -0.65502,-0.019 -0.85742,-0.21289 -0.2024,-0.19392 -0.48823,-0.6913 -0.94727,-1.64843 -0.27048,-0.56393 -0.51828,-1.16978 -0.69531,-1.68165 -0.17703,-0.51185 -0.27349,-0.97737 -0.27344,-1.04882 1.5e-4,-0.22709 0.21158,-0.58136 0.51172,-0.79883 0.15007,-0.10874 0.299,-0.16902 0.42188,-0.19531 z m -2.6543,1.83789 c 0.004,0.1124 0.55268,1.40484 0.42941,2.22702 -0.13864,0.92445 -0.16661,1.826 -0.38613,2.2052 -0.0146,0.0252 -1.30395,0.51702 -1.31835,0.53792 -0.0275,-0.12011 -0.40262,-0.44776 -0.40032,-0.70958 0.003,-0.37793 0.16551,-1.26526 0.24933,-1.71328 0.0838,-0.44802 -0.16385,-1.16394 -0.0398,-1.47683 0.062,-0.15645 1.25411,-0.90084 1.30378,-0.9748 0.0248,-0.037 0.0473,-0.0568 0.0547,-0.0644 0.0408,-0.0137 0.0662,-0.0207 0.10742,-0.0312 z m -5.02539,2.46679 c 0.034,0.74534 0.43942,1.58316 1,2.44532 0.58344,0.89731 1.53558,1.27138 2.24864,1.73319 0.26387,0.1709 4.42568,0.215 4.57494,0.32272 -0.90816,0.33552 -5.39936,1.19427 -6.35769,0.69423 -1.29585,-0.67616 -2.51185,-2.14102 -3.06745,-3.47085 -0.12695,-0.30382 -0.21719,-0.52899 -0.25977,-0.67383 -0.0426,-0.14482 -0.0298,-0.18461 -0.0332,-0.17382 -0.003,0.0108 -0.011,-0.004 0.0918,-0.0762 0.10275,-0.0719 0.29401,-0.17372 0.55859,-0.31054 0.61057,-0.31575 1.0612,-0.4698 1.24219,-0.48828 z"
         id="path3075-7-7"
         inkscape:connector-curvature="0" />
    </g>
    <g
       id="text4429"
       style="font-style:normal;font-variant:normal;font-weight:normal;font-stretch:normal;font-size:15px;line-height:125%;font-family:Ubuntu;-inkscape-font-specification:'Ubuntu, Normal';text-align:start;letter-spacing:0px;word-spacing:0px;writing-mode:lr-tb;text-anchor:start;display:inline;fill:#000000;fill-opacity:1;stroke:none;stroke-width:1px;stroke-linecap:butt;stroke-linejoin:miter;stroke-opacity:1"
       transform="matrix(1.1666667,0,0,1.1666667,0,1.3668063e-5)">
      <path
         id="path4310"
         style="font-style:normal;font-variant:normal;font-weight:normal;font-stretch:normal;font-size:20.00000191px;line-height:125%;font-family:Bungee;-inkscape-font-specification:'Bungee, Normal';text-align:start;letter-spacing:0.30000001px;writing-mode:lr-tb;text-anchor:start;fill:#ffffff"
         d="m 18.677033,77.358587 -0.345233,0.72857 q -0.364229,0.722313 -0.571142,1.222701 -0.206912,0.500387 -0.306558,0.930818 -0.09339,0.411434 -0.129791,0.841638 -0.03014,0.411207 -0.03435,0.999409 -0.02343,0.518702 -0.237739,0.721859 -0.233302,0.196902 -0.556239,0.09054 l -2.013606,-0.663168 q -0.493904,-0.162663 -0.634043,-0.440442 -0.14014,-0.277778 -0.141277,-0.594004 -0.0092,-0.80319 0.03947,-1.334632 0.04869,-0.531441 0.198837,-0.987352 0.131155,-0.462167 0.37606,-0.950041 0.251161,-0.506871 0.63416,-1.286174 l 0.20714,-0.437142 0.26993,-0.563859 q 0.42702,-0.849032 0.652928,-1.343162 0.213169,-0.519384 0.319299,-0.905566 0.09339,-0.411434 0.123534,-0.822642 0.01115,-0.417463 0.03413,-1.062655 0.02969,-0.537697 0.262991,-0.734598 0.233303,-0.196902 0.651221,-0.05926 l 1.880632,0.619373 q 0.493904,0.162664 0.627787,0.459438 0.133884,0.296775 0.147533,0.575008 0.0092,0.803191 -0.04573,1.353628 -0.04869,0.531441 -0.179841,0.993609 -0.150151,0.45591 -0.401313,0.962781 -0.251161,0.506871 -0.627903,1.267177 l -0.200884,0.418146 z"
         inkscape:connector-curvature="0" />
      <path
         id="path4312"
         style="font-style:normal;font-variant:normal;font-weight:normal;font-stretch:normal;font-size:20.00000191px;line-height:125%;font-family:Bungee;-inkscape-font-specification:'Bungee, Normal';text-align:start;letter-spacing:0.30000001px;writing-mode:lr-tb;text-anchor:start;fill:#ffffff"
         d="m 33.471342,59.083909 -3.98644,6.56435 q -0.197246,0.324799 -0.427436,0.3956 -0.236902,0.04332 -0.561701,-0.15392 L 17.418423,59.16282 q -0.324799,-0.197246 -0.378505,-0.417054 -0.06042,-0.247284 0.136826,-0.572083 l 3.311652,-5.453197 q 1.017373,-1.675277 2.154894,-2.084235 1.120426,-0.419339 2.45381,0.390407 l 0.820544,0.498305 q 0.717976,0.436017 1.023811,0.972733 0.299123,0.509241 0.209913,1.157038 0.766974,-1.03177 1.738393,-1.167213 0.97142,-0.135443 2.21933,0.622396 l 1.572709,0.955084 q 1.435952,0.872034 1.621434,2.107832 0.195862,1.218704 -0.831892,2.911076 z m -11.426429,-2.376287 1.846223,1.121187 0.882416,-1.453047 q 0.197245,-0.324798 0.119731,-0.582464 -0.06713,-0.27476 -0.409026,-0.482387 l -0.478651,-0.290678 q -0.341893,-0.207627 -0.616653,-0.140494 -0.264379,0.05004 -0.461625,0.374837 z m 4.478802,2.719916 2.01717,1.225 1.349576,-2.222307 q 0.197246,-0.324798 0.119732,-0.582464 -0.06713,-0.27476 -0.409027,-0.482387 l -0.666692,-0.404873 q -0.341893,-0.207627 -0.599559,-0.130113 -0.264378,0.05004 -0.461624,0.374837 z"
         inkscape:connector-curvature="0" />
      <path
         id="path4314"
         style="font-style:normal;font-variant:normal;font-weight:normal;font-stretch:normal;font-size:20.00000191px;line-height:125%;font-family:Bungee;-inkscape-font-specification:'Bungee, Normal';text-align:start;letter-spacing:0.30000001px;writing-mode:lr-tb;text-anchor:start;fill:#ffffff"
         d="m 32.772419,43.102524 1.671179,2.707834 2.065663,-2.364876 -2.907945,-1.291921 q -0.188195,-0.05816 -0.314232,-0.03548 -0.11288,0.0076 -0.191822,0.098 l -0.328927,0.376573 q -0.07894,0.09038 -0.08448,0.21832 0.0076,0.11288 0.09056,0.291545 z m 6.389864,7.095045 q 0.286195,0.249985 0.303348,0.503965 0.01525,0.22576 -0.234738,0.511955 l -1.934092,2.214247 q -0.249985,0.286195 -0.488902,0.316505 -0.240822,0.0021 -0.527018,-0.247895 L 32.304274,50.022875 Q 31.852387,49.628162 31.383347,48.97947 30.927465,48.315714 30.407335,47.330288 l -2.274613,-4.297132 q -0.177127,-0.314048 -0.139745,-0.600059 0.05054,-0.301075 0.31368,-0.602333 l 3.539257,-4.051922 q 0.249984,-0.286195 0.528373,-0.361693 0.291545,-0.09056 0.626557,0.04273 l 4.563946,1.676185 q 1.046413,0.382911 1.75228,0.760471 0.719024,0.362497 1.170912,0.75721 l 3.976607,3.473471 q 0.286195,0.249984 0.303348,0.503964 0.01525,0.22576 -0.234738,0.511955 l -1.986721,2.274499 q -0.263141,0.301258 -0.515215,0.346631 -0.25398,0.01715 -0.540176,-0.232832 l -2.108806,-1.841992 -2.328805,2.666134 2.108807,1.841992 z"
         inkscape:connector-curvature="0" />
      <path
         id="path4316"
         style="font-style:normal;font-variant:normal;font-weight:normal;font-stretch:normal;font-size:20.00000191px;line-height:125%;font-family:Bungee;-inkscape-font-specification:'Bungee, Normal';text-align:start;letter-spacing:0.30000001px;writing-mode:lr-tb;text-anchor:start;fill:#ffffff"
         d="m 52.221099,38.465338 -4.870566,4.027406 q -0.29285,0.242154 -0.533529,0.233553 -0.23801,-0.03676 -0.480164,-0.329609 l -1.49116,-1.803343 q -0.242154,-0.29285 -0.220808,-0.518115 0.02401,-0.253423 0.316864,-0.495578 l 4.146146,-3.428393 q 0.200372,-0.165684 0.190891,-0.365459 -0.0068,-0.227934 -0.159752,-0.412892 -0.216664,-0.262024 -0.426516,-0.296115 -0.194439,-0.04684 -0.407555,0.103436 l -2.579621,1.588066 q -1.206373,0.738015 -2.327958,0.731174 -1.106172,-0.01959 -2.176748,-1.314294 l -1.33822,-1.618384 q -1.083322,-1.31012 -0.80912,-2.704686 0.261457,-1.409979 1.756536,-2.64624 l 4.315691,-3.568587 q 0.29285,-0.242155 0.53086,-0.205396 0.240679,0.0086 0.482833,0.301452 l 1.516649,1.834168 q 0.242155,0.292851 0.218141,0.546274 -0.02135,0.225265 -0.314197,0.467419 l -3.591271,2.969575 q -0.200371,0.165685 -0.193559,0.393618 -0.0059,0.21252 0.159752,0.412891 0.165684,0.200372 0.388281,0.249876 0.222597,0.0495 0.435713,-0.100768 l 2.551463,-1.590734 q 1.206373,-0.738016 2.327958,-0.731174 1.121585,0.0068 2.192162,1.301549 l 1.33822,1.618384 q 1.083321,1.31012 0.806451,2.732844 -0.274202,1.394566 -1.753867,2.618082 z"
         inkscape:connector-curvature="0" />
      <path
         id="path4318"
         style="font-style:normal;font-variant:normal;font-weight:normal;font-stretch:normal;font-size:20.00000191px;line-height:125%;font-family:Bungee;-inkscape-font-specification:'Bungee, Normal';text-align:start;letter-spacing:0.30000001px;writing-mode:lr-tb;text-anchor:start;fill:#ffffff"
         d="m 63.12422,31.059761 -5.424064,3.243752 q -0.326131,0.195036 -0.562734,0.150103 -0.229703,-0.07236 -0.424739,-0.398493 l -1.20101,-2.008277 q -0.195035,-0.326131 -0.139838,-0.545569 0.0621,-0.246868 0.388228,-0.441904 l 4.617321,-2.761296 q 0.223142,-0.133445 0.24401,-0.332353 0.02777,-0.226339 -0.09541,-0.432316 -0.174506,-0.291801 -0.376779,-0.357263 -0.185109,-0.07573 -0.418516,0.04055 l -2.79028,1.179296 q -1.304184,0.546905 -2.41181,0.370371 -1.090462,-0.1868 -1.952725,-1.62864 l -1.077829,-1.8023 q -0.872528,-1.459005 -0.390393,-2.795996 0.47187,-1.354156 2.136852,-2.349865 l 4.806133,-2.874211 q 0.32613,-0.195036 0.555834,-0.122673 0.236603,0.04493 0.431639,0.371063 l 1.221539,2.042606 q 0.195036,0.326131 0.132939,0.572999 -0.0552,0.219439 -0.381329,0.414474 l -3.999389,2.391754 q -0.223142,0.133446 -0.25091,0.359784 -0.03803,0.209173 0.09541,0.432315 0.133445,0.223142 0.345984,0.30577 0.212538,0.08263 0.445945,-0.03365 l 2.762851,-1.186196 q 1.304183,-0.546905 2.41181,-0.37037 1.107626,0.176534 1.969889,1.618374 l 1.077829,1.8023 q 0.872529,1.459005 0.383494,2.823426 -0.482135,1.336992 -2.129953,2.322436 z"
         inkscape:connector-curvature="0" />
      <path
         id="path4320"
         style="font-style:normal;font-variant:normal;font-weight:normal;font-stretch:normal;font-size:20.00000191px;line-height:125%;font-family:Bungee;-inkscape-font-specification:'Bungee, Normal';text-align:start;letter-spacing:0.30000001px;writing-mode:lr-tb;text-anchor:start;fill:#ffffff"
         d="m 72.476019,26.410566 -2.875766,1.15757 q -0.352513,0.141896 -0.579239,0.06068 -0.21564,-0.107234 -0.357536,-0.459748 L 63.824087,15.146512 q -0.141896,-0.352513 -0.05322,-0.560685 0.09977,-0.234194 0.45228,-0.37609 l 5.67732,-2.285268 q 2.523253,-1.015674 3.854202,-0.387204 1.330949,0.62847 1.980682,2.24261 l 0.955929,2.374826 q 0.649733,1.61414 0.125349,2.98943 -0.524384,1.37529 -3.047637,2.390964 l -2.133633,0.858843 1.23972,3.079853 q 0.141896,0.352513 0.04213,0.586707 -0.08868,0.208172 -0.441195,0.350068 z m -3.349735,-10.142845 1.127698,2.801553 1.6698,-0.672137 q 0.538046,-0.216578 0.593003,-0.562092 0.05496,-0.345513 -0.08694,-0.698027 L 72.03403,16.153692 q -0.141895,-0.352514 -0.420898,-0.5636 -0.279003,-0.211086 -0.81705,0.0055 l -1.6698,0.672137 z"
         inkscape:connector-curvature="0" />
      <path
         id="path4322"
         style="font-style:normal;font-variant:normal;font-weight:normal;font-stretch:normal;font-size:20.00000191px;line-height:125%;font-family:Bungee;-inkscape-font-specification:'Bungee, Normal';text-align:start;letter-spacing:0.30000001px;writing-mode:lr-tb;text-anchor:start;fill:#ffffff"
         d="m 82.357948,22.810151 q -0.369926,0.08692 -0.581751,-0.02767 -0.19693,-0.138631 -0.283849,-0.508557 L 80.947962,19.95702 q -0.08692,-0.369926 0.03224,-0.562282 0.134056,-0.2164 0.503982,-0.303319 l 1.927508,-0.452892 -1.537088,-6.541847 -1.927509,0.452892 q -0.369926,0.08692 -0.581751,-0.02767 -0.196931,-0.13863 -0.283849,-0.508556 L 78.527963,9.6575069 q -0.08692,-0.3699259 0.03224,-0.5622815 0.134056,-0.2164 0.503982,-0.3033187 l 8.294128,-1.9488086 q 0.369926,-0.086919 0.566856,0.051712 0.211826,0.1145863 0.298744,0.4845122 l 0.553535,2.3558438 q 0.08692,0.3699259 -0.04714,0.5863259 -0.119161,0.192356 -0.489087,0.279274 l -1.888569,0.443743 1.537088,6.541848 1.888569,-0.443743 q 0.369926,-0.08692 0.566857,0.05171 0.211825,0.114586 0.298744,0.484512 l 0.544385,2.316904 q 0.08692,0.369926 -0.04714,0.586326 -0.119161,0.192356 -0.489087,0.279275 l -8.294128,1.948808 z"
         inkscape:connector-curvature="0" />
      <path
         id="path4324"
         style="font-style:normal;font-variant:normal;font-weight:normal;font-stretch:normal;font-size:20.00000191px;line-height:125%;font-family:Bungee;-inkscape-font-specification:'Bungee, Normal';text-align:start;letter-spacing:0.30000001px;writing-mode:lr-tb;text-anchor:start;fill:#ffffff"
         d="m 100.76024,19.704288 -6.298373,0.522406 q -0.3787,0.03141 -0.571309,-0.113163 -0.174331,-0.166158 -0.205742,-0.544858 l -0.193422,-2.331992 q -0.03141,-0.3787 0.114816,-0.551378 0.164505,-0.194263 0.543205,-0.225673 l 5.36159,-0.444707 q 0.25911,-0.02149 0.365474,-0.190863 0.124641,-0.190956 0.104804,-0.430135 -0.0281,-0.338836 -0.180851,-0.486717 -0.132815,-0.149533 -0.393578,-0.147973 L 96.382403,14.58865 Q 94.970662,14.505057 94.05409,13.858608 93.15745,13.210506 93.018583,11.536255 L 92.844998,9.4434409 Q 92.704478,7.7492583 93.72632,6.761413 94.746509,5.7536361 96.679871,5.5932772 l 5.580839,-0.4628918 q 0.3787,-0.03141 0.55303,0.1347481 0.19261,0.1445738 0.22402,0.5232734 l 0.19673,2.3718556 q 0.0314,0.3786996 -0.1331,0.5729623 -0.14622,0.1726779 -0.52492,0.2040885 l -4.644058,0.385192 q -0.25911,0.021491 -0.383752,0.2124477 -0.126296,0.1710248 -0.104804,0.4301351 0.02149,0.2591099 0.175891,0.4269219 0.154399,0.167812 0.415163,0.166252 l 3.00287,0.152307 q 1.41174,0.08359 2.32831,0.730041 0.91657,0.64645 1.05544,2.320701 l 0.17358,2.092813 q 0.14052,1.694183 -0.8996,2.703613 -1.02184,0.987845 -2.93527,1.146551 z"
         inkscape:connector-curvature="0" />
      <path
         id="path4326"
         style="font-style:normal;font-variant:normal;font-weight:normal;font-stretch:normal;font-size:20.00000191px;line-height:125%;font-family:Bungee;-inkscape-font-specification:'Bungee, Normal';text-align:start;letter-spacing:0.30000001px;writing-mode:lr-tb;text-anchor:start;fill:#ffffff"
         d="m 113.98125,19.879253 -3.23196,-0.228137 q -0.37906,-0.02676 -0.54735,-0.199034 -0.14693,-0.19082 -0.12017,-0.569877 l 0.69146,-9.7956266 -2.93271,-0.2070139 q -0.37905,-0.026757 -0.54734,-0.1990341 -0.14693,-0.1908193 -0.12017,-0.5698761 l 0.1704,-2.4139937 q 0.0267,-0.3790568 0.19762,-0.5273936 0.19223,-0.166879 0.57129,-0.1401221 l 10.53379,0.74356 q 0.37905,0.026757 0.52598,0.2175762 0.16829,0.1722772 0.14153,0.551334 l -0.1704,2.4139937 q -0.0267,0.3790568 -0.21898,0.5459357 -0.17087,0.1483369 -0.54993,0.12158 l -2.9327,-0.2070139 -0.69145,9.7956274 q -0.0268,0.379057 -0.21899,0.545935 -0.17087,0.148337 -0.54992,0.12158 z"
         inkscape:connector-curvature="0" />
      <path
         id="path4328"
         style="font-style:normal;font-variant:normal;font-weight:normal;font-stretch:normal;font-size:20.00000191px;line-height:125%;font-family:Bungee;-inkscape-font-specification:'Bungee, Normal';text-align:start;letter-spacing:0.30000001px;writing-mode:lr-tb;text-anchor:start;fill:#ffffff"
         d="m 133.21869,19.658817 q -0.21215,0.895204 -0.65987,1.570152 -0.42363,0.660099 -1.22929,1.024123 -0.78159,0.349175 -2.03789,0.359755 -1.23684,0.01519 -3.04671,-0.41373 -1.80987,-0.42892 -2.9278,-1.00217 -1.11794,-0.573249 -1.67916,-1.240656 -0.53715,-0.682256 -0.63896,-1.46688 -0.0777,-0.799473 0.13442,-1.694677 l 1.57271,-6.636189 q 0.21216,-0.8952041 0.63579,-1.555303 0.44771,-0.6749479 1.23391,-1.0435842 0.80566,-0.3640243 2.06196,-0.3746036 1.2563,-0.010579 3.06617,0.4183412 1.80987,0.4289207 2.90835,0.9975581 1.11794,0.5732495 1.65508,1.2555052 0.55661,0.6868673 0.63435,1.4863413 0.1018,0.784624 -0.11035,1.679828 z m -7.50159,-2.517743 q -0.0922,0.389219 0.13511,0.730854 0.23196,0.322173 1.28285,0.571224 1.05089,0.24905 1.40276,0.06524 0.35648,-0.203273 0.44873,-0.592492 l 1.24064,-5.234999 q 0.0876,-0.369759 -0.14433,-0.691932 -0.22735,-0.341634 -1.27824,-0.590685 -1.05089,-0.249051 -1.40737,-0.04578 -0.35188,0.183812 -0.4395,0.55357 l -1.24065,5.234999 z"
         inkscape:connector-curvature="0" />
      <path
         id="path4330"
         style="font-style:normal;font-variant:normal;font-weight:normal;font-stretch:normal;font-size:20.00000191px;line-height:125%;font-family:Bungee;-inkscape-font-specification:'Bungee, Normal';text-align:start;letter-spacing:0.30000001px;writing-mode:lr-tb;text-anchor:start;fill:#ffffff"
         d="m 145.08094,28.51517 -9.37612,-3.964945 q -0.35,-0.148004 -0.45347,-0.365476 -0.0772,-0.228103 0.0708,-0.578096 l 5.04771,-11.936594 q 0.148,-0.349992 0.35769,-0.43504 0.23589,-0.09568 0.58588,0.05232 l 2.8552,1.207399 q 0.35,0.148004 0.42726,0.376107 0.10346,0.217473 -0.0445,0.567466 l -3.85589,9.118231 2.52363,1.067185 1.26193,-2.984148 q 0.148,-0.349993 0.35769,-0.435041 0.23589,-0.09568 0.58588,0.05232 l 2.671,1.129503 q 0.34999,0.148004 0.42725,0.376107 0.10347,0.217472 -0.0445,0.567465 l -2.45375,5.802511 q -0.14801,0.349993 -0.3839,0.445672 -0.20968,0.08505 -0.55967,-0.06296 z"
         inkscape:connector-curvature="0" />
      <path
         id="path4332"
         style="font-style:normal;font-variant:normal;font-weight:normal;font-stretch:normal;font-size:20.00000191px;line-height:125%;font-family:Bungee;-inkscape-font-specification:'Bungee, Normal';text-align:start;letter-spacing:0.30000001px;writing-mode:lr-tb;text-anchor:start;fill:#ffffff"
         d="m 151.83094,32.42347 -3.48823,-2.038112 q -0.3281,-0.191703 -0.4028,-0.420658 -0.0473,-0.236133 0.14437,-0.564233 l 2.0482,-3.505492 q 0.1917,-0.328101 0.41057,-0.385531 0.24622,-0.06461 0.57432,0.127095 l 3.48822,2.038111 q 0.3281,0.191704 0.37544,0.427837 0.0747,0.228954 -0.117,0.557055 l -2.0482,3.505492 q -0.1917,0.3281 -0.43793,0.392709 -0.21886,0.05743 -0.54696,-0.134273 z"
         inkscape:connector-curvature="0" />
      <path
         id="path4334"
         style="font-style:normal;font-variant:normal;font-weight:normal;font-stretch:normal;font-size:20.00000191px;line-height:125%;font-family:Bungee;-inkscape-font-specification:'Bungee, Normal';text-align:start;letter-spacing:0.30000001px;writing-mode:lr-tb;text-anchor:start;fill:#ffffff"
         d="m 162.48434,40.030229 -3.88703,-2.950492 q -1.9913,-1.511523 -2.35845,-3.045669 -0.35122,-1.522053 0.90637,-3.17882 l 3.76067,-4.954369 q 1.25758,-1.656767 2.81802,-1.727758 1.58846,-0.07483 3.57976,1.436693 l 3.88703,2.950493 q 0.30268,0.229751 0.3213,0.469863 0.0466,0.236273 -0.18312,0.538951 l -1.46315,1.927585 q -0.22976,0.302678 -0.48196,0.337223 -0.22418,0.03071 -0.52686,-0.199046 l -3.20202,-2.430529 q -0.49384,-0.374857 -0.89,-0.349144 -0.38406,0.0098 -0.68636,0.408044 L 161.2006,33.0547 q -0.30231,0.398262 -0.20846,0.77081 0.10594,0.356617 0.59979,0.731475 l 3.20202,2.430529 q 0.30268,0.229751 0.32129,0.469863 0.0466,0.236273 -0.18311,0.538952 l -1.43897,1.895723 q -0.22976,0.302678 -0.48196,0.337223 -0.22418,0.03071 -0.52686,-0.199046 z"
         inkscape:connector-curvature="0" />
      <path
         id="path4336"
         style="font-style:normal;font-variant:normal;font-weight:normal;font-stretch:normal;font-size:20.00000191px;line-height:125%;font-family:Bungee;-inkscape-font-specification:'Bungee, Normal';text-align:start;letter-spacing:0.30000001px;writing-mode:lr-tb;text-anchor:start;fill:#ffffff"
         d="m 176.08688,48.317947 q -0.66623,0.634459 -1.40969,0.955812 -0.71519,0.322043 -1.58897,0.187529 -0.84552,-0.133823 -1.90411,-0.810412 -1.04481,-0.662107 -2.32752,-2.009049 -1.28271,-1.346943 -1.90681,-2.43731 -0.6241,-1.090367 -0.73027,-1.955888 -0.0779,-0.86483 0.26488,-1.577922 0.37106,-0.7124 1.03729,-1.346859 l 4.93879,-4.703273 q 0.66623,-0.634459 1.38141,-0.956503 0.74346,-0.321353 1.60346,-0.201322 0.87379,0.134514 1.93238,0.811104 1.0586,0.676589 2.34131,2.023531 1.28271,1.346943 1.89302,2.422827 0.6241,1.090367 0.702,1.955197 0.0917,0.879314 -0.27937,1.591715 -0.34278,0.713091 -1.00901,1.34755 z m -4.91289,-6.202935 q -0.28966,0.275852 -0.28554,0.686197 0.0186,0.396553 0.76341,1.178648 0.7448,0.782096 1.13997,0.820041 0.40965,0.02415 0.69932,-0.251699 l 3.89599,-3.710207 q 0.27519,-0.262059 0.25658,-0.658611 -0.004,-0.410345 -0.74892,-1.192441 -0.7448,-0.782095 -1.15446,-0.806248 -0.39517,-0.03795 -0.67035,0.224114 z"
         inkscape:connector-curvature="0" />
      <path
         id="path4338"
         style="font-style:normal;font-variant:normal;font-weight:normal;font-stretch:normal;font-size:20.00000191px;line-height:125%;font-family:Bungee;-inkscape-font-specification:'Bungee, Normal';text-align:start;letter-spacing:0.30000001px;writing-mode:lr-tb;text-anchor:start;fill:#ffffff"
         d="m 177.19952,56.223918 -1.62167,-2.500116 q -0.20679,-0.318807 -0.17051,-0.55689 0.0639,-0.232188 0.38275,-0.438978 l 10.87299,-7.052642 q 0.3188,-0.206791 0.54011,-0.159626 0.24897,0.05306 0.45576,0.371867 l 1.75227,2.701468 q 0.17414,0.268469 0.16552,0.512448 0.002,0.260758 -0.16825,0.585911 l -1.75549,3.284181 q -0.0966,0.18185 -0.13106,0.275723 -0.0236,0.110652 0.0417,0.211328 l 0.0979,0.151014 q 0.0653,0.100675 0.16507,0.107478 0.11066,0.02358 0.31609,0.0095 l 3.70367,-0.280686 q 0.36643,-0.02313 0.59272,0.06848 0.23717,0.108387 0.41131,0.376856 l 1.76316,2.718247 q 0.20679,0.318806 0.14285,0.550994 -0.0363,0.238083 -0.35509,0.444874 l -10.87299,7.052642 q -0.3188,0.20679 -0.56777,0.15373 -0.2213,-0.04716 -0.42809,-0.365972 l -1.67609,-2.584012 q -0.20679,-0.318807 -0.17051,-0.55689 0.0639,-0.232188 0.38275,-0.438979 l 5.90631,-3.831064 -2.47108,0.196345 q -0.3832,0.03401 -0.65893,-0.09705 -0.24805,-0.125166 -0.45485,-0.443973 l -0.43534,-0.671172 q -0.20679,-0.318806 -0.23083,-0.613123 0.004,-0.288422 0.19093,-0.624458 l 1.1868,-2.176303 -5.90631,3.831064 q -0.31881,0.206791 -0.56778,0.153731 -0.2213,-0.04716 -0.42809,-0.365972 z"
         inkscape:connector-curvature="0" />
      <path
         id="path4340"
         style="font-style:normal;font-variant:normal;font-weight:normal;font-stretch:normal;font-size:20.00000191px;line-height:125%;font-family:Bungee;-inkscape-font-specification:'Bungee, Normal';text-align:start;letter-spacing:0.30000001px;writing-mode:lr-tb;text-anchor:start;fill:#ffffff"
         d="m 193.47336,76.018047 -0.16867,-0.788385 q -0.14979,-0.794962 -0.28961,-1.318077 -0.13982,-0.523115 -0.32231,-0.925483 -0.17591,-0.38348 -0.40847,-0.747227 -0.226,-0.344859 -0.58016,-0.814507 -0.29665,-0.426141 -0.24995,-0.717721 0.0656,-0.298158 0.38667,-0.409979 l 2.00207,-0.697236 q 0.49107,-0.171021 0.77119,-0.03561 0.28011,0.135407 0.47322,0.385829 0.49549,0.632211 0.77983,1.083818 0.28434,0.451606 0.44221,0.904904 0.17675,0.446719 0.2788,0.98299 0.10863,0.555158 0.27814,1.406783 l 0.10121,0.47303 0.12835,0.611821 q 0.17694,0.933751 0.29788,1.463444 0.1464,0.542003 0.29684,0.913173 0.17591,0.38348 0.4019,0.72834 0.24488,0.338282 0.61877,0.864592 0.30324,0.445028 0.23765,0.743186 -0.0656,0.298158 -0.48111,0.442867 l -1.86986,0.651193 q -0.49107,0.17102 -0.77776,0.01673 -0.2867,-0.154294 -0.46664,-0.366942 -0.49549,-0.632211 -0.78642,-1.102705 -0.28434,-0.451606 -0.46109,-0.898326 -0.15787,-0.453298 -0.26649,-1.008456 -0.10863,-0.555158 -0.27157,-1.387895 l -0.0946,-0.454143 z"
         inkscape:connector-curvature="0" />
    </g>
    <circle
       transform="rotate(-166.56802)"
       r="101.18845"
       cy="-91.815742"
       cx="-149.43117"
       id="path4443-8"
       style="display:inline;opacity:1;fill:none;fill-opacity:1;stroke:none;stroke-width:1.14413583;stroke-linecap:round;stroke-linejoin:round;stroke-miterlimit:4;stroke-dasharray:none;stroke-opacity:1" />
    <g
       id="text4433"
       style="font-style:normal;font-variant:normal;font-weight:normal;font-stretch:normal;font-size:15px;line-height:125%;font-family:Bungee;-inkscape-font-specification:Bungee;text-align:start;letter-spacing:0px;word-spacing:0px;writing-mode:lr-tb;text-anchor:start;display:inline;fill:#000000;fill-opacity:1;stroke:none;stroke-width:1px;stroke-linecap:butt;stroke-linejoin:miter;stroke-opacity:1"
       transform="matrix(1.1666667,0,0,1.1666667,0,2.2569023e-5)">
      <path
         id="path4343"
         style="font-style:normal;font-variant:normal;font-weight:normal;font-stretch:normal;font-size:20.00000191px;line-height:125%;font-family:Bungee;-inkscape-font-specification:'Bungee, Normal';text-align:start;letter-spacing:2.00000024px;writing-mode:lr-tb;text-anchor:start;fill:#ffffff"
         d="M 8.430564,103.38419 Q 7.5146471,103.29761 6.784371,102.94733 6.0721239,102.61884 5.6003978,101.87112 5.1467007,101.1452 4.9628469,99.902386 4.7771109,98.679479 4.9521562,96.827734 5.1272016,94.975989 5.5406849,93.789636 5.9541682,92.603284 6.5377376,91.955328 7.1393361,91.329166 7.9024028,91.12005 8.6834985,90.932728 9.5994155,91.01931 l 6.7897315,0.641833 q 0.915917,0.08658 1.628164,0.415069 0.730276,0.350281 1.203885,1.078083 0.471726,0.747713 0.65558,1.990531 0.183854,1.242819 0.0088,3.094564 -0.175045,1.85175 -0.586646,3.01819 -0.413484,1.18635 -1.015082,1.81251 -0.603481,0.64607 -1.384576,0.8334 -0.763067,0.20911 -1.678984,0.12253 L 8.430556,103.38419 Z M 9.8889587,95.60692 Q 9.4907339,95.56928 9.1837435,95.841593 8.8966643,96.115793 8.795025,97.191 q -0.1016392,1.075207 0.1289737,1.398344 0.2505242,0.32502 0.648749,0.362664 l 5.3561223,0.506314 q 0.378314,0.03576 0.665393,-0.238438 0.306991,-0.272318 0.40863,-1.347525 0.101639,-1.075206 -0.148885,-1.400226 -0.230613,-0.323137 -0.608927,-0.358899 z"
         inkscape:connector-curvature="0" />
      <path
         id="path4345"
         style="font-style:normal;font-variant:normal;font-weight:normal;font-stretch:normal;font-size:20.00000191px;line-height:125%;font-family:Bungee;-inkscape-font-specification:'Bungee, Normal';text-align:start;letter-spacing:2.00000024px;writing-mode:lr-tb;text-anchor:start;fill:#ffffff"
         d="m 9.2700582,119.53565 q -0.917641,0.0658 -1.6957313,-0.15905 -0.7567103,-0.20637 -1.3454236,-0.86593 -0.5673332,-0.64104 -0.9524461,-1.81649 -0.3851129,-1.17545 -0.5182303,-3.03068 -0.1331174,-1.85523 0.080231,-3.07363 0.2133485,-1.21839 0.6819172,-1.95381 0.4899487,-0.7169 1.208012,-1.04915 0.7394434,-0.31372 1.6570843,-0.37956 l 9.8746146,-0.70853 q 0.379025,-0.0272 0.550066,0.12094 0.192421,0.16666 0.219617,0.54568 l 0.224725,3.13195 q 0.0272,0.37903 -0.140891,0.5515 -0.146708,0.19099 -0.525733,0.21818 l -9.096615,0.65271 q -0.3989743,0.0286 -0.6567858,0.3479 -0.2378627,0.31783 -0.1634315,1.35517 0.075863,1.05728 0.3566665,1.3379 0.3007525,0.27919 0.6997268,0.25057 l 9.096615,-0.65271 q 0.379025,-0.0272 0.550066,0.12094 0.192421,0.16666 0.219617,0.54569 l 0.217568,3.0322 q 0.0272,0.37903 -0.140892,0.5515 -0.146707,0.19099 -0.525733,0.21818 z"
         inkscape:connector-curvature="0" />
      <path
         id="path4347"
         style="font-style:normal;font-variant:normal;font-weight:normal;font-stretch:normal;font-size:20.00000191px;line-height:125%;font-family:Bungee;-inkscape-font-specification:'Bungee, Normal';text-align:start;letter-spacing:2.00000024px;writing-mode:lr-tb;text-anchor:start;fill:#ffffff"
         d="m 7.8375292,131.04177 -0.7407214,-3.15419 q -0.086875,-0.36994 0.027737,-0.58175 0.1386541,-0.19691 0.5085904,-0.28379 l 9.5599308,-2.24502 -0.672136,-2.86214 q -0.08687,-0.36994 0.02774,-0.58175 0.138654,-0.19691 0.508591,-0.28379 l 2.355909,-0.55325 q 0.369936,-0.0869 0.562278,0.0323 0.216384,0.13408 0.303259,0.50401 l 2.414203,10.28034 q 0.08687,0.36993 -0.05178,0.56685 -0.114611,0.21181 -0.484547,0.29868 l -2.35591,0.55326 q -0.369936,0.0869 -0.58632,-0.0472 -0.192342,-0.11918 -0.279216,-0.48912 l -0.672136,-2.86214 -9.5599309,2.24503 q -0.3699363,0.0869 -0.5863204,-0.0472 -0.1923414,-0.11918 -0.2792162,-0.48912 z"
         inkscape:connector-curvature="0" />
      <path
         id="path4349"
         style="font-style:normal;font-variant:normal;font-weight:normal;font-stretch:normal;font-size:20.00000191px;line-height:125%;font-family:Bungee;-inkscape-font-specification:'Bungee, Normal';text-align:start;letter-spacing:2.00000024px;writing-mode:lr-tb;text-anchor:start;fill:#ffffff"
         d="M 13.799918,148.35203 10.357822,139.734 q -0.140948,-0.3529 -0.05913,-0.5794 0.107813,-0.21535 0.460707,-0.3563 l 12.035521,-4.80707 q 0.352893,-0.14094 0.560826,-0.0517 0.233925,0.10039 0.374873,0.45329 l 3.442095,8.61802 q 0.140948,0.3529 0.03314,0.56825 -0.08182,0.2265 -0.434715,0.36745 l -2.173081,0.86794 q -0.352893,0.14095 -0.586818,0.0406 -0.207933,-0.0892 -0.348881,-0.44214 l -2.047453,-5.12624 -1.430147,0.57121 1.44657,3.6218 q 0.140948,0.3529 0.03314,0.56825 -0.08182,0.2265 -0.434716,0.36745 l -1.987346,0.79376 q -0.352894,0.14095 -0.586818,0.0406 -0.207934,-0.0892 -0.348882,-0.44213 l -1.44657,-3.6218 -1.597307,0.63797 2.047454,5.12625 q 0.140948,0.35289 0.03313,0.56824 -0.08182,0.22651 -0.434715,0.36745 l -2.17308,0.86795 q -0.352894,0.14094 -0.586818,0.0405 -0.207934,-0.0892 -0.348881,-0.44213 z"
         inkscape:connector-curvature="0" />
      <path
         id="path4351"
         style="font-style:normal;font-variant:normal;font-weight:normal;font-stretch:normal;font-size:20.00000191px;line-height:125%;font-family:Bungee;-inkscape-font-specification:'Bungee, Normal';text-align:start;letter-spacing:2.00000024px;writing-mode:lr-tb;text-anchor:start;fill:#ffffff"
         d="m 27.567324,151.32999 -2.199866,1.30927 0.767151,1.28899 q 0.265946,0.44684 0.581428,0.46855 0.332669,0.0115 0.676398,-0.1931 l 0.584339,-0.34777 q 0.343729,-0.20458 0.475095,-0.49223 0.148552,-0.29788 -0.117394,-0.74472 z m -9.648916,4.90478 -1.575218,-2.64671 q -0.194345,-0.32655 -0.148911,-0.56305 0.07285,-0.22955 0.399391,-0.4239 l 11.13682,-6.62819 q 0.326543,-0.19434 0.545864,-0.13868 0.246736,0.0626 0.441081,0.38916 l 3.406152,5.72309 q 1.145612,1.92488 0.767454,3.12746 -0.350743,1.20954 -1.622541,1.96646 l -0.790576,0.47052 q -0.721831,0.42961 -1.370398,0.51304 -0.621151,0.0904 -1.161664,-0.30941 0.44923,0.98944 0.133691,1.94528 -0.305309,0.97303 -1.388056,1.61744 l -3.643527,2.16848 q -0.326543,0.19435 -0.573279,0.13173 -0.219321,-0.0557 -0.413666,-0.38221 l -1.585446,-2.6639 q -0.194345,-0.32654 -0.148912,-0.56305 0.07285,-0.22955 0.399391,-0.42389 l 2.629527,-1.56499 q 0.378102,-0.22503 0.457909,-0.482 0.107221,-0.25001 -0.107581,-0.61092 l -1.432016,-2.4061 -3.368545,2.00482 q -0.326542,0.19434 -0.573278,0.13172 -0.219321,-0.0557 -0.413666,-0.3822 z"
         inkscape:connector-curvature="0" />
      <path
         id="path4353"
         style="font-style:normal;font-variant:normal;font-weight:normal;font-stretch:normal;font-size:20.00000191px;line-height:125%;font-family:Bungee;-inkscape-font-specification:'Bungee, Normal';text-align:start;letter-spacing:2.00000024px;writing-mode:lr-tb;text-anchor:start;fill:#ffffff"
         d="m 27.330836,170.08949 -1.939584,-2.28867 q -0.245681,-0.2899 -0.239994,-0.53067 0.03388,-0.23844 0.323774,-0.48412 l 9.887058,-8.379 q 0.289899,-0.24568 0.515406,-0.22706 0.253695,0.0209 0.499376,0.31084 l 1.344778,1.58681 q 0.245681,0.2899 0.322231,0.56584 0.08948,0.29119 0.02871,0.6835 l -0.878704,5.8306 3.249912,-2.75421 q 0.289899,-0.24568 0.515406,-0.22707 0.253695,0.0209 0.499376,0.31085 l 1.939584,2.28867 q 0.245681,0.2899 0.211805,0.52833 -0.0057,0.24077 -0.295586,0.48645 l -9.887058,8.379 q -0.289898,0.24569 -0.543593,0.22474 -0.225507,-0.0186 -0.471188,-0.30852 l -1.939584,-2.28867 q -0.245681,-0.2899 -0.239994,-0.53066 0.03388,-0.23844 0.323775,-0.48412 l 1.87671,-1.59046 0.947239,-5.28571 -5.035076,4.26709 q -0.289898,0.24568 -0.543593,0.22473 -0.225507,-0.0186 -0.471188,-0.30851 z"
         inkscape:connector-curvature="0" />
      <path
         id="path4355"
         style="font-style:normal;font-variant:normal;font-weight:normal;font-stretch:normal;font-size:20.00000191px;line-height:125%;font-family:Bungee;-inkscape-font-specification:'Bungee, Normal';text-align:start;letter-spacing:2.00000024px;writing-mode:lr-tb;text-anchor:start;fill:#ffffff"
         d="m 46.889615,175.62572 -2.6878,1.70321 2.389236,2.03744 1.257302,-2.92308 q 0.05592,-0.18888 0.03174,-0.31463 -0.009,-0.11279 -0.100272,-0.19065 l -0.380451,-0.32443 q -0.09131,-0.0779 -0.219308,-0.0819 -0.112782,0.009 -0.29045,0.094 z m -7.018675,6.47365 q -0.246569,0.28914 -0.500327,0.30931 -0.225563,0.0179 -0.514706,-0.22864 l -2.237056,-1.90767 q -0.289143,-0.24657 -0.322287,-0.48511 -0.0049,-0.24078 0.24162,-0.52992 l 3.42601,-4.01757 q 0.38932,-0.45654 1.032397,-0.93325 0.658296,-0.46373 1.637478,-0.99552 l 4.269821,-2.32548 q 0.311922,-0.18084 0.598358,-0.14686 0.301653,0.047 0.606014,0.30651 l 4.09366,3.4909 q 0.289143,0.24656 0.367941,0.52404 0.09402,0.29045 -0.03529,0.62702 l -1.621878,4.58352 q -0.370459,1.05089 -0.739612,1.76119 -0.353934,0.72328 -0.743254,1.17982 l -3.42601,4.01757 q -0.246569,0.28914 -0.500327,0.30931 -0.225563,0.0179 -0.514706,-0.22865 l -2.297928,-1.95957 q -0.304361,-0.25955 -0.352723,-0.51106 -0.02017,-0.25376 0.226402,-0.5429 l 1.816823,-2.13053 -2.693597,-2.29699 z"
         inkscape:connector-curvature="0" />
      <path
         id="path4357"
         style="font-style:normal;font-variant:normal;font-weight:normal;font-stretch:normal;font-size:20.00000191px;line-height:125%;font-family:Bungee;-inkscape-font-specification:'Bungee, Normal';text-align:start;letter-spacing:2.00000024px;writing-mode:lr-tb;text-anchor:start;fill:#ffffff"
         d="m 54.382874,193.54546 -2.75701,-1.70191 q -0.323353,-0.19961 -0.392475,-0.43031 -0.0416,-0.23721 0.158009,-0.56057 l 5.15826,-8.35612 -2.50173,-1.54432 q -0.323353,-0.19961 -0.392476,-0.43031 -0.0416,-0.23721 0.158009,-0.56056 l 1.27118,-2.05925 q 0.199607,-0.32336 0.419801,-0.37546 0.247718,-0.0586 0.571071,0.14099 l 8.985808,5.54697 q 0.323353,0.19961 0.364951,0.43682 0.06912,0.2307 -0.130484,0.55405 l -1.27118,2.05925 q -0.199607,0.32335 -0.447325,0.38197 -0.220194,0.0521 -0.543547,-0.1475 l -2.501731,-1.54433 -5.15826,8.35612 q -0.199607,0.32335 -0.447325,0.38197 -0.220193,0.0521 -0.543546,-0.1475 z"
         inkscape:connector-curvature="0" />
      <path
         id="path4359"
         style="font-style:normal;font-variant:normal;font-weight:normal;font-stretch:normal;font-size:20.00000191px;line-height:125%;font-family:Bungee;-inkscape-font-specification:'Bungee, Normal';text-align:start;letter-spacing:2.00000024px;writing-mode:lr-tb;text-anchor:start;fill:#ffffff"
         d="m 62.033147,197.75045 q -0.348815,-0.15076 -0.450566,-0.36904 -0.07546,-0.22871 0.0753,-0.57752 l 0.944222,-2.18469 q 0.150758,-0.34881 0.361104,-0.4322 0.23664,-0.0938 0.585455,0.0569 l 1.817511,0.78553 2.666038,-6.16852 -1.817511,-0.78553 q -0.348815,-0.15076 -0.450566,-0.36904 -0.07546,-0.22871 0.0753,-0.57752 l 0.960091,-2.22141 q 0.150758,-0.34881 0.361105,-0.4322 0.23664,-0.0938 0.585455,0.0569 l 7.820803,3.38015 q 0.348815,0.15076 0.424273,0.37947 0.101751,0.21828 -0.04901,0.56709 l -0.960091,2.22141 q -0.150758,0.34881 -0.387398,0.44263 -0.210346,0.0834 -0.559161,-0.0674 l -1.780794,-0.76966 -2.666037,6.16852 1.780793,0.76966 q 0.348815,0.15076 0.424273,0.37947 0.101751,0.21828 -0.04901,0.56709 l -0.944222,2.18469 q -0.150758,0.34881 -0.387398,0.44263 -0.210346,0.0834 -0.559161,-0.0674 l -7.820804,-3.38015 z"
         inkscape:connector-curvature="0" />
      <path
         id="path4361"
         style="font-style:normal;font-variant:normal;font-weight:normal;font-stretch:normal;font-size:20.00000191px;line-height:125%;font-family:Bungee;-inkscape-font-specification:'Bungee, Normal';text-align:start;letter-spacing:2.00000024px;writing-mode:lr-tb;text-anchor:start;fill:#ffffff"
         d="m 87.491727,202.37734 q -0.232758,0.89007 -0.695928,1.5545 -0.43876,0.65015 -1.252606,0.99548 -0.789436,0.33105 -2.045645,0.31263 -1.23686,-0.0134 -3.036348,-0.48394 -1.799489,-0.47057 -2.903899,-1.06947 -1.10441,-0.5989 -1.650077,-1.27908 -0.521259,-0.69447 -0.604931,-1.48123 -0.05926,-0.80106 0.173496,-1.69113 l 1.725448,-6.59812 q 0.232758,-0.89007 0.671518,-1.54022 0.463169,-0.66443 1.257666,-1.01483 0.813846,-0.34533 2.070055,-0.32691 1.256209,0.0184 3.055697,0.48899 1.799488,0.47058 2.884549,1.06442 1.10441,0.59889 1.625669,1.29337 0.540607,0.69953 0.59987,1.50058 0.08367,0.78677 -0.149086,1.67684 z m -7.44148,-2.6902 q -0.101199,0.38698 0.118201,0.73377 0.224461,0.32744 1.269325,0.60068 1.044864,0.27324 1.400884,0.0976 0.361079,-0.19499 0.462278,-0.58198 l 1.361131,-5.20497 q 0.09614,-0.36764 -0.128321,-0.69508 -0.219401,-0.34679 -1.264265,-0.62003 -1.044864,-0.27324 -1.405944,-0.0782 -0.356019,0.17564 -0.452159,0.54328 l -1.36113,5.20497 z"
         inkscape:connector-curvature="0" />
      <path
         id="path4363"
         style="font-style:normal;font-variant:normal;font-weight:normal;font-stretch:normal;font-size:20.00000191px;line-height:125%;font-family:Bungee;-inkscape-font-specification:'Bungee, Normal';text-align:start;letter-spacing:2.00000024px;writing-mode:lr-tb;text-anchor:start;fill:#ffffff"
         d="m 94.722508,207.15301 -2.987539,-0.27316 q -0.378421,-0.0346 -0.543105,-0.21032 -0.142947,-0.19382 -0.108347,-0.57224 l 1.180031,-12.90617 q 0.0346,-0.37842 0.208503,-0.52319 0.195642,-0.16286 0.574064,-0.12826 l 2.07136,0.18938 q 0.378421,0.0346 0.626415,0.17778 0.267911,0.145 0.499515,0.46742 l 3.459614,4.77484 0.387881,-4.2423 q 0.0346,-0.37843 0.2085,-0.52319 0.19564,-0.16287 0.57407,-0.12827 l 2.98753,0.27316 q 0.37843,0.0346 0.52137,0.22842 0.16469,0.17572 0.13009,0.55415 l -1.18003,12.90616 q -0.0346,0.37842 -0.23025,0.54129 -0.1739,0.14476 -0.55232,0.11017 l -2.987539,-0.27316 q -0.378422,-0.0346 -0.543106,-0.21032 -0.142946,-0.19383 -0.108346,-0.57225 l 0.223987,-2.44978 -3.02884,-4.4342 -0.600941,6.57259 q -0.0346,0.37842 -0.230242,0.54128 -0.173903,0.14477 -0.552325,0.11017 z"
         inkscape:connector-curvature="0" />
      <path
         id="path4365"
         style="font-style:normal;font-variant:normal;font-weight:normal;font-stretch:normal;font-size:20.00000191px;line-height:125%;font-family:Bungee;-inkscape-font-specification:'Bungee, Normal';text-align:start;letter-spacing:2.00000024px;writing-mode:lr-tb;text-anchor:start;fill:#ffffff"
         d="m 112.50893,197.39789 -0.70978,3.10184 3.13119,-0.23507 -1.16495,-2.9611 q -0.0932,-0.1735 -0.19895,-0.24579 -0.0858,-0.0738 -0.20543,-0.0648 l -0.4986,0.0374 q -0.11966,0.009 -0.21339,0.0962 -0.0738,0.0858 -0.14009,0.27125 z m -0.42709,9.53874 q 0.0285,0.37894 -0.13757,0.57191 -0.14757,0.17153 -0.52651,0.19997 l -2.93175,0.2201 q -0.37893,0.0285 -0.5704,-0.11762 -0.17303,-0.16752 -0.20148,-0.54645 l -0.39528,-5.26519 q -0.0449,-0.59831 0.0762,-1.3896 0.14105,-0.79278 0.46207,-1.85981 l 1.39523,-4.65752 q 0.0942,-0.34803 0.32156,-0.52555 0.24729,-0.17902 0.64617,-0.20896 l 5.3649,-0.40277 q 0.37893,-0.0284 0.63024,0.11313 0.27125,0.14009 0.41636,0.47015 l 2.075,4.397 q 0.47674,1.00714 0.71463,1.77147 0.25783,0.76284 0.30275,1.36116 l 0.39528,5.26518 q 0.0285,0.37893 -0.13757,0.5719 -0.14757,0.17153 -0.52651,0.19998 l -3.01152,0.22609 q -0.39888,0.03 -0.6103,-0.11463 -0.19297,-0.16602 -0.22141,-0.54496 l -0.20962,-2.79214 -3.53007,0.26502 0.20962,2.79214 z"
         inkscape:connector-curvature="0" />
      <path
         id="path4367"
         style="font-style:normal;font-variant:normal;font-weight:normal;font-stretch:normal;font-size:20.00000191px;line-height:125%;font-family:Bungee;-inkscape-font-specification:'Bungee, Normal';text-align:start;letter-spacing:2.00000024px;writing-mode:lr-tb;text-anchor:start;fill:#ffffff"
         d="m 135.1993,203.75746 -9.89945,2.37346 q -0.36953,0.0886 -0.58187,-0.025 -0.19756,-0.13774 -0.28616,-0.50726 l -3.02161,-12.60284 q -0.0886,-0.36953 0.0297,-0.56242 0.13307,-0.21701 0.5026,-0.30561 l 3.01457,-0.72276 q 0.36952,-0.0886 0.56708,0.0491 0.21235,0.11362 0.30094,0.48315 l 2.30818,9.62717 2.66449,-0.63883 -0.75541,-3.15071 q -0.0886,-0.36953 0.0297,-0.56242 0.13308,-0.21701 0.5026,-0.3056 l 2.82008,-0.67614 q 0.36953,-0.0886 0.56709,0.0491 0.21234,0.11363 0.30094,0.48315 l 1.46884,6.12638 q 0.0886,0.36953 -0.0445,0.58654 -0.11828,0.19289 -0.48781,0.28149 z"
         inkscape:connector-curvature="0" />
      <path
         id="path4369"
         style="font-style:normal;font-variant:normal;font-weight:normal;font-stretch:normal;font-size:20.00000191px;line-height:125%;font-family:Bungee;-inkscape-font-specification:'Bungee, Normal';text-align:start;letter-spacing:2.00000024px;writing-mode:lr-tb;text-anchor:start;fill:#ffffff"
         d="m 151.86181,197.00333 -5.69071,2.74924 q -0.34216,0.1653 -0.57384,0.0995 -0.22237,-0.0925 -0.38767,-0.43464 l -1.01791,-2.107 q -0.16531,-0.34216 -0.0908,-0.55583 0.0838,-0.24038 0.42594,-0.40568 l 4.8443,-2.34033 q 0.23411,-0.1131 0.27257,-0.30937 0.0477,-0.22298 -0.0567,-0.43908 -0.1479,-0.30615 -0.34356,-0.38931 -0.17765,-0.0919 -0.42046,0.003 l -2.88399,0.92684 q -1.3476,0.42892 -2.43517,0.15472 -1.06957,-0.28291 -1.80037,-1.79563 l -0.91351,-1.8909 q -0.73951,-1.53072 -0.14055,-2.81962 0.59027,-1.3069 2.3371,-2.15081 l 5.0424,-2.43602 q 0.34216,-0.16531 0.56453,-0.0728 0.23168,0.0658 0.39698,0.40793 l 1.03531,2.14302 q 0.1653,0.34216 0.0815,0.58254 -0.0745,0.21367 -0.41663,0.37897 l -4.196,2.02713 q -0.23411,0.1131 -0.28187,0.33607 -0.0565,0.20497 0.0566,0.43908 0.1131,0.23412 0.31747,0.33529 0.20436,0.10118 0.44717,0.006 l 2.85728,-0.93615 q 1.3476,-0.42892 2.43517,-0.15472 1.08757,0.27421 1.81838,1.78693 l 0.91351,1.8909 q 0.73951,1.53072 0.13123,2.84632 -0.59896,1.28889 -2.32778,2.1241 z"
         inkscape:connector-curvature="0" />
      <path
         id="path4371"
         style="font-style:normal;font-variant:normal;font-weight:normal;font-stretch:normal;font-size:20.00000191px;line-height:125%;font-family:Bungee;-inkscape-font-specification:'Bungee, Normal';text-align:start;letter-spacing:2.00000024px;writing-mode:lr-tb;text-anchor:start;fill:#ffffff"
         d="m 165.07158,189.04883 -2.67111,1.83378 q -0.31328,0.21507 -0.55223,0.18504 -0.23379,-0.0578 -0.44886,-0.37112 l -1.44891,-2.11051 -4.84325,-1.64821 q -0.73014,-0.25078 -1.1224,-0.53946 -0.37577,-0.29999 -0.89647,-1.05846 l -2.17337,-3.16576 q -0.21507,-0.31328 -0.17372,-0.53575 0.0465,-0.25027 0.3598,-0.46534 l 2.5392,-1.74322 q 0.31328,-0.21508 0.54707,-0.15724 0.23895,0.03 0.45402,0.34331 l 1.85642,2.70409 q 0.1132,0.16488 0.2542,0.33494 0.14101,0.17005 0.36962,0.25569 l 1.57348,0.66646 q 0.18432,0.0918 0.31204,0.10116 0.14421,-0.002 0.27611,-0.0925 l 0.16489,-0.11319 q 0.1319,-0.0906 0.16907,-0.21311 0.0537,-0.13387 0.0342,-0.33886 l -0.0565,-1.70787 q 0.002,-0.24412 -0.1058,-0.43681 -0.10803,-0.19269 -0.22123,-0.35758 l -1.85642,-2.70409 q -0.21507,-0.31328 -0.17372,-0.53574 0.0465,-0.25027 0.3598,-0.46535 l 2.45676,-1.68662 q 0.31328,-0.21507 0.54707,-0.15724 0.23895,0.03 0.45402,0.34331 l 2.17337,3.16577 q 0.5207,0.75846 0.64915,1.22825 0.12844,0.46979 0.11661,1.22996 l -0.17439,5.11719 1.4376,2.09402 q 0.21507,0.31328 0.16855,0.56355 -0.0413,0.22246 -0.35463,0.43754 z"
         inkscape:connector-curvature="0" />
      <path
         id="path4373"
         style="font-style:normal;font-variant:normal;font-weight:normal;font-stretch:normal;font-size:20.00000191px;line-height:125%;font-family:Bungee;-inkscape-font-specification:'Bungee, Normal';text-align:start;letter-spacing:2.00000024px;writing-mode:lr-tb;text-anchor:start;fill:#ffffff"
         d="m 174.82321,181.2015 -2.16573,2.07595 q -0.27433,0.26296 -0.51499,0.27201 -0.24006,-0.0192 -0.50302,-0.29355 l -8.96813,-9.35598 q -0.26295,-0.27433 -0.25816,-0.50055 0.005,-0.2545 0.27971,-0.51746 l 1.50157,-1.43933 q 0.27433,-0.26295 0.54507,-0.35624 0.28517,-0.10712 0.68046,-0.0705 l 5.87344,0.52039 -2.94786,-3.07534 q -0.26296,-0.27433 -0.25817,-0.50055 0.005,-0.25451 0.27971,-0.51746 l 2.16574,-2.07596 q 0.27433,-0.26295 0.51439,-0.24372 0.24066,-0.009 0.50361,0.26527 l 8.96814,9.35597 q 0.26295,0.27433 0.25756,0.52883 -0.005,0.22623 -0.27911,0.48918 l -2.16574,2.07596 q -0.27432,0.26295 -0.51498,0.272 -0.24007,-0.0192 -0.50302,-0.29355 l -1.70229,-1.7759 -5.33375,-0.62213 4.5671,4.76462 q 0.26295,0.27433 0.25757,0.52883 -0.005,0.22622 -0.27912,0.48918 z"
         inkscape:connector-curvature="0" />
      <path
         id="path4375"
         style="font-style:normal;font-variant:normal;font-weight:normal;font-stretch:normal;font-size:20.00000191px;line-height:125%;font-family:Bungee;-inkscape-font-specification:'Bungee, Normal';text-align:start;letter-spacing:2.00000024px;writing-mode:lr-tb;text-anchor:start;fill:#ffffff"
         d="m 188.64086,165.67416 -4.02019,5.40977 q -0.22666,0.305 -0.46244,0.35404 -0.23991,0.0211 -0.54492,-0.2056 l -10.40217,-7.73022 q -0.30501,-0.22665 -0.33799,-0.45051 -0.0371,-0.25184 0.18954,-0.55684 l 4.02019,-5.40978 q 1.49117,-2.00659 3.00957,-2.37329 1.53033,-0.38275 3.19982,0.85791 l 5.00845,3.72195 q 1.66949,1.24066 1.74443,2.81634 0.0869,1.55963 -1.40429,3.56623 z m -10.23359,-3.96693 5.45794,4.05598 1.41959,-1.91028 q 0.2863,-0.38526 0.22489,-0.70499 -0.0495,-0.33579 -0.45079,-0.63402 l -3.90082,-2.89884 q -0.40132,-0.29823 -0.72105,-0.23682 -0.32386,0.0334 -0.61016,0.41869 z"
         inkscape:connector-curvature="0" />
      <path
         id="path4377"
         style="font-style:normal;font-variant:normal;font-weight:normal;font-stretch:normal;font-size:20.00000191px;line-height:125%;font-family:Bungee;-inkscape-font-specification:'Bungee, Normal';text-align:start;letter-spacing:2.00000024px;writing-mode:lr-tb;text-anchor:start;fill:#ffffff"
         d="m 194.08769,157.44832 q -0.17726,0.33612 -0.40275,0.4207 -0.23386,0.0575 -0.56998,-0.11971 l -2.10518,-1.11022 q -0.33612,-0.17727 -0.40301,-0.39343 -0.0753,-0.24318 0.10201,-0.5793 l 0.92363,-1.75137 -5.94405,-3.13476 -0.92363,1.75138 q -0.17726,0.33612 -0.40275,0.4207 -0.23386,0.0576 -0.56998,-0.11971 l -2.14057,-1.12888 q -0.33612,-0.17726 -0.40301,-0.39342 -0.0752,-0.24319 0.10202,-0.57931 l 3.97442,-7.53621 q 0.17726,-0.33612 0.41111,-0.39368 0.22549,-0.0846 0.56161,0.0927 l 2.14057,1.12888 q 0.33612,0.17726 0.41137,0.42045 0.0669,0.21616 -0.11037,0.55228 l -0.90498,1.71599 5.94405,3.13475 0.90498,-1.71599 q 0.17726,-0.33612 0.41111,-0.39368 0.22549,-0.0846 0.56162,0.0927 l 2.10518,1.11023 q 0.33612,0.17726 0.41137,0.42044 0.0669,0.21617 -0.11037,0.55229 l -3.97442,7.53621 z"
         inkscape:connector-curvature="0" />
      <path
         id="path4379"
         style="font-style:normal;font-variant:normal;font-weight:normal;font-stretch:normal;font-size:20.00000191px;line-height:125%;font-family:Bungee;-inkscape-font-specification:'Bungee, Normal';text-align:start;letter-spacing:2.00000024px;writing-mode:lr-tb;text-anchor:start;fill:#ffffff"
         d="m 203.41968,136.14794 -1.64143,4.59566 q -0.8409,2.35434 -2.19299,3.16689 -1.34537,0.79373 -3.30417,0.0941 l -5.85759,-2.09215 q -1.95881,-0.69963 -2.49691,-2.16607 -0.55021,-1.492 0.29069,-3.84634 l 1.64143,-4.59566 q 0.12782,-0.35786 0.35115,-0.44799 0.21122,-0.11569 0.56908,0.0121 l 2.27899,0.81399 q 0.35786,0.12782 0.46683,0.35787 0.0969,0.2045 -0.031,0.56236 l -1.35216,3.78577 q -0.20854,0.58387 -0.0646,0.95385 0.12511,0.36324 0.59598,0.53142 l 4.48265,1.60107 q 0.47087,0.16818 0.79779,-0.0336 0.30809,-0.20852 0.51663,-0.7924 l 1.35216,-3.78577 q 0.12782,-0.35786 0.35115,-0.44799 0.21122,-0.1157 0.56908,0.0121 l 2.24133,0.80053 q 0.35786,0.12782 0.46682,0.35788 0.0969,0.20449 -0.0309,0.56235 z"
         inkscape:connector-curvature="0" />
      <path
         id="path4381"
         style="font-style:normal;font-variant:normal;font-weight:normal;font-stretch:normal;font-size:20.00000191px;line-height:125%;font-family:Bungee;-inkscape-font-specification:'Bungee, Normal';text-align:start;letter-spacing:2.00000024px;writing-mode:lr-tb;text-anchor:start;fill:#ffffff"
         d="m 195.80399,124.24296 2.80182,1.50832 0.60521,-3.08112 -3.16417,0.33643 q -0.19205,0.0438 -0.28982,0.12651 -0.0939,0.0631 -0.11705,0.18083 l -0.0964,0.49062 q -0.0231,0.11775 0.0361,0.2313 0.0631,0.0939 0.22429,0.20711 z m 9.08251,2.94584 q 0.37288,0.0732 0.51481,0.28456 0.12616,0.18784 0.0529,0.56072 l -0.56667,2.88487 q -0.0732,0.37287 -0.26494,0.51866 -0.20746,0.1223 -0.58034,0.0491 l -5.18099,-1.01769 q -0.58875,-0.11564 -1.31943,-0.44261 -0.72683,-0.34659 -1.67023,-0.93954 l -4.1195,-2.58244 q -0.31049,-0.18328 -0.42123,-0.44962 -0.10689,-0.28596 -0.0298,-0.67846 l 1.03696,-5.27912 q 0.0733,-0.37288 0.2765,-0.57754 0.20712,-0.22428 0.56387,-0.2765 l 4.79025,-0.83231 q 1.09759,-0.19205 1.89766,-0.21833 0.80393,-0.0459 1.39268,0.0697 l 5.18099,1.01769 q 0.37288,0.0732 0.51481,0.28456 0.12616,0.18784 0.0529,0.56072 l -0.58208,2.96337 q -0.0771,0.3925 -0.27265,0.55791 -0.21132,0.14193 -0.58419,0.0687 l -2.7475,-0.53969 -0.68231,3.47363 2.74749,0.53968 z"
         inkscape:connector-curvature="0" />
      <path
         id="path4383"
         style="font-style:normal;font-variant:normal;font-weight:normal;font-stretch:normal;font-size:20.00000191px;line-height:125%;font-family:Bungee;-inkscape-font-specification:'Bungee, Normal';text-align:start;letter-spacing:2.00000024px;writing-mode:lr-tb;text-anchor:start;fill:#ffffff"
         d="m 207.77468,108.93105 -0.13942,3.23699 q -0.0163,0.37965 -0.18395,0.5526 -0.18671,0.15211 -0.56636,0.13576 l -9.81091,-0.42255 -0.1265,2.93728 q -0.0164,0.37965 -0.18395,0.5526 -0.18672,0.1521 -0.56637,0.13575 l -2.41776,-0.10413 q -0.37964,-0.0164 -0.53261,-0.18309 -0.17209,-0.18758 -0.15574,-0.56722 l 0.45439,-10.55022 q 0.0163,-0.37965 0.20307,-0.53176 0.1676,-0.17295 0.54724,-0.1566 l 2.41776,0.10413 q 0.37965,0.0164 0.55174,0.20393 0.15297,0.16674 0.13661,0.54639 l -0.1265,2.93728 9.8109,0.42254 q 0.37965,0.0164 0.55174,0.20393 0.15297,0.16674 0.13662,0.54639 z"
         inkscape:connector-curvature="0" />
      <path
         id="path4385"
         style="font-style:normal;font-variant:normal;font-weight:normal;font-stretch:normal;font-size:20.00000191px;line-height:125%;font-family:Bungee;-inkscape-font-specification:'Bungee, Normal';text-align:start;letter-spacing:2.00000024px;writing-mode:lr-tb;text-anchor:start;fill:#ffffff"
         d="m 206.71547,90.65347 0.9857,9.227503 q 0.0404,0.377847 -0.0996,0.573827 -0.16198,0.17821 -0.53983,0.21858 l -12.88669,1.37658 q -0.37785,0.0404 -0.55394,-0.10174 -0.1981,-0.15986 -0.23846,-0.53771 l -0.9857,-9.227507 q -0.0404,-0.377851 0.12162,-0.556065 0.13998,-0.195976 0.51783,-0.236339 l 2.32676,-0.248549 q 0.37785,-0.04036 0.57595,0.1195 0.17609,0.1421 0.21646,0.51995 l 0.58632,5.488774 1.53129,-0.163575 -0.41425,-3.877938 q -0.0404,-0.37785 0.12162,-0.556064 0.13998,-0.195977 0.51783,-0.23634 l 2.12789,-0.227305 q 0.37785,-0.04036 0.57595,0.1195 0.17609,0.1421 0.21645,0.51995 l 0.41425,3.877938 1.71027,-0.182694 -0.58632,-5.488774 q -0.0404,-0.37785 0.12163,-0.556064 0.13997,-0.195977 0.51782,-0.236339 l 2.32677,-0.248549 q 0.37785,-0.04036 0.57595,0.119499 0.17609,0.142101 0.21645,0.519951 z"
         inkscape:connector-curvature="0" />
    </g>
    <circle
       transform="matrix(-0.98626918,-0.1651457,-0.1651457,0.98626918,0,0)"
       r="118.39826"
       cy="101.83224"
       cx="-142.79356"
       id="path4443"
       style="display:inline;opacity:1;fill:none;fill-opacity:1;stroke:none;stroke-width:1.33816683;stroke-linecap:round;stroke-linejoin:round;stroke-miterlimit:4;stroke-dasharray:none;stroke-opacity:1" />
  </g>
</svg>
