<?xml version="1.0" encoding="UTF-8" standalone="no"?>
<!-- Created with Inkscape (http://www.inkscape.org/) -->

<svg
   xmlns:dc="http://purl.org/dc/elements/1.1/"
   xmlns:cc="http://creativecommons.org/ns#"
   xmlns:rdf="http://www.w3.org/1999/02/22-rdf-syntax-ns#"
   xmlns:svg="http://www.w3.org/2000/svg"
   xmlns="http://www.w3.org/2000/svg"
   xmlns:sodipodi="http://sodipodi.sourceforge.net/DTD/sodipodi-0.dtd"
   xmlns:inkscape="http://www.inkscape.org/namespaces/inkscape"
   width="725.32062mm"
   height="374.77838mm"
   viewBox="0 0 725.32062 374.77838"
   version="1.1"
   id="svg921"
   inkscape:version="0.92.4 (5da689c313, 2019-01-14)"
   sodipodi:docname="header.svg">
  <defs
     id="defs915" />
  <sodipodi:namedview
     id="base"
     pagecolor="#ffffff"
     bordercolor="#666666"
     borderopacity="1.0"
     inkscape:pageopacity="0.0"
     inkscape:pageshadow="2"
     inkscape:zoom="0.24748737"
     inkscape:cx="1144.0327"
     inkscape:cy="69.010012"
     inkscape:document-units="mm"
     inkscape:current-layer="layer1"
     showgrid="false"
     fit-margin-top="0"
     fit-margin-left="0"
     fit-margin-right="0"
     fit-margin-bottom="0"
     inkscape:window-width="2560"
     inkscape:window-height="1048"
     inkscape:window-x="0"
     inkscape:window-y="0"
     inkscape:window-maximized="1" />
  <metadata
     id="metadata918">
    <rdf:RDF>
      <cc:Work
         rdf:about="">
        <dc:format>image/svg+xml</dc:format>
        <dc:type
           rdf:resource="http://purl.org/dc/dcmitype/StillImage" />
        <dc:title></dc:title>
      </cc:Work>
    </rdf:RDF>
  </metadata>
  <g
     inkscape:label="Layer 1"
     inkscape:groupmode="layer"
     id="layer1"
     transform="translate(366.17304,103.24533)">
    <g
       transform="matrix(2.0340787,0.6533156,-0.6533156,2.0340787,333.35619,-406.46096)"
       id="layer1-6"
       inkscape:label="Layer 1"
       style="opacity:0.39421201">
      <g
         transform="matrix(0.37647058,0,0,0.3764706,-58.074066,143.83734)"
         id="g1641">
        <path
           inkscape:connector-curvature="0"
           id="path894-6"
           d="m -30.774211,230.64546 c -0.117055,-0.0526 -0.835505,-0.13952 -1.596503,-0.20006 -3.755417,-0.29878 -4.702102,-0.41329 -4.807011,-0.58309 -0.06258,-0.10135 -0.39754,-0.18427 -0.744015,-0.18427 -0.346489,0 -1.322672,-0.18361 -2.16933,-0.40803 -0.846651,-0.22441 -1.995557,-0.47449 -2.553115,-0.5561 -0.557543,-0.0816 -1.066105,-0.23297 -1.130113,-0.33629 -0.0639,-0.10333 -0.303606,-0.18822 -0.532446,-0.18822 -0.228841,0 -0.582378,-0.0856 -0.785693,-0.18954 -0.203282,-0.10464 -1.231741,-0.45278 -2.285436,-0.77446 -1.679858,-0.51267 -3.066597,-1.04113 -4.157905,-1.58414 -0.179436,-0.0895 -0.634483,-0.23034 -1.011115,-0.3126 -0.376658,-0.0829 -0.684829,-0.23824 -0.684829,-0.34617 0,-0.10793 -0.119756,-0.1994 -0.266058,-0.20335 -0.146369,-0.004 -1.025686,-0.38171 -1.954092,-0.83962 -0.928405,-0.45738 -1.790517,-0.77374 -1.915806,-0.7026 -0.125289,0.0711 -0.157435,0.0526 -0.07141,-0.0461 0.08603,-0.0948 -0.05797,-0.28694 -0.319283,-0.42646 -2.021275,-1.07844 -6.71567,-4.00387 -6.968186,-4.34241 -0.05863,-0.0783 -0.561298,-0.42579 -1.117169,-0.77156 -0.555897,-0.34551 -1.010917,-0.68437 -1.011121,-0.75229 -2.11e-4,-0.0678 -0.455376,-0.44488 -1.011504,-0.83744 -0.556094,-0.3929 -1.261627,-0.9592 -1.567802,-1.2589 -0.306175,-0.29944 -1.348336,-1.26265 -2.315902,-2.13991 -0.967573,-0.87726 -2.0291,-1.88213 -2.35895,-2.23304 -1.812274,-1.92793 -2.32318,-2.50588 -3.759791,-4.25336 -0.865445,-1.05271 -1.758833,-2.11892 -1.985309,-2.36933 -0.226469,-0.25008 -0.411768,-0.52451 -0.411768,-0.60875 0,-0.30865 -1.871527,-2.63092 -2.00922,-2.49338 -0.07806,0.0777 -0.07878,-0.0197 -0.0015,-0.22376 0.07727,-0.20138 0.05204,-0.36591 -0.05599,-0.36591 -0.107899,0 -0.40617,-0.39289 -0.662802,-0.87344 -0.863053,-1.6154 -1.20808,-2.20967 -1.344976,-2.31661 -0.164747,-0.12833 -2.71134,-5.16926 -3.438216,-6.80538 -0.967869,-2.17854 -1.642126,-3.93293 -1.641507,-4.27114 4.22e-4,-0.18493 -0.06521,-0.4021 -0.145248,-0.48239 -0.215139,-0.2152 -0.698676,-1.67265 -0.702378,-2.11754 -0.0019,-0.23626 -0.09808,-0.32642 -0.248997,-0.23297 -0.144524,0.0895 -0.188264,0.0592 -0.106121,-0.0737 0.07681,-0.12439 -0.05072,-0.83271 -0.283646,-1.57473 -0.232793,-0.74195 -0.424482,-1.60651 -0.425997,-1.92129 -0.0015,-0.31457 -0.09855,-0.63178 -0.2156,-0.70371 -0.117056,-0.0724 -0.2129,-0.44159 -0.2129,-0.82073 0,-0.37907 -0.08596,-0.78013 -0.191096,-0.89128 -0.105066,-0.11122 -0.238787,-0.58506 -0.29715,-1.05271 -0.05863,-0.46792 -0.283713,-2.14261 -0.500762,-3.72168 -0.311181,-2.26377 -0.393126,-4.17564 -0.387396,-9.03848 0.0072,-6.30384 0.182269,-8.63486 0.941152,-12.54746 0.113432,-0.58506 0.26428,-1.39828 0.335225,-1.80769 0.07094,-0.40935 0.211055,-0.9357 0.311313,-1.16966 0.100257,-0.23429 0.241159,-0.71247 0.313025,-1.06338 0.07187,-0.35077 0.170939,-0.82935 0.220146,-1.0633 0.253938,-1.20718 0.871834,-3.19888 1.011655,-3.26094 0.08781,-0.0395 0.159674,-0.28299 0.159674,-0.54228 0,-0.2593 0.07648,-0.56269 0.169951,-0.67345 0.09347,-0.11122 0.342668,-0.72839 0.553724,-1.37176 0.211121,-0.64297 0.507678,-1.45679 0.659086,-1.8077 0.151374,-0.35077 0.481263,-1.11648 0.732988,-1.70134 0.251764,-0.58506 0.831283,-1.79434 1.287858,-2.68785 0.456562,-0.89352 0.77159,-1.68305 0.700039,-1.75452 -0.07154,-0.0717 -0.01844,-0.13031 0.118241,-0.13031 0.136619,0 0.248339,-0.10267 0.248339,-0.22771 0,-0.12504 0.287401,-0.64494 0.638633,-1.15485 0.351231,-0.51003 0.638633,-0.98901 0.638633,-1.06442 0,-0.075 0.431068,-0.80283 0.957903,-1.61652 0.526847,-0.81362 0.957903,-1.5615 0.957903,-1.66192 0,-0.1007 0.333051,-0.55216 0.740096,-1.00356 0.407025,-0.45146 0.742322,-0.94057 0.745036,-1.0868 0.0027,-0.1461 0.07681,-0.26653 0.164615,-0.26719 0.08781,-7.9e-4 0.399121,-0.35604 0.691819,-0.78927 0.696304,-1.0308 2.590458,-3.31227 3.784908,-4.5588 0.60326,-0.62981 0.888619,-1.0866 0.784007,-1.25567 -0.103354,-0.16716 -0.07766,-0.21257 0.06917,-0.12175 0.130559,0.0803 0.872776,-0.49161 1.682611,-1.29681 2.494482,-2.48087 4.368433,-4.1607 6.132074,-5.49692 2.072379,-1.57019 6.785324,-4.7946 7.663232,-5.2429 3.85669,-1.96953 6.618284,-3.33491 7.571181,-3.74333 0.635998,-0.27246 1.322711,-0.58374 1.526013,-0.69115 0.203282,-0.10727 0.514595,-0.19546 0.691812,-0.19546 0.177196,0 0.322182,-0.10135 0.322182,-0.22507 0,-0.12372 0.07819,-0.17703 0.173705,-0.1178 0.18464,0.11385 1.634294,-0.32906 1.880018,-0.57453 0.08023,-0.0803 0.322774,-0.14544 0.539034,-0.14544 0.216259,0 0.559454,-0.0842 0.762775,-0.18625 0.565186,-0.28562 1.847187,-0.6641 2.247329,-0.6641 0.196563,0 0.357424,-0.0855 0.357424,-0.19019 0,-0.10464 0.215534,-0.19414 0.478958,-0.19875 0.457747,-0.007 1.245271,-0.16453 3.352667,-0.66607 2.055258,-0.48898 3.412203,-0.69813 7.663225,-1.18217 0.643903,-0.073 3.086576,-0.17834 5.428122,-0.23363 3.463696,-0.0816 4.971627,-0.0132 8.088959,0.35012 2.107389,0.24745 4.334515,0.50016 4.94917,0.56137 0.614655,0.0592 1.117552,0.18493 1.117552,0.27574 0,0.0908 0.359202,0.22508 0.798254,0.29813 2.3582581,0.39421 4.6271931,0.92681 5.2123638,1.22375 0.2032825,0.10333 0.5159125,0.18757 0.6947035,0.18757 0.178778,0 0.491408,0.0915 0.69471,0.20269 0.203282,0.11122 1.135949,0.45673 2.072569,0.76657 0.936613,0.30997 2.29558703,0.841 3.01994603,1.17966 0.724353,0.33893 1.38405197,0.61599 1.46598997,0.61599 0.08195,0 0.974042,0.40342 1.982443,0.89701 1.008394,0.49358 1.977133,0.86706 2.152749,0.83046 0.175616,-0.0395 0.249393,0.004 0.163957,0.0908 -0.08544,0.0869 0.259405,0.36723 0.766352,0.62389 0.506888,0.25667 1.14892,0.62521 1.426671,0.81955 0.277784,0.19414 0.667281,0.3534 0.865636,0.3534 0.198342,0 0.392533,0.0763 0.431596,0.17045 0.03886,0.0934 1.3641307,1.06897 2.9446667,2.16749 1.580542,1.09851 3.112207,2.21822 3.403705,2.48818 0.291485,0.26982 0.642717,0.49095 0.780515,0.49095 0.137806,0 0.282461,0.0803 0.321458,0.17835 0.03886,0.0981 0.837284,0.83784 1.77389,1.64389 2.691032,2.31609 4.871929,4.49528 6.763916,6.75859 0.962935,1.15196 1.966192,2.3482 2.229477,2.65837 0.263292,0.30997 0.478826,0.64166 0.478958,0.73603 1.45e-4,0.0948 0.09604,0.11319 0.213163,0.0395 0.117055,-0.0724 0.212834,0.0197 0.212834,0.20006 0,0.1823 0.09578,0.33169 0.212834,0.33169 0.117055,0 0.212833,0.10201 0.212833,0.22705 0,0.18953 0.910936,1.54392 1.27803,1.89983 0.0606,0.0592 0.300378,0.47186 0.533369,0.91819 0.233056,0.4462 0.591336,0.99276 0.796213,1.21395 0.204863,0.22113 0.372508,0.50148 0.372508,0.62389 0,0.12175 0.09578,0.22178 0.212899,0.22178 0.117056,0 0.212834,0.14347 0.212834,0.31919 0,0.17571 0.08544,0.31918 0.189779,0.31918 0.104407,0 0.254465,0.25732 0.333446,0.5719 0.07898,0.31457 0.314408,0.81698 0.523092,1.11648 0.208684,0.29944 0.75084,1.26245 1.2048,2.13971 0.453926,0.8772 0.89948,1.62692 0.990055,1.66588 0.09058,0.0395 0.164681,0.24876 0.164681,0.46594 0,0.21718 0.09578,0.45409 0.2129,0.52649 0.117055,0.0724 0.213426,0.29351 0.214151,0.49095 6.39e-4,0.19809 0.144392,0.63376 0.319283,0.9688 0.174891,0.33498 0.317966,0.74176 0.317966,0.90378 0,0.1619 0.08465,0.29484 0.188066,0.29484 0.103419,0 0.235559,0.2152 0.293593,0.47844 0.05797,0.26325 0.455574,1.43554 0.883448,2.6052 0.784494,2.14471 1.793889,5.62657 1.972917,6.80544 0.05336,0.35078 0.180227,0.82942 0.282066,1.06331 0.101838,0.23429 0.232661,0.76032 0.290695,1.16973 0.05797,0.40934 0.253542,1.60559 0.434362,2.6583 0.450831,2.62395 0.859951,7.60077 0.856684,10.42077 -0.0048,4.01447 -0.66767,10.62729 -1.385982,13.82354 -0.846203,3.76531 -1.579738,6.38794 -2.438707,8.71943 -0.430938,1.16965 -0.837693,2.31806 -0.903882,2.55201 -0.0662,0.23429 -0.295569,0.73926 -0.509654,1.123 -0.214151,0.38368 -0.389306,0.79329 -0.389306,0.9103 0,0.2639 -2.281721,4.85422 -3.059265,6.15445 -0.314805,0.52648 -0.67458,1.2202 -0.799586,1.54182 -0.125026,0.32181 -0.313684,0.58506 -0.419343,0.58506 -0.105594,0 -0.192018,0.0974 -0.192018,0.21586 0,0.256 -1.525164,2.62342 -1.756152,2.72602 -0.08781,0.0395 -0.159674,0.19875 -0.159674,0.35472 0,0.15597 -0.07187,0.31523 -0.159609,0.35472 -0.08781,0.0395 -0.778618,0.88437 -1.53513,1.87858 -2.174158,2.85738 -3.327913,4.16662 -6.28775,7.13522 -2.443734,2.45094 -7.93458,7.11364 -8.377117,7.11364 -0.09005,0 -0.358412,0.18098 -0.596277,0.40277 -0.445165,0.41461 -4.0514937,2.78742 -4.2360157,2.78742 -0.05665,0 -0.508469,0.25601 -1.003711,0.56861 -1.049347,0.66239 -4.922821,2.64863 -5.945312,3.04856 -1.01033097,0.39487 -2.06698297,0.83718 -3.044108,1.27331 -0.468287,0.20928 -2.000946,0.73676 -3.405873,1.17282 -1.404926,0.43567 -2.7459891,0.87377 -2.9801457,0.97275 -0.2341763,0.0994 -0.9046782,0.27443 -1.4900729,0.39026 -0.585408,0.11583 -1.4953957,0.31195 -2.0222367,0.43699 -0.526847,0.12504 -1.341069,0.28101 -1.809376,0.34616 -0.468287,0.0658 -0.995154,0.17243 -1.170769,0.23692 -0.175616,0.0658 -0.654574,0.15137 -1.064334,0.19283 -0.985101,0.10003 -2.58061,0.34024 -2.980145,0.44949 -0.443783,0.12109 -12.190688,0.2843 -12.452748,0.17308 z"
           style="fill:#ffd42a;fill-opacity:1;stroke-width:0.21276818" />
        <path
           inkscape:connector-curvature="0"
           id="path882-7"
           d="m -32.051417,230.09015 c -1.40492,-0.10859 -2.95603,-0.29352 -3.446918,-0.41066 -0.490881,-0.1178 -1.227604,-0.21389 -1.637159,-0.21389 -0.409529,0 -0.803847,-0.0954 -0.876202,-0.21257 -0.07233,-0.11714 -0.43041,-0.21256 -0.795705,-0.21256 -0.365262,0 -0.958312,-0.0902 -1.317863,-0.20073 -0.359531,-0.11056 -1.324239,-0.35933 -2.143784,-0.55413 -1.553482,-0.36854 -2.682192,-0.68331 -3.405879,-0.95037 -0.234176,-0.0862 -1.239956,-0.42251 -2.235103,-0.74689 -0.995154,-0.32445 -2.186581,-0.76677 -2.647615,-0.98309 -0.461041,-0.21651 -0.913407,-0.39355 -1.005292,-0.39355 -0.272317,0 -5.6876,-2.52635 -5.926131,-2.76465 -0.108755,-0.10859 -0.400833,-0.27838 -2.111895,-1.22797 -1.569436,-0.87087 -5.542265,-3.52523 -7.041402,-4.70463 -0.760998,-0.59888 -1.546467,-1.21164 -1.745474,-1.36222 -1.646987,-1.24606 -6.588997,-6.05599 -7.944407,-7.73207 -0.457945,-0.56663 -0.883764,-1.07752 -0.94627,-1.13596 -0.398792,-0.37315 -2.112344,-2.52589 -2.314368,-2.90759 -0.134445,-0.25404 -0.368951,-0.58901 -0.52105,-0.74439 -0.260987,-0.26654 -1.949322,-2.79302 -3.217913,-4.81546 -1.738569,-2.77176 -4.16878,-7.75977 -5.148072,-10.56648 -0.204072,-0.58506 -0.450962,-1.15419 -0.548717,-1.26535 -0.09775,-0.11122 -0.177657,-0.40276 -0.177657,-0.64889 0,-0.24548 -0.07622,-0.53768 -0.169424,-0.6489 -0.232332,-0.27706 -0.575593,-1.39105 -1.012571,-3.28574 -0.202294,-0.87727 -0.442992,-1.78644 -0.534818,-2.02034 -0.09183,-0.23428 -0.227194,-0.71247 -0.300839,-1.06337 -0.07364,-0.35077 -0.228577,-1.06864 -0.344249,-1.595 -0.50366,-2.2916 -0.916555,-5.65316 -1.264809,-10.29705 -0.316978,-4.22651 0.20842,-11.03795 1.289083,-16.71191 0.476257,-2.50055 1.735072,-7.00854 2.494245,-8.93213 0.06923,-0.17571 0.134972,-0.36656 0.146105,-0.42514 0.05731,-0.30009 0.845768,-2.34083 1.191658,-3.0837 0.623152,-1.33833 1.485718,-3.30167 1.485718,-3.3817 0,-0.0395 0.526848,-1.00223 1.17077,-2.1382 0.643903,-1.13596 1.170776,-2.11464 1.170776,-2.17479 0,-0.0974 2.841511,-4.53622 3.242786,-5.0654 2.32737,-3.06923 3.271394,-4.29805 3.452794,-4.49456 0.122456,-0.13294 0.845248,-0.93669 1.606245,-1.78684 1.336024,-1.49253 4.012314,-4.16136 5.108819,-5.09462 0.578491,-0.49227 0.814025,-0.68852 2.561685,-2.13346 4.633635,-3.83106 10.445345,-7.26567 16.80925,-9.93411 1.377853,-0.57782 1.59286,-0.66008 2.660843,-1.01934 0.585408,-0.19678 1.255916,-0.4337 1.490073,-0.52715 0.692879,-0.27509 2.885112,-0.90154 4.257346,-1.21704 0.702463,-0.16124 1.660366,-0.39026 2.128672,-0.50806 1.422534,-0.35802 2.838,-0.60415 6.066729,-1.05423 2.719298,-0.37907 3.884442,-0.41922 9.791898,-0.33629 3.687925,0.0526 7.040586,0.15005 7.450358,0.21849 0.409792,0.0684 1.319773,0.21783 2.022243,0.33169 0.702457,0.11385 1.7322,0.30733 2.288321,0.42974 0.556095,0.12241 1.418226,0.30997 1.915806,0.41724 3.0450437,0.65482 7.2846563,1.89918 8.8316763,2.59157 0.496282,0.22179 1.047094,0.40408 1.22398803,0.40408 0.176867,0 0.321589,0.0954 0.321589,0.21257 0,0.11715 0.185958,0.21257 0.413151,0.21257 0.22726,0 0.472371,0.0954 0.544765,0.21257 0.07233,0.11715 0.267179,0.21257 0.432979,0.21257 0.33930897,0 4.01199097,1.774 6.59163297,3.18394 2.420349,1.32293 8.0024017,5.18564 9.3881197,6.49653 0.129175,0.12241 0.84758,0.72122 1.596503,1.33116 2.052827,1.67193 7.370738,7.18458 8.251722,8.55391 0.188131,0.2922 0.606223,0.81882 0.929163,1.16966 0.322906,0.35077 0.587516,0.70299 0.588109,0.78236 6.45e-4,0.079 0.124564,0.27049 0.275675,0.42514 0.314673,0.32182 2.108826,2.96038 3.083408,4.53438 1.981066,3.19953 4.678632,8.75523 5.679399,11.69678 0.198934,0.58506 0.440225,1.25475 0.536201,1.48871 0.340494,0.83027 1.479112,4.70108 1.814178,6.16741 0.187078,0.81876 0.393258,1.68009 0.458143,1.91398 0.203282,0.73334 0.494109,2.64811 0.920474,6.06106 0.460053,3.68266 0.576779,10.83006 0.224032,13.71719 -0.826448,6.76392 -0.964576,7.5291 -2.207403,12.22847 -0.34089,1.28904 -1.437428,4.63421 -1.847345,5.63572 -0.143602,0.35077 -0.335752,0.82942 -0.426919,1.06338 -0.09117,0.23362 -0.510314,1.16584 -0.931396,2.07094 -0.421057,0.90503 -0.765602,1.79032 -0.765602,1.96715 0,0.17703 -0.07187,0.32445 -0.159675,0.32708 -0.08781,0.003 -0.395234,0.52254 -0.683077,1.15479 -0.287862,0.63178 -0.613996,1.09305 -0.724708,1.02474 -0.110732,-0.0684 -0.132667,-0.0132 -0.04875,0.12241 0.154537,0.25008 -0.67726,1.94603 -0.954247,1.94603 -0.0828,0 -0.205192,0.21718 -0.271921,0.48305 -0.101444,0.40408 -1.071876,2.03086 -1.678106,2.81355 -0.09057,0.11715 -0.614194,0.88259 -1.163491,1.70135 -1.157733,1.72563 -2.434571,3.35511 -4.749452,6.06106 -1.191289,1.39263 -3.72341,3.87699 -6.702364,6.57596 -0.981116,0.88891 -3.563307,2.89503 -4.081091,3.17065 -0.254267,0.13557 -0.592653,0.37644 -0.751874,0.53504 -0.4063,0.40605 -3.6620557,2.48522 -5.0653617,3.23507 -0.643903,0.34419 -1.202705,0.69733 -1.241721,0.78506 -0.03887,0.0875 -0.206642,0.15926 -0.372509,0.15926 -0.165866,0 -0.301563,0.0954 -0.301563,0.21257 0,0.11715 -0.110205,0.21257 -0.244848,0.21257 -0.335686,0 -2.611873,1.11405 -2.6998,1.32135 -0.03886,0.0921 -0.188724,0.16716 -0.332655,0.16716 -0.143931,0 -0.758132,0.2389 -1.364856,0.53176 -0.60675097,0.2922 -1.20069597,0.53175 -1.31993797,0.53175 -0.119229,0 -0.383114,0.0875 -0.586396,0.1948 -0.66694503,0.35143 -1.83515203,0.8021 -3.34977603,1.29213 -0.819531,0.26522 -1.681643,0.55676 -1.915806,0.64824 -0.234176,0.0915 -1.4315256,0.42053 -2.6608361,0.73162 -1.2293105,0.31063 -2.5292762,0.65416 -2.8888272,0.76308 -0.359531,0.10859 -0.95258,0.19809 -1.317856,0.19809 -0.365262,0 -0.715927,0.0836 -0.779211,0.18625 -0.06324,0.102 -0.619727,0.24218 -1.23655,0.31062 -0.616829,0.0685 -1.887804,0.2231 -2.824424,0.34288 -2.431797,0.31194 -11.459879,0.44357 -14.474983,0.2106 z m 15.095712,-3.63007 c 1.414761,-0.22902 3.003347,-0.46726 3.530194,-0.52846 0.526847,-0.0592 1.149486,-0.18954 1.383636,-0.28365 0.234177,-0.0941 0.952581,-0.28627 1.596503,-0.42711 1.5527837,-0.33958 4.4614313,-1.17301 5.2152493,-1.4945 0.234176,-0.10003 1.14417,-0.44357 2.022249,-0.76328 2.72180103,-0.99177 7.017946,-3.03243 9.565007,-4.54339 1.543574,-0.91563 4.5638097,-2.83718 4.6971027,-2.98841 0.05863,-0.0665 0.612679,-0.4791 1.231451,-0.91701 0.61874,-0.43764 1.401172,-1.04218 1.738682,-1.34261 0.337531,-0.3001 0.680166,-0.56137 0.761439,-0.5798 0.147093,-0.0329 0.723845,-0.56071 3.316313,-3.03145 2.588975,-2.46745 6.199375,-6.46191 7.093626,-7.84822 0.226337,-0.35077 0.513739,-0.74696 0.638567,-0.88009 0.475203,-0.50675 0.972085,-1.14952 0.972085,-1.25765 0,-0.0592 0.178844,-0.37183 0.397474,-0.68871 0.218631,-0.31721 0.865208,-1.34386 1.436848,-2.282 0.571641,-0.9382 1.156067,-1.89522 1.298714,-2.12668 0.823267,-1.33616 3.260861,-6.53411 3.898974,-8.31423 0.246757,-0.68832 0.530667,-1.44284 0.630925,-1.6768 0.246561,-0.57519 1.214233,-3.69825 1.350885,-4.35971 0.0606,-0.2922 0.21863,-0.91451 0.351693,-1.38236 1.45103,-5.10424 2.315012,-15.22011 1.734624,-20.30987 -0.701838,-6.1549 -0.769805,-6.61479 -1.320057,-8.93213 -0.124959,-0.52648 -0.275741,-1.24409 -0.335092,-1.59499 -0.05929,-0.35077 -0.213229,-0.85317 -0.34201,-1.11622 -0.12878,-0.26324 -0.181544,-0.53044 -0.117253,-0.59493 0.06455,-0.0658 -0.158686,-0.8539 -0.495624,-1.75485 -0.336871,-0.90089 -0.612876,-1.80546 -0.613272,-2.0102 -4.28e-4,-0.20467 -0.07668,-0.37249 -0.169489,-0.37249 -0.09281,0 -0.289312,-0.4508 -0.436734,-1.00125 -0.263819,-0.98539 -0.409529,-1.35077 -1.467064,-3.67745 -0.668176,-1.47009 -2.202344,-4.5405 -2.774828,-5.55339 -0.890898,-1.57631 -1.012143,-1.77341 -1.252629,-2.03659 -0.135368,-0.14808 -0.374287,-0.55874 -0.530932,-0.91207 -0.156644,-0.35341 -0.35716,-0.64298 -0.445693,-0.64298 -0.08853,0 -0.160926,-0.13557 -0.160926,-0.30141 0,-0.16585 -0.07694,-0.33301 -0.170939,-0.37249 -0.094,-0.0395 -0.77871,-0.93222 -1.521553,-1.98493 -0.74283,-1.05271 -1.408286,-1.96189 -1.478789,-2.02033 -0.07048,-0.0592 -0.600163,-0.68055 -1.17708,-1.38236 -1.327606,-1.61507 -1.434121,-1.72918 -3.799223,-4.07087 -2.994757,-2.96518 -3.615551,-3.51964 -5.704101,-5.09495 -0.752592,-0.5673 -1.400276,-1.10616 -1.439305,-1.19671 -0.03886,-0.0902 -0.185497,-0.16453 -0.325542,-0.16453 -0.139979,0 -0.392665,-0.19151 -0.56143,-0.42514 -0.168765,-0.23429 -0.387857,-0.42514 -0.486929,-0.42514 -0.09901,0 -0.494043,-0.23889 -0.8777817,-0.53175 -0.383773,-0.2922 -0.750886,-0.53175 -0.815876,-0.53175 -0.104144,0 -2.042459,-1.22455 -2.609166,-1.64837 -0.117187,-0.0875 -0.596145,-0.3567 -1.064339,-0.59888 -0.468156,-0.24153 -1.521758,-0.78466 -2.341303,-1.20691 -1.764062,-0.90885 -3.13341097,-1.51773 -6.279582,-2.79229 -0.761004,-0.30866 -1.504677,-0.56005 -1.652619,-0.56005 -0.14795,3.3e-4 -0.435285,-0.0921 -0.638633,-0.20533 -0.526584,-0.29352 -2.2837564,-0.85976 -3.7755091,-1.21685 -3.4084412,-0.81573 -4.6645092,-1.05192 -8.3018242,-1.5609 -2.799103,-0.39158 -3.915192,-0.43501 -9.046862,-0.35209 -5.848454,0.0948 -8.063446,0.27904 -11.069104,0.92227 -0.878079,0.18756 -1.97967,0.41659 -2.447976,0.50872 -2.025227,0.3975 -5.961998,1.54597 -7.237498,2.11102 -0.234177,0.10398 -0.952581,0.37776 -1.596503,0.60875 -2.173111,0.78006 -6.910541,3.02948 -8.233752,3.90957 -0.489366,0.32576 -0.943662,0.59164 -1.009475,0.59164 -0.134446,0 -4.214357,2.57439 -4.38029,2.76393 -0.05863,0.0671 -1.160125,0.92721 -2.447969,1.91194 -1.287852,0.98473 -2.759342,2.17775 -3.269978,2.65113 -2.799188,2.59513 -5.930755,5.93569 -7.448376,7.94556 -0.413876,0.5482 -0.814433,1.04448 -0.890094,1.10292 -0.255255,0.19744 -3.760951,5.41395 -4.359026,6.48647 -1.387411,2.48792 -3.049589,5.88172 -3.801753,7.7624 -0.444441,1.11116 -0.890001,2.21171 -0.990174,2.44567 -0.100191,0.23429 -0.440686,1.28667 -0.756702,2.33938 -0.31599,1.05272 -0.646208,2.10543 -0.733726,2.33932 -0.209672,0.56005 -0.53719,1.84982 -0.837311,3.29641 -0.133457,0.64297 -0.334895,1.55248 -0.447537,2.02033 -0.318229,1.32129 -0.629937,4.11944 -0.915204,8.21611 -0.348729,5.00854 0.01515,10.62196 1.032187,15.92185 0.190766,0.9942 0.399187,2.16715 0.463149,2.60651 0.0639,0.43961 0.201964,0.85172 0.306636,0.91635 0.104737,0.0658 0.190371,0.34682 0.190371,0.62652 0,0.28035 0.08932,0.72892 0.198473,0.99763 0.109151,0.26851 0.356568,1.06271 0.549837,1.76452 0.19327,0.70181 0.439237,1.44218 0.546543,1.64528 0.107372,0.20335 0.19518,0.56202 0.19518,0.79749 0,0.23561 0.09578,0.42843 0.2129,0.42843 0.117055,0 0.212834,0.18559 0.212834,0.41264 0,0.22705 0.09578,0.47186 0.212833,0.54426 0.117056,0.0724 0.2129,0.27903 0.2129,0.4587 0,0.34024 0.203546,0.83369 1.410347,3.41973 0.395103,0.8466 0.718326,1.63613 0.718326,1.75452 0,0.11846 0.07239,0.21521 0.160926,0.21521 0.08847,0 0.294384,0.31128 0.45755,0.69114 0.163165,0.38039 0.632243,1.26535 1.042456,1.96716 0.410188,0.70181 0.854668,1.46745 0.987678,1.70135 0.324158,0.56992 2.703119,4.17031 3.021421,4.57241 3.338927,4.21829 3.819532,4.76748 6.686496,7.64039 1.537732,1.54097 3.274523,3.10365 4.671077,4.20282 0.380479,0.29944 2.077747,1.6639 2.611893,2.0997 0.206246,0.16848 0.41717,0.30603 0.468748,0.30603 0.05138,0 0.697081,0.41987 1.434424,0.93306 3.381598,2.35354 7.51179,4.53662 12.509693,6.6123 0.991597,0.41197 1.926853,0.74873 2.07834,0.74873 0.151507,0 0.44174,0.0842 0.645088,0.18756 0.679922,0.34551 1.429148,0.62981 1.966126,0.7457 0.691647,0.1494 2.853665,0.6847 3.93805,0.97493 2.207917,0.59098 6.759139,1.30134 9.579031,1.49503 3.847191,0.26456 10.790306,0.0329 13.818505,-0.4541 z m -10.519056,-31.45772 c -0.526848,-0.0974 -1.867911,-0.33366 -2.980146,-0.52583 -1.112229,-0.19216 -2.21382,-0.4304 -2.447976,-0.53043 -0.234177,-0.0994 -0.760998,-0.28167 -1.17077,-0.40474 -1.451551,-0.43633 -3.948246,-1.31359 -4.683079,-1.6456 -1.469284,-0.6639 -4.365851,-2.09016 -4.470219,-2.20112 -0.05863,-0.0592 -0.345896,-0.23034 -0.638567,-0.37315 -1.168108,-0.57123 -3.974015,-2.31694 -4.4336,-2.75859 -0.155459,-0.1494 -0.49075,-0.38237 -0.745037,-0.51794 -0.254267,-0.13491 -1.372352,-0.96781 -2.484588,-1.85021 -1.112235,-0.88246 -2.148856,-1.70424 -2.30361,-1.82625 -0.599307,-0.47253 -3.385189,-3.05212 -4.718433,-4.36893 -2.71497,-2.68153 -4.834974,-5.07192 -6.601473,-7.44342 -1.543443,-2.07206 -2.151386,-2.72701 -2.829905,-3.04869 -0.791871,-0.37513 -1.967687,-0.47253 -2.1502,-0.17704 -0.150913,0.24416 -2.209774,0.67035 -3.07213,0.6364 -0.870325,-0.0329 -1.952536,-1.03034 -1.952536,-1.79691 0,-0.9153 1.090708,-2.63145 1.672427,-2.63145 0.267244,0 2.44739,-1.15195 3.293541,-1.7403 1.465996,-1.01929 2.947124,-2.4054 4.124164,-3.85962 0.678664,-0.83843 1.35184,-1.64909 1.495936,-1.80145 0.41526,-0.43896 1.87787,-0.40671 2.385891,0.0526 0.644891,0.58309 0.601152,2.31201 -0.09347,3.69364 -0.442464,0.88023 -0.532183,1.36242 -0.532183,2.8618 0,3.00868 0.932273,4.96945 3.865735,8.13042 0.217115,0.23428 0.944814,1.03882 1.617154,1.78867 2.293235,2.55748 5.635719,5.75899 7.661677,7.33859 0.73173,0.57058 1.330424,1.11885 1.330424,1.21855 0,0.10004 0.127002,0.18164 0.282198,0.18164 0.155195,0 0.507151,0.23955 0.782149,0.53175 0.274951,0.2922 0.583036,0.53176 0.684605,0.53176 0.101575,0 0.394575,0.19545 0.651148,0.43435 0.256573,0.23889 0.899158,0.68509 1.427956,0.9917 0.528823,0.30668 1.009336,0.61402 1.067883,0.68233 0.47079,0.5515 5.557667,3.13899 8.408262,4.27647 0.745688,0.29746 3.336047,1.02764 5.215248,1.46988 2.699787,0.63574 8.104254,0.85805 10.254612,0.42251 3.142528,-0.63639 5.115749,-1.21691 6.987645,-2.05528 0.643902,-0.28825 1.410242,-0.63046 1.702946,-0.75965 0.9600305,-0.42448 4.5460183,-2.76472 6.0667153,-3.95899 2.094531,-1.64495 5.67345003,-5.32273 7.343928,-7.54681 0.409792,-0.54558 0.859569,-1.11951 0.999567,-1.27542 0.366119,-0.40803 3.288963,-4.92872 3.998981,-6.18538 0.792959,-1.40348 1.23709,-2.2862 1.926168,-3.82809 0.8877227,-1.98637 0.9145327,-2.0558 1.2720027,-3.29634 0.185365,-0.64297 0.436141,-1.4845 0.557214,-1.86923 0.121074,-0.38499 0.220146,-1.44442 0.220146,-2.35491 0,-1.40533 -0.08735,-1.81172 -0.578426,-2.69049 -0.318163,-0.56926 -0.746123,-1.21494 -0.9510517,-1.43468 -0.676147,-0.7251 -0.74057,-2.33701 -0.124499,-3.11457 0.130164,-0.16453 0.5530647,-0.43106 0.9397617,-0.5923 1.159459,-0.48437 1.967812,-0.18295 3.479518,1.29674 0.7436,0.72787 1.878852,1.67575 2.522774,2.10635 0.643903,0.4304 1.266555,0.85515 1.383636,0.9434 0.260921,0.19677 1.784826,0.94228 3.12224,1.52754 1.740282,0.76156 2.331764,2.14076 1.558639,3.63447 -0.466903,0.90194 -0.91996,1.05903 -3.054562,1.05903 h -1.913981 l -1.026938,1.01586 c -0.925783,0.91576 -1.941891,2.67344 -3.070285,5.31108 -0.162639,0.38039 -0.368095,0.69115 -0.456628,0.69115 -0.08853,0 -0.160926,0.0935 -0.160926,0.2073 0,0.25732 -1.260962,2.82928 -1.879497,3.83369 -0.252094,0.40934 -0.524213,0.88792 -0.604643,1.06337 -0.391414,0.8537 -4.7087027,7.09153 -5.1516427,7.44342 -0.07364,0.0592 -0.61281,0.68003 -1.198205,1.38131 -2.339794,2.80283 -5.745449,5.91397 -8.662667,7.91351 -1.935357,1.32655 -6.0816623,3.61427 -6.8372773,3.77248 -0.138727,0.0263 -0.539627,0.17111 -0.890845,0.31589 -1.649432,0.67963 -3.176894,1.07075 -6.279589,1.60783 -1.958406,0.33893 -7.523259,0.39816 -9.153298,0.0981 z m -20.009536,-55.31861 c -1.044841,-0.60348 -1.627561,-1.18117 -2.232132,-2.21184 -0.936488,-1.59651 -1.218685,-2.78255 -1.209186,-5.08225 0.0072,-1.77755 0.104737,-2.40309 0.568874,-3.65409 0.612547,-1.65107 1.830778,-3.10582 3.025281,-3.61269 0.988205,-0.41922 2.699491,-0.36525 3.634068,0.11517 3.969806,2.04007 4.666387,10.10086 1.166146,13.4948 -0.443256,0.42975 -1.079385,0.92313 -1.413701,1.09641 -0.867118,0.44949 -2.635389,0.37644 -3.539323,-0.14544 z m 35.459246,0.1823 c -0.430147,-0.26653 -0.973251,-0.67792 -1.597498,-1.21033 -0.461963,-0.39421 -1.505902,-2.24205 -1.505902,-2.66587 0,-0.17111 -0.07859,-0.31129 -0.174627,-0.31129 -0.341351,0 -0.582246,-3.31003 -0.350705,-4.8198 0.393324,-2.56504 1.803283,-4.93654 3.37926,-5.6837 0.936791,-0.44422 2.7341258,-0.4383 3.6842231,0.0132 2.2553722,1.06923 3.4665872,3.58393 3.4665872,7.19715 0,3.74991 -1.053827,5.97373 -3.4655728,7.31312 -0.9035584,0.50148 -2.7515625,0.5923 -3.4357985,0.16847 z"
           style="fill:#333333;fill-opacity:1;stroke-width:0.21276818" />
      </g>
    </g>
    <path
       inkscape:connector-curvature="0"
       style="opacity:0.722;fill:#ff00ff;fill-opacity:1;stroke:none;stroke-width:11.32370472;stroke-linecap:round;stroke-linejoin:bevel;stroke-miterlimit:10;stroke-dasharray:none;stroke-opacity:1;paint-order:normal"
       d="M -223.29804,-76.20512 A 169.33333,169.33333 0 0 0 -392.63137,93.128211 169.33333,169.33333 0 0 0 -223.29804,262.46154 169.33333,169.33333 0 0 0 -66.109694,155.72181 120.19643,120.19643 0 0 0 25.410288,198.20552 120.19643,120.19643 0 0 0 145.60658,78.009237 120.19643,120.19643 0 0 0 25.410288,-42.187043 120.19643,120.19643 0 0 0 -74.897274,11.943505 169.33333,169.33333 0 0 0 -223.29804,-76.20512 Z"
       id="path1556" />
    <path
       style="opacity:0.722;fill:#446b00;fill-opacity:0.49740984;stroke:none;stroke-width:7.47791815;stroke-linecap:round;stroke-linejoin:bevel;stroke-miterlimit:10;stroke-dasharray:none;stroke-opacity:1;paint-order:normal"
       d="m -449.32765,62.890263 c -56.28153,20.281265 -91.94374,183.238997 -38.54592,164.916707 m 0,0 c 35.44219,-11.79992 83.51202,-18.42902 133.63469,-18.429 84.40045,0.01 158.55103,18.65 181.68606,45.6737 35.50763,-12.12461 84.195346,-18.97229 135.057893,-18.99523 22.955461,0.007 45.7148396,1.40703 67.163367,4.13049 0.309377,-0.62918 0.63873,-1.25728 0.988033,-1.88413 0.132212,-0.16877 0.26588,-0.33739 0.401029,-0.50591 -33.682966,-58.57306 -96.073885,-94.70782 -163.641182,-94.7756 -50.86259,0.069 -99.55032,20.6366 -135.05791,57.05388 -23.13488,-81.16793 -97.2855,-137.156517 -181.68606,-137.184907"
       id="path1538"
       inkscape:connector-curvature="0"
       sodipodi:nodetypes="cccccccccccc" />
    <path
       style="opacity:0.722;fill:#426a00;fill-opacity:0.88082904;stroke:none;stroke-width:18.64373589;stroke-linecap:round;stroke-linejoin:round;stroke-miterlimit:4;stroke-dasharray:none;stroke-opacity:1"
       d="M 211.35501,-65.38666 C 147.39969,-67.784761 84.653406,-47.51087 34.192762,-8.1439397 -16.267883,31.222993 -51.198148,87.151559 -64.431759,149.76868 c -5.943283,28.6781 -7.206906,58.12895 -3.741897,87.2107 10.13378,-0.58507 20.394083,-0.89373 30.678729,-0.92294 22.955461,0.007 45.7148396,1.40703 67.163367,4.13049 0.309377,-0.62918 0.63873,-1.25728 0.988033,-1.88413 13.233744,-20.8475 48.164115,-39.46813 98.624867,-52.57479 50.46075,-13.10664 113.20711,-19.85651 177.16243,-19.05805 15.45458,0.19291 30.83137,0.82516 45.96257,1.88982 44.17494,3.13933 85.29899,9.89883 119.64593,19.66597 -7.92091,-121.431438 -95.67844,-222.757535 -214.73469,-247.935753 -15.13121,-3.197937 -30.508,-5.097063 -45.96257,-5.676657 z"
       id="path4716-0"
       inkscape:connector-curvature="0"
       sodipodi:nodetypes="cscccccsccccc" />
    <ellipse
       style="opacity:1;fill:#ffffff;fill-opacity:1;stroke:none;stroke-width:7.47791862;stroke-linecap:round;stroke-linejoin:bevel;stroke-miterlimit:10;stroke-dasharray:none;stroke-opacity:1;paint-order:normal"
       id="path1858"
       cx="-36.362419"
       cy="376.83722"
       rx="256.04419"
       ry="148.06732" />
    <ellipse
       style="opacity:1;fill:#ffffff;fill-opacity:1;stroke:none;stroke-width:7.4779191;stroke-linecap:round;stroke-linejoin:bevel;stroke-miterlimit:10;stroke-dasharray:none;stroke-opacity:1;paint-order:normal"
       id="path1858-2"
       cx="-367.24213"
       cy="352.78299"
       rx="256.04419"
       ry="148.06732" />
    <ellipse
       style="opacity:1;fill:#ffffff;fill-opacity:1;stroke:none;stroke-width:7.4779191;stroke-linecap:round;stroke-linejoin:bevel;stroke-miterlimit:10;stroke-dasharray:none;stroke-opacity:1;paint-order:normal"
       id="path1858-9"
       cx="253.89226"
       cy="315.36523"
       rx="256.04419"
       ry="148.06732" />
    <g
       id="g1536"
       transform="matrix(1.1676616,0,0,1.1676616,-67.068238,3.3288617)"
       style="opacity:0.35739004">
      <path
         inkscape:connector-curvature="0"
         id="path3073-0"
         d="m 203.11983,51.6132 c -0.48931,0.0019 -1.01897,0.01062 -1.59341,0.02882 l -1.33008,0.04009 c -2.17644,0.06629 -3.92199,1.82128 -3.97652,3.99804 l -0.15813,6.252869 c -0.0546,2.170427 -0.10123,2.649398 -0.14358,3.327024 -7.84886,2.216364 -12.62031,4.355242 -17.13033,8.193722 -2.21977,1.889261 -4.81335,4.380122 -7.12503,6.762642 -2.31169,2.382504 -4.22038,4.450573 -5.44143,6.254273 -3.83885,5.670744 -5.09961,7.739068 -7.17497,11.792832 -3.87893,7.576548 -5.49558,12.307048 -7.73617,22.592308 -1.63188,7.49117 -2.21277,23.84982 -1.11194,31.42501 0.30769,2.11769 0.6429,4.77083 0.70498,5.44721 0.54759,5.96463 3.65628,15.41576 6.82295,21.75728 7.5948,15.20912 18.38175,26.57966 31.64945,32.96627 4.47882,2.15594 8.2325,3.12163 14.86482,3.87814 4.12662,0.4707 8.88775,-0.25554 15.49097,-1.94034 8.66573,-2.21103 16.1118,-4.28498 19.98014,-5.60297 1.34155,-0.45707 4.37374,-1.29783 6.20403,-1.70394 2.21745,-0.49201 5.39571,-1.34473 7.49326,-2.01538 5.61451,-1.79516 8.48778,-2.53245 10.36424,-2.78595 1.81631,-0.24533 3.83171,-0.80011 5.59047,-1.47382 0.6348,-0.24292 5.15862,-1.56003 8.84025,-2.44917 8.06379,-1.94752 16.41146,-4.76008 21.11775,-7.44041 3.0169,-1.7182 5.52662,-4.28412 7.86778,-7.43307 3.62859,4.23665 9.70022,5.85811 15.43996,4.24505 0.18812,-0.0526 0.15393,-0.03 0.29749,-0.0617 0.0884,0.14751 0.0904,0.11654 0.19978,0.32921 0.62357,1.21269 0.80945,3.86679 -0.56626,7.48763 -0.39113,1.02919 -0.73631,2.07151 -1.00314,3.00353 -0.26683,0.93203 -0.52567,1.29116 -0.5307,2.86945 -0.007,2.28524 1.05121,3.74562 2.13811,4.9876 1.08691,1.24198 2.42243,2.32215 4.02078,3.38723 1.97666,1.31716 4.84382,2.01277 7.06935,1.71495 3.66605,-0.4906 6.84785,-2.21081 11.712,-5.91876 2.59245,-1.97628 4.27391,-3.14262 5.59985,-5.23416 1.32593,-2.09154 1.40631,-4.42839 1.35604,-6.55155 -0.1662,-7.01884 -2.34383,-13.00312 -7.46339,-21.27168 l -1.51772,-2.4509 0.043,-3.70286 c 0.0269,-2.24867 0.0699,-3.55255 -0.18218,-5.02049 -0.22183,-1.29131 -1.09512,-2.6932 -1.80641,-3.51578 1.04286,-0.89374 1.93141,-1.97502 2.47774,-3.39261 0.41222,-1.06942 0.43971,-2.79501 -0.25047,-4.0454 -0.69021,-1.2504 -1.67693,-1.83667 -2.42873,-2.16695 -1.50362,-0.66055 -2.61178,-0.63938 -3.77419,-0.57791 -1.1977,0.0633 -2.42792,0.16101 -3.65015,0.59592 -0.0743,-0.0663 -0.17224,-0.12704 -0.25233,-0.19118 0.27265,-4.63677 -1.11876,-10.06729 -3.35364,-14.70794 -2.70431,-5.61549 -7.24398,-10.05127 -12.79267,-11.74692 -0.96543,-0.29504 -2.41951,-0.81552 -2.54499,-0.86868 -0.39351,-0.16669 -0.81181,-0.30814 -1.22939,-0.46289 -0.1363,-0.1927 -0.29813,-0.42314 -0.42291,-0.67153 -0.75876,-1.51037 -2.16153,-3.87096 -3.41063,-5.82353 -0.55249,-0.86369 -1.05846,-1.70237 -1.39566,-2.29666 -0.12787,-0.22537 -0.19752,-0.35975 -0.26186,-0.48325 -0.13584,-0.47623 -0.30555,-0.73381 -0.40651,-0.914 -0.1627,-0.29046 -0.28625,-0.46403 -0.40999,-0.63499 -0.24752,-0.34195 -0.49181,-0.63855 -0.77664,-0.96996 -0.56966,-0.66279 -1.2786,-1.42299 -2.06609,-2.21273 -2.1292,-2.13527 -4.54812,-3.78326 -7.29371,-4.96231 -1.81505,-0.77944 -4.4489,-1.945836 -5.72895,-2.534729 -1.45163,-0.667805 -5.05491,-2.258289 -8.17941,-3.611703 -9.30905,-4.032344 -19.80912,-8.804716 -22.68333,-10.273786 -1.89802,-0.970142 -4.95433,-2.338536 -7.21836,-3.240957 -3.52102,-1.403479 -6.75053,-2.871518 -9.07757,-4.083964 -1.16351,-0.606241 -2.10719,-1.155711 -2.68367,-1.539306 -0.5765,-0.383579 -0.80452,-1.116268 -0.0817,0.244892 -1.0916,-2.055361 -2.13109,-2.782963 -3.85297,-3.676153 -0.21488,-0.111412 -1.90582,-1.221298 -2.7503,-1.907217 -1.32437,-1.07571 -2.75744,-2.099933 -4.20508,-2.840193 0.16092,0.0823 -2.93219,-1.891303 -5.14163,-3.529017 -2.38963,-1.771263 -5.24719,-3.77375 -6.86145,-4.765346 -2.2158,-1.361094 -3.40332,-2.205586 -7.45686,-5.317495 -2.19374,-1.684123 -5.18293,-2.568474 -8.70691,-2.559862 l -0.005,-5.8e-5 z"
         style="color:#000000;font-style:normal;font-variant:normal;font-weight:normal;font-stretch:normal;font-size:medium;line-height:normal;font-family:sans-serif;text-indent:0;text-align:start;text-decoration:none;text-decoration-line:none;text-decoration-style:solid;text-decoration-color:#000000;letter-spacing:normal;word-spacing:normal;text-transform:none;writing-mode:lr-tb;direction:ltr;baseline-shift:baseline;text-anchor:start;white-space:normal;clip-rule:nonzero;display:inline;overflow:visible;visibility:visible;opacity:1;isolation:auto;mix-blend-mode:normal;color-interpolation:sRGB;color-interpolation-filters:linearRGB;solid-color:#000000;solid-opacity:1;fill:#ffffff;fill-opacity:1;fill-rule:nonzero;stroke:none;stroke-width:8.20454884;stroke-linecap:butt;stroke-linejoin:round;stroke-miterlimit:4;stroke-dasharray:none;stroke-dashoffset:0;stroke-opacity:1;color-rendering:auto;image-rendering:auto;shape-rendering:auto;text-rendering:auto;enable-background:accumulate" />
      <path
         inkscape:connector-curvature="0"
         id="path3075-7-7"
         d="m 204.33122,55.270516 c -0.79115,-0.03527 -1.698,-0.02918 -2.77726,0.0042 l -1.90385,0.05913 -0.17299,6.821318 c -0.0781,3.102713 -0.13337,4.688688 -0.28054,5.386699 -0.0736,0.349008 -0.13914,0.420302 -0.1814,0.455775 -0.0423,0.03546 -0.1762,0.09099 -0.47775,0.170601 -9.07186,2.394485 -12.99155,4.192581 -17.56545,8.085411 -2.08382,1.77354 -4.63511,4.218662 -6.88179,6.53394 -2.24667,2.315276 -4.17115,4.470339 -5.05658,5.778293 -3.82015,5.643157 -4.91591,7.443423 -6.95475,11.425834 -3.80042,7.423243 -5.2163,11.564973 -7.43356,21.743153 -1.3851,6.35832 -2.00194,23.75513 -1.06885,30.17603 0.31409,2.16143 0.64468,4.72335 0.72787,5.62982 0.44774,4.87693 3.5681,14.7017 6.46965,20.51227 7.31651,14.65183 17.55643,25.37004 30.03251,31.37561 4.21114,2.02708 7.2649,2.8144 13.74713,3.55383 0.0435,0.006 0.10994,-0.009 0.15392,-0.005 3.34947,0.35395 7.73212,-0.22815 14.07207,-1.84577 8.61929,-2.19921 16.10119,-4.29291 19.71911,-5.52557 1.58203,-0.53903 4.5753,-1.36346 6.57465,-1.80708 2.05624,-0.45622 5.25925,-1.31792 7.18269,-1.93292 5.67277,-1.81378 8.69916,-2.61621 10.96445,-2.92224 1.30456,-0.17617 3.395,-0.73225 4.80752,-1.2729 1.24752,-0.47757 5.49714,-1.67265 9.26833,-2.58344 7.81104,-1.88643 16.23953,-4.81892 20.20648,-7.07822 3.03277,-1.72722 5.51086,-4.20722 7.99464,-7.95683 0.4528,-0.68357 0.93097,-1.30727 1.31724,-1.74559 0.17409,-0.19755 0.32049,-0.34073 0.43692,-0.44455 0.0716,0.0746 0.14478,0.14995 0.24164,0.27981 0.26225,0.35194 0.5751,0.87096 0.84814,1.43957 2.09621,4.36569 7.86498,6.42571 13.25515,4.91089 1.63192,-0.45862 2.41329,-0.56645 2.85667,-0.36901 0.44337,0.1975 0.91192,0.86867 1.703,2.40717 1.27779,2.48495 1.19173,6.12923 -0.40583,10.33318 -0.35407,0.93167 -0.67567,1.8985 -0.91096,2.7196 -0.23526,0.82109 -0.39569,1.42892 -0.39725,1.91803 -0.003,0.89665 0.4841,1.77151 1.27188,2.67177 0.78783,0.90024 1.90833,1.83244 3.32645,2.77742 1.7733,1.18164 2.73219,1.41854 4.66678,1.15968 3.00001,-0.40149 5.31587,-1.62056 10.05126,-5.23041 2.56234,-1.9533 3.96915,-3.06698 4.76773,-4.3267 0.79855,-1.25972 0.85791,-2.56619 0.80997,-4.59228 -0.15191,-6.41641 -1.96028,-11.4745 -6.93701,-19.51238 l -2.05737,-3.31838 0.0567,-4.72245 c 0.0266,-2.22144 0.0231,-3.47723 -0.13205,-4.38404 -0.15554,-0.90682 -0.54496,-1.48289 -1.06808,-1.98269 -0.66011,-0.63065 -1.60165,-1.28185 -2.33675,-1.57207 -0.24363,-0.0963 -0.34805,-0.21111 -0.40577,-0.32466 -0.0577,-0.11356 -0.0767,-0.24848 -0.0298,-0.43301 0.0933,-0.36898 0.49496,-0.88714 1.22685,-1.19825 1.63772,-0.69613 2.93185,-1.85957 3.46824,-3.25125 0.13568,-0.35205 0.12941,-0.77015 -0.0487,-1.0928 -0.17816,-0.32261 -0.46519,-0.52059 -0.76982,-0.65437 -0.60922,-0.26759 -1.36176,-0.32938 -2.18175,-0.28599 -1.64006,0.0868 -3.54119,0.57764 -4.54315,1.77704 -0.18092,0.21658 -0.31496,0.33135 -0.40548,0.39768 -0.0121,-0.0189 0.007,0.009 -0.008,-0.0235 -0.0717,-0.1515 -0.16015,-0.42177 -0.24,-0.79092 -0.21573,-0.99782 -0.86202,-1.92907 -1.75538,-2.33954 -0.43313,-0.19921 -0.49806,-0.24942 -0.57739,-0.48165 -0.0794,-0.23225 -0.10815,-0.78849 -0.0465,-1.78385 0.22121,-3.56186 -1.05127,-8.95005 -3.01994,-13.03792 -2.32863,-4.8354 -6.32222,-8.58825 -10.66276,-9.91473 -1.06308,-0.32486 -2.40682,-0.79186 -2.88622,-0.99491 -0.56204,-0.23808 -1.37584,-0.54343 -1.87012,-0.70223 0.0696,0.0223 -0.30198,-0.22052 -0.61608,-0.61479 -0.3141,-0.39425 -0.65869,-0.9255 -0.9315,-1.46851 -0.61002,-1.21431 -2.04339,-3.65657 -3.22908,-5.51002 -0.58226,-0.91023 -1.11202,-1.78446 -1.49164,-2.45343 -0.18974,-0.33449 -0.3412,-0.61807 -0.44071,-0.82024 -0.0497,-0.10104 -0.0876,-0.18254 -0.10623,-0.22981 -0.018,-0.0474 3.5e-4,-0.11128 5.8e-4,0.0676 9.4e-4,-0.28518 -0.0783,-0.33708 -0.1316,-0.4333 -0.0538,-0.0961 -0.11435,-0.18883 -0.18948,-0.29267 -0.15037,-0.20769 -0.35207,-0.45432 -0.59744,-0.73989 -0.49072,-0.57114 -1.15573,-1.28867 -1.88937,-2.02441 -1.85048,-1.85579 -3.82336,-3.19689 -6.19561,-4.21561 -1.84912,-0.79406 -4.47331,-1.95551 -5.8123,-2.5715 -1.36449,-0.62772 -4.99988,-2.231914 -8.1065,-3.577567 -9.34867,-4.049513 -19.70633,-8.745532 -22.88641,-10.370925 -1.70883,-0.873422 -4.79588,-2.257168 -6.9215,-3.104412 -3.61603,-1.441353 -6.92322,-2.945396 -9.39525,-4.233612 -1.23601,-0.644119 -2.26427,-1.234175 -3.00644,-1.728089 -0.74218,-0.493923 -1.20177,-0.968081 -1.23539,-1.031382 -0.45491,-0.856628 -1.42031,-1.712635 -2.37124,-2.205892 -0.73041,-0.378908 -2.30479,-1.449626 -3.34884,-2.297654 -1.11415,-0.904953 -2.66224,-1.966968 -3.59089,-2.441865 -0.69328,-0.354502 -3.34217,-2.137266 -5.63355,-3.835686 -2.31781,-1.718038 -5.25862,-3.762901 -6.60905,-4.592441 -2.30207,-1.414083 -3.67771,-2.395504 -7.75347,-5.524442 -1.01805,-0.781655 -1.97789,-1.297677 -3.20514,-1.567045 -0.61363,-0.134674 -1.28905,-0.211279 -2.0802,-0.246532 z m -2.05582,2.739405 1.31388,0.137174 c 0.5197,0.05358 1.02825,0.138973 1.41268,0.22617 0.18249,0.04136 0.33019,0.08321 0.43511,0.118731 0.01,0.05278 0.0178,0.0903 0.0276,0.167093 0.0357,0.263562 0.0702,0.650608 0.10076,1.116444 0.0596,0.910366 0.10208,2.142841 0.11159,3.450392 l 0.0277,4.391532 -1.7289,-0.0055 -1.73154,-0.0055 0.0154,-4.829493 z m 2.88778,12.779329 c 1.63442,-0.0086 3.22105,0.119645 4.71616,0.393154 9.11501,1.667436 20.97938,7.007455 26.70167,11.968563 6.75113,5.853112 13.63189,14.260996 16.7159,20.378043 1.57272,3.11946 5.10822,13.17436 5.99553,17.08156 0.97344,4.28634 2.45877,15.95502 2.44041,18.96087 -0.0432,7.01975 -2.37405,22.23921 -4.22154,27.70164 -1.53573,4.54066 -5.92241,13.30741 -8.69482,17.37378 -2.45252,3.5972 -9.13995,10.33901 -14.22124,14.28685 -4.7936,3.72435 -13.79801,8.69446 -17.5238,9.74666 -3.12793,0.88346 -13.57105,1.49623 -16.77093,0.98444 -1.12265,-0.17955 -3.12323,-0.79328 -4.26469,-1.31223 -1.24688,-0.56687 -2.8675,-1.1798 -3.75329,-1.4045 -0.59972,-0.15213 -2.07321,-0.93197 -2.96239,-1.63667 -1.02774,-0.81448 -2.99695,-2.03275 -4.49989,-2.79681 -4.90145,-2.49168 -11.78125,-10.31417 -19.70473,-22.71625 -3.44584,-5.39355 -7.28958,-17.5703 -8.37175,-26.72739 -1.37645,-11.64725 -0.93434,-24.45274 1.06171,-32.03014 0.50153,-1.90406 1.0644,-4.30516 1.26374,-5.41226 0.16064,-0.89202 1.05177,-3.53215 2.13506,-6.33263 1.0833,-2.80046 2.36705,-5.84015 3.32879,-7.77612 4.1792,-8.412506 11.79518,-17.493612 19.98341,-23.810206 5.13953,-3.964754 12.35014,-6.474039 18.99842,-6.86563 0.55404,-0.03256 1.10348,-0.05184 1.64827,-0.05472 z m 3.28197,2.829421 c -0.95489,-0.02067 -1.92711,-0.0039 -2.92345,0.04806 -14.12945,0.735936 -24.4688,6.355922 -32.52798,17.686373 -7.54782,10.611456 -12.30565,20.940466 -14.44267,31.400766 -0.96179,4.70782 -1.11844,7.10608 -1.16236,17.78893 -0.0477,11.65007 0.0304,12.68528 1.24259,17.5932 1.64057,6.64246 3.4521,12.19203 5.41823,16.57906 2.23628,4.98985 6.46428,11.06371 11.03598,16.36224 4.5717,5.29855 9.44359,9.8048 13.15289,11.63856 3.71209,1.83514 9.60131,3.94923 12.85195,4.59669 4.44325,0.88494 11.29839,0.68634 15.21507,-0.46524 4.02737,-1.18412 8.21433,-3.16791 11.39743,-5.40866 1.15949,-0.81622 3.00177,-2.07875 4.07698,-2.79294 1.56445,-1.03915 4.16005,-3.43888 6.83104,-6.15337 2.67098,-2.71448 5.37512,-5.71573 7.01656,-7.90779 7.61956,-10.17553 11.02189,-21.26432 12.33171,-39.99739 0.62224,-8.89973 0.62858,-8.19445 -0.19335,-14.61443 -1.60404,-12.52871 -5.18001,-22.03732 -12.47923,-33.189413 -5.23253,-7.994542 -8.82897,-11.469095 -17.26225,-16.681992 -7.07476,-4.373134 -12.89495,-6.337975 -19.57914,-6.482654 z m 33.57827,10.33718 c 0.16882,0.07003 0.26166,0.103366 0.44795,0.181372 1.49373,0.625881 3.52958,1.50384 5.81772,2.506327 4.57627,2.004939 10.15946,4.509562 14.44183,6.500183 2.03889,0.947753 4.79038,2.125811 6.17714,2.643079 1.31435,0.490251 3.36596,1.401835 4.47378,1.985707 1.18479,0.624479 2.88339,1.37408 3.89054,1.710041 1.11827,0.373015 5.24409,2.2016 9.35909,4.11877 4.11502,1.91714 8.3255,3.96499 9.74815,4.78498 1.39651,0.80491 3.2364,2.33152 4.80666,3.90867 1.57026,1.57714 2.88862,3.26215 3.26466,4.16454 0.37227,0.89327 1.06122,2.16038 1.60222,2.94402 1.14663,1.66097 2.7826,5.72734 4.06538,9.84417 1.26928,4.07338 2.19875,8.24923 2.21261,10.26851 -0.0202,0.007 -10e-4,0.003 -0.0367,0.0127 -0.23062,0.0648 -0.75406,0.10926 -1.54924,0.0811 -1.59035,-0.0562 -4.29046,-0.36804 -8.51645,-0.9581 -3.65493,-0.51033 -8.06177,-1.05176 -9.85343,-1.20749 -1.74217,-0.15149 -4.94899,-0.49269 -7.10109,-0.7554 -2.16353,-0.2641 -6.14166,-0.73625 -8.84472,-1.05043 -2.68992,-0.31263 -6.56235,-0.84462 -8.56792,-1.17472 l -3.22931,-0.52922 -0.27039,-2.71553 c -0.40711,-4.09339 -3.35403,-16.56401 -4.80904,-20.34006 -1.89427,-4.91618 -2.20439,-5.63852 -3.74567,-8.70356 -2.64658,-5.263084 -6.17455,-10.137898 -10.97975,-15.188582 -1.12478,-1.182261 -2.05447,-2.195469 -2.8041,-3.031319 z m 6.69298,28.169319 c 0.21023,0.0243 0.45443,0.15999 0.78851,0.50842 0.89095,0.92915 2.01713,3.27974 3.18015,6.95716 3.45596,10.92777 3.44735,27.80494 -0.0671,41.51768 -0.7226,2.81945 -2.86045,8.03088 -5.06558,12.69923 -1.1026,2.33417 -2.22167,4.54236 -3.19099,6.26406 -0.96933,1.72171 -1.87195,2.99983 -2.20094,3.27612 -0.17622,0.14805 -0.21415,0.2222 -0.37161,0.41086 -0.15745,0.1887 -0.36096,0.43993 -0.59953,0.73869 -0.47715,0.5975 -1.09261,1.38328 -1.7334,2.21887 -2.25088,2.93527 -10.99079,10.50213 -15.55879,13.40379 -1.35223,0.85896 -4.6114,2.31474 -7.06914,3.13022 l -0.0113,0.003 c -4.01342,1.33038 -5.01937,1.47713 -9.86712,1.45235 -4.75092,-0.0232 -5.85243,-0.18878 -9.24,-1.39588 -1.07783,-0.38408 -2.16648,-0.78714 -3.05009,-1.12846 -0.88357,-0.34134 -1.59139,-0.63672 -1.78655,-0.73586 -5.30731,-2.69619 -6.94271,-3.77248 -10.17756,-6.69783 -9.8285,-8.88814 -16.10909,-18.88349 -19.34271,-30.76001 -3.05185,-11.20904 -3.29836,-12.72618 -3.49334,-21.60585 -0.14198,-6.46747 0.18453,-11.80623 0.93714,-15.84427 0.75261,-4.03806 1.96085,-6.75353 3.38949,-8.0028 0.87252,-0.76297 1.51241,-1.10629 1.72735,-1.13669 0.10754,-0.0152 0.0804,-0.0137 0.11727,0.0186 0.037,0.0326 0.13186,0.16103 0.21251,0.41792 0.14744,0.46964 0.1479,0.84062 -0.0987,1.49652 -0.24645,0.65588 -0.77143,1.55845 -1.65458,2.85281 -1.07025,1.56855 -1.70088,2.921 -1.83611,4.17437 -0.13522,1.25338 0.29226,2.39483 1.18386,3.29214 1.39066,1.39952 3.31318,1.76005 5.61603,1.14965 0.34049,-0.0902 0.54951,-0.27092 0.8126,-0.5007 0.26308,-0.22974 0.54858,-0.52087 0.85029,-0.86566 0.60338,-0.6896 1.27282,-1.58797 1.89352,-2.55477 0.91184,-1.42033 1.50692,-2.24611 1.9382,-2.65894 0.4313,-0.41286 0.616,-0.45565 1.09932,-0.45547 l 0.003,-6e-5 c 0.56713,-1.7e-4 0.87654,0.13492 1.02657,0.27969 0.14994,0.14478 0.23004,0.34325 0.18805,0.7464 -0.0842,0.80631 -0.82203,2.23908 -2.27844,3.86263 -1.55869,1.73762 -2.13309,2.87734 -2.14971,4.3872 -0.0264,2.40426 1.41275,4.30957 3.65135,4.7473 0.99998,0.19552 1.96793,0.026 2.782,-0.67174 0.81406,-0.69773 1.52675,-1.82267 2.46791,-3.5804 0.65825,-1.22935 1.19864,-1.87904 1.3414,-1.95935 0.0713,-0.0402 -0.043,-0.0341 -0.002,-0.01 0.0405,0.0234 0.198,0.16973 0.37668,0.45493 0.0499,0.0796 0.10098,0.26253 0.0423,0.62602 -0.0587,0.36348 -0.22785,0.87681 -0.51856,1.51604 -0.65854,1.44815 -0.86668,2.74115 -0.6206,4.07654 0.41262,2.23943 2.14313,3.40069 3.88832,3.21993 1.7452,-0.1808 3.4711,-1.55926 4.21079,-3.86431 0.0747,-0.23252 0.46668,-0.52006 0.73704,-0.5192 0.11669,3.4e-4 0.13901,0.007 0.19816,0.0138 -0.0214,0.0179 -0.008,0.2445 -0.15132,0.84442 -0.22344,0.93333 -0.42176,2.3034 -0.45609,3.18522 -0.0135,0.34635 -0.0188,0.62603 0.0154,0.8945 0.0343,0.26845 0.1248,0.56561 0.35734,0.78868 0.23321,0.22296 0.52931,0.29854 0.79955,0.32332 0.27026,0.0248 0.55273,0.01 0.90233,-0.0154 l 0.96245,-0.0674 0.75487,3.71584 c 0.93954,4.63895 2.38046,8.13297 4.42837,10.50507 2.04792,2.37209 4.72839,3.57724 7.90831,3.58737 3.78387,0.0121 7.02194,-1.83359 9.25501,-4.95389 2.23308,-3.12031 3.49895,-7.4985 3.51905,-12.65201 l 0.0107,-2.5321 0.01,0.008 c 0.417,0.37981 0.7867,0.65499 1.24669,0.75501 0.46001,0.1 0.9294,-0.0462 1.31789,-0.28762 0.81816,-0.50908 1.24938,-1.4178 1.25681,-2.42121 0.007,-1.0034 -0.34839,-2.12855 -1.01154,-3.35155 -0.47006,-0.86704 -0.69837,-1.41166 -0.73543,-1.61915 -0.0185,-0.10382 -0.005,-0.0905 -0.0154,-0.0703 -0.009,0.0198 -0.008,0.002 0.0837,-0.0545 0.22005,-0.13504 0.37614,-0.1768 0.47781,-0.17834 0.10157,-0.002 0.17748,0.0186 0.31772,0.12878 0.28047,0.22035 0.70766,0.87102 1.16454,1.98821 0.54897,1.34236 1.32181,2.35388 2.26465,2.92007 0.94284,0.56618 2.08591,0.63049 3.09249,0.0959 1.22737,-0.65187 1.82599,-1.96495 1.78677,-3.42349 -0.0392,-1.45857 -0.64706,-3.11092 -1.76849,-4.7726 -0.85887,-1.27264 -1.089,-2.27458 -0.96385,-2.77249 0.0626,-0.24897 0.17429,-0.40012 0.41374,-0.53849 0.23944,-0.13836 0.62793,-0.24049 1.17708,-0.2377 0.28568,8.4e-4 1.00137,0.45708 1.54504,1.241 0.54368,0.78392 0.93042,1.81742 0.93054,2.58985 -1.9e-4,0.93864 0.47338,2.17751 1.07211,3.16661 0.45883,0.75794 0.81037,1.2861 1.41098,1.57696 0.60063,0.29086 1.24761,0.26156 2.21076,0.1948 0.92181,-0.0638 1.56841,-0.15048 2.12686,-0.49134 0.55848,-0.34084 0.89759,-0.87573 1.26466,-1.60495 0.56806,-1.12842 0.72207,-2.34894 0.41846,-3.65734 -0.30353,-1.30841 -1.03269,-2.70859 -2.18181,-4.36449 -1.10769,-1.59625 -1.66931,-2.56025 -1.79997,-3.08027 -0.0659,-0.25989 -0.0496,-0.38302 0.0122,-0.53457 0.0618,-0.15158 0.20437,-0.34861 0.4635,-0.60612 0.37389,-0.3715 0.70525,-0.60392 0.96455,-0.71405 0.25929,-0.11012 0.42913,-0.11388 0.60518,-0.0581 0.35211,0.11188 0.86738,0.65134 1.36585,1.82455 0.49934,1.17524 1.16602,3.08906 1.4497,4.15616 0.33039,1.24265 1.07508,2.68563 1.86388,3.47946 2.36529,2.38042 6.83665,1.56078 8.12012,-1.51009 0.47139,-1.12787 0.54234,-2.34488 0.16827,-3.70769 -0.37407,-1.36278 -1.16294,-2.89049 -2.40204,-4.81633 -1.29567,-2.01375 -2.03792,-3.44202 -2.31444,-4.47965 -0.27641,-1.03764 -0.15721,-1.64168 0.31262,-2.3538 0.44072,-0.66798 0.83718,-0.9448 1.09581,-0.99528 0.0647,-0.0126 0.13097,-0.017 0.20085,-0.01 z m 63.8308,14.40258 c 0.12982,0.0294 0.22293,0.0419 0.38827,0.0899 0.63453,0.18399 1.48759,0.49456 2.38334,0.86294 1.79148,0.73676 3.79199,1.74188 4.58214,2.34853 2.85767,2.19411 5.18537,6.22385 6.49797,10.80635 1.3126,4.58248 1.61707,9.70768 0.57847,14.04714 -0.99286,4.14881 -3.08785,8.87035 -5.12993,11.6168 -0.62938,0.84645 -2.50205,2.27159 -4.55899,3.47726 -2.05693,1.20563 -4.34638,2.24849 -5.79739,2.571 -0.61854,0.13684 -1.26845,0.30972 -1.84515,0.46349 0.0739,-0.11363 0.10863,-0.1755 0.19918,-0.31228 0.65431,-0.98955 2.33104,-4.00068 2.33104,-4.00068 l 0.0209,-0.0364 0.80203,-2.09405 c 0.88968,-0.76982 2.05011,-1.03514 4.05071,-1.09279 2.55459,-0.0736 2.25014,1.28416 -0.62164,2.76744 -1.94243,1.0033 -2.13017,1.21212 -1.10959,1.22471 1.7511,0.0228 5.2359,-1.65545 5.866,-2.82374 1.61164,-2.98853 -0.10175,-4.98633 -4.28685,-4.99968 l -2.04706,-0.007 0.37803,-3.24803 c 0.21331,-1.82998 0.52473,-4.75927 0.69359,-6.52237 l 0.31022,-3.24306 -4e-5,-0.005 2.75374,0.009 c 2.76616,0.009 3.47944,0.18239 4.05715,0.97781 1.00175,1.37926 0.65887,1.89111 -1.80793,2.69325 -1.44728,0.4706 -1.87376,0.77247 -1.27022,0.90084 1.41556,0.30081 4.13992,-0.33923 4.97408,-1.16801 1.19385,-1.18627 0.97313,-4.24229 -0.39959,-5.54014 -1.31394,-1.2423 -5.07216,-2.53002 -7.41094,-2.53747 -0.64385,-0.002 -1.01415,-0.0207 -1.27689,-0.28049 l -0.25788,-3.36481 -0.8889,-5.03838 -0.28057,-1.1509 c 0.26097,-0.004 0.64151,0.0537 1.22257,0.14992 2.91226,0.48213 4.49343,2.32479 1.98754,2.31679 -0.67562,-0.002 -1.22893,0.21611 -1.2298,0.48634 -0.003,0.7836 2.80015,0.57878 3.65168,-0.26739 2.21828,-2.20418 -0.19901,-6.00807 -4.53299,-7.13359 -1.16601,-0.30279 -1.89771,-0.61213 -2.42979,-1.00911 l -0.28322,-1.15874 -0.0142,-0.0337 c 0,0 -0.13072,-0.34706 -0.24026,-0.70227 -0.004,-0.0144 -0.005,-0.0243 -0.0102,-0.0392 z m -105.34137,1.30198 c 0.77812,-0.0412 1.49433,0.0244 2.17681,0.20252 1.36496,0.35631 2.59275,1.16523 3.9011,2.48196 1.39956,1.40851 2.5012,3.09974 2.97156,4.49479 0.47608,1.41196 0.73267,3.14661 0.74662,4.65198 0.014,1.50538 -0.28602,2.80709 -0.57866,3.19526 -0.16651,0.22085 -0.26564,0.30729 -0.28525,0.31724 -0.0196,0.009 -0.04,0.0367 -0.29197,-0.0322 -0.50392,-0.13794 -1.63389,-0.71174 -3.7597,-1.85044 -2.99007,-1.60163 -4.87786,-2.45773 -6.63152,-2.44372 -1.3929,0.0111 -2.62174,0.74846 -3.98523,1.82315 l 0.006,-0.1512 -1.06174,0.94062 c -0.75009,0.66428 -1.48528,1.26808 -2.05249,1.69894 -0.28361,0.21544 -0.52633,0.38924 -0.69786,0.49846 -0.0526,0.0334 -0.0791,0.0473 -0.11492,0.0674 -0.0499,-0.005 -0.0809,0.002 -0.16122,-0.11784 -0.10209,-0.15102 -0.2203,-0.46354 -0.28392,-0.90579 -0.12741,-0.88452 -0.0576,-2.25893 0.26021,-3.91081 0.64225,-3.33836 1.49666,-5.72557 2.65995,-7.37926 1.16328,-1.65367 2.61793,-2.61038 4.63616,-3.14581 0.92833,-0.24633 1.76842,-0.39401 2.54653,-0.43524 z m 58.6192,12.36496 c 1.01469,-0.0227 2.41551,-0.0123 4.00801,0.0284 3.18498,0.0815 7.1435,0.28237 10.39268,0.56249 6.21354,0.53566 17.33058,1.36711 26.41015,1.97477 1.71335,0.11467 3.30349,0.25098 4.47889,0.37936 0.58772,0.0642 1.07497,0.128 1.41021,0.18182 0.11298,0.0182 0.17848,0.0325 0.25281,0.0478 7.4e-4,0.003 10e-4,0.005 0.003,0.008 0.0414,0.15965 0.0902,0.39942 0.13965,0.68607 0.0971,0.57367 0.19643,1.34255 0.26697,2.14963 l 0.20379,2.33198 -3.35616,-0.005 -0.59977,-0.002 c -2.54967,-0.005 -5.72008,0.0628 -7.11444,0.15727 -0.18116,0.0127 -0.94929,0.0217 -2.05235,0.017 -1.10305,-0.005 -2.57524,-0.0202 -4.29481,-0.0424 -3.43918,-0.0438 -7.86893,-0.11839 -12.33138,-0.20356 -4.46245,-0.0853 -8.95756,-0.18199 -12.52673,-0.27201 -3.56921,-0.09 -6.24923,-0.17452 -6.95154,-0.22817 -0.15924,-0.0126 -0.15713,-0.0341 -0.12507,-0.006 0.0319,0.0286 -0.0106,0.014 -0.0437,-0.21137 -0.0666,-0.44988 -0.0341,-1.52155 0.0865,-3.43934 0.0724,-1.15099 0.17063,-2.22972 0.26781,-3.02936 0.0485,-0.3998 0.0958,-0.73151 0.13865,-0.95659 0.003,-0.0241 0.009,-0.0306 0.0135,-0.052 0.046,-0.007 0.0684,-0.0122 0.12765,-0.0184 0.27863,-0.0267 0.68979,-0.0475 1.19716,-0.0588 z m 64.44523,13.07718 c 0.0191,0.0269 0.0349,0.0437 0.0623,0.10721 0.0829,0.19255 0.15739,0.54006 0.15595,1.01486 -0.007,2.15399 0.69952,3.71636 2.53741,5.70342 0.55133,0.59611 0.78123,0.91439 0.91853,1.4476 0.13727,0.53322 0.16097,1.35315 0.12405,2.80112 -0.0857,3.35635 -1.38719,7.46781 -3.19018,10.11049 -0.69215,1.01445 -1.27218,1.46724 -1.36338,1.48989 -0.0457,0.0115 0.0312,0.0391 -0.0391,-0.0288 -0.0703,-0.0679 -0.21117,-0.28256 -0.3448,-0.63739 -0.13115,-0.34818 -0.25146,-0.69288 -0.33587,-0.96072 -0.0431,-0.13383 -0.0748,-0.24894 -0.0954,-0.32891 -0.0197,-0.0801 -0.0199,-0.17689 -0.0205,-0.0496 6.4e-4,-0.17076 -0.0266,-0.1927 -0.0412,-0.23735 -0.0144,-0.0446 -0.0286,-0.0807 -0.0466,-0.12009 -0.0342,-0.0793 -0.0765,-0.16841 -0.12956,-0.27421 -0.10592,-0.21165 -0.25454,-0.48781 -0.4355,-0.81762 -0.3618,-0.65967 -0.85762,-1.52849 -1.40296,-2.45315 l -1.79747,-3.04896 1.29047,-2.34025 c 1.39111,-2.51981 3.05254,-7.12959 3.80959,-10.52836 0.0996,-0.4472 0.24597,-0.73066 0.34169,-0.84643 z m -19.88179,5.01915 c 0.30855,-0.004 0.57975,0.007 0.80309,0.0286 0.22107,0.0217 0.39245,0.0571 0.48739,0.0877 -0.0195,-0.004 0.0602,0.25023 0.0528,0.64687 -0.008,0.43511 -0.0667,0.99193 -0.16143,1.5563 -0.18936,1.12877 -0.6017,2.3561 -0.79849,2.62346 0.0284,-0.0386 -0.27825,0.20538 -0.84882,0.4015 -0.57055,0.19611 -1.39901,0.40798 -2.47154,0.62837 -2.14494,0.44107 -5.26896,0.91721 -9.39504,1.42778 -1.76768,0.21868 -5.63673,0.74433 -8.6145,1.16951 -2.97409,0.42467 -8.50539,1.2126 -12.29066,1.75235 -3.79281,0.54085 -8.42792,1.2739 -10.35016,1.6386 -2.88526,0.54737 -4.87803,0.87023 -6.15481,0.98958 -0.63838,0.0597 -1.1011,0.0669 -1.37179,0.0373 -0.0879,-0.01 -0.10945,-0.0199 -0.146,-0.0317 0.003,-0.0917 0.0145,-0.21098 0.0428,-0.36236 0.0646,-0.34414 0.1969,-0.78987 0.3768,-1.21659 0.42945,-1.01867 1.00167,-2.99813 1.32878,-4.5489 0.1584,-0.75095 0.31212,-1.43943 0.43124,-1.93617 0.0481,-0.20045 0.085,-0.34176 0.11887,-0.46904 0.10151,-0.0191 0.21014,-0.0366 0.36007,-0.0614 0.381,-0.0606 0.90198,-0.13196 1.52882,-0.21153 1.25362,-0.15934 2.92615,-0.34899 4.75044,-0.54031 3.64856,-0.38261 7.91673,-0.775 10.71304,-0.95679 8.00362,-0.52034 10.54753,-0.73618 30.58667,-2.59635 0.36797,-0.0341 0.71386,-0.0528 1.02242,-0.0567 z m 12.67147,11.32148 c 0.16418,-0.0346 0.29344,-0.0239 0.35461,0.0145 -0.0591,-0.0368 0.0726,0.0718 0.20004,0.25098 0.12737,0.17922 0.2846,0.43124 0.45404,0.73161 0.33887,0.60071 0.72932,1.38902 1.09347,2.19921 0.36413,0.81019 0.70248,1.64658 0.94695,2.34476 0.24442,0.6982 0.37911,1.31788 0.37882,1.43025 -5.1e-4,0.20132 -0.0221,0.33367 -0.0377,0.38324 -0.0157,0.0496 0.003,0.0147 -0.003,0.0184 -0.0119,0.008 -0.31721,0.0981 -0.95475,0.0934 -0.69454,-0.005 -0.87448,-0.0281 -1.14389,-0.28788 -0.2694,-0.25976 -0.64891,-0.92505 -1.25773,-2.20494 -0.35874,-0.75408 -0.68701,-1.56403 -0.92119,-2.2482 -0.23414,-0.68416 -0.36096,-1.30612 -0.36058,-1.40151 10e-4,-0.30322 0.28496,-0.77531 0.68663,-1.06439 0.20083,-0.14456 0.39991,-0.22445 0.56411,-0.25894 z m -3.55171,2.44258 c 0.005,0.15003 0.73193,1.87801 0.56383,2.97523 -0.18904,1.23368 -0.23021,2.43727 -0.52491,2.94264 -0.0195,0.0336 -1.74317,0.68475 -1.7625,0.71258 -0.0364,-0.16035 -0.53564,-0.59953 -0.53147,-0.9491 0.006,-0.50456 0.22638,-1.6886 0.34019,-2.28643 0.1138,-0.5978 -0.21388,-1.55471 -0.0469,-1.97195 0.0835,-0.20864 1.67826,-1.19742 1.74488,-1.29596 0.0333,-0.0493 0.0634,-0.0756 0.0733,-0.0858 0.0544,-0.0185 0.0886,-0.0266 0.1434,-0.0417 z m -6.72015,3.27214 c 0.0421,0.99531 0.57999,2.11563 1.32475,3.26912 0.77515,1.20055 2.04481,1.70403 2.99489,2.32364 0.35157,0.22931 5.90805,0.3059 6.10686,0.45036 -1.21394,0.4441 -7.21404,1.57151 -8.49142,0.89985 -1.72727,-0.9083 -3.34459,-2.86927 -4.08075,-4.64717 -0.16824,-0.40618 -0.28769,-0.70721 -0.34399,-0.90075 -0.0555,-0.19369 -0.0394,-0.24652 -0.0432,-0.2323 -0.004,0.0144 -0.0146,-0.005 0.12287,-0.10134 0.13742,-0.0956 0.39329,-0.23067 0.74713,-0.41224 0.81654,-0.41897 1.41885,-0.62274 1.66059,-0.64664 z"
         style="color:#000000;font-style:normal;font-variant:normal;font-weight:normal;font-stretch:normal;font-size:medium;line-height:normal;font-family:sans-serif;text-indent:0;text-align:start;text-decoration:none;text-decoration-line:none;text-decoration-style:solid;text-decoration-color:#000000;letter-spacing:normal;word-spacing:normal;text-transform:none;writing-mode:lr-tb;direction:ltr;baseline-shift:baseline;text-anchor:start;white-space:normal;clip-rule:nonzero;display:inline;overflow:visible;visibility:visible;opacity:1;isolation:auto;mix-blend-mode:normal;color-interpolation:sRGB;color-interpolation-filters:linearRGB;solid-color:#000000;solid-opacity:1;fill:#000000;fill-opacity:1;fill-rule:nonzero;stroke:none;stroke-width:1.20164263;stroke-linecap:butt;stroke-linejoin:miter;stroke-miterlimit:4;stroke-dasharray:none;stroke-dashoffset:0;stroke-opacity:1;color-rendering:auto;image-rendering:auto;shape-rendering:auto;text-rendering:auto;enable-background:accumulate" />
    </g>
    <g
       transform="matrix(7.7866507,0,0,4.5274982,-403.64048,-51.878558)"
       style="opacity:0.50612195"
       id="g1568">
      <ellipse
         style="opacity:0.997;fill:none;fill-opacity:0.6476684;stroke:#000000;stroke-width:7.4779706;stroke-linecap:round;stroke-linejoin:round;stroke-miterlimit:10;stroke-dasharray:none;stroke-opacity:1;paint-order:normal"
         id="path874"
         cx="18.077591"
         cy="24.082312"
         transform="matrix(0.97529502,-0.22090637,0.22365011,0.9746695,0,0)"
         rx="13.136927"
         ry="13.112915" />
      <path
         inkscape:connector-curvature="0"
         id="path867"
         d="m 26.399862,38.0119 -0.219499,-0.95657 -0.976174,0.2211 -0.976173,0.22111 -0.139529,-0.97469 -0.139529,-0.97469 -0.961744,0.21784 -0.961745,0.21783 -0.219496,-0.95656 -0.219498,-0.95658 -0.958941,0.2172 -0.958939,0.21721 -0.219498,-0.95658 -0.219498,-0.95657 -0.899007,0.20362 -0.899006,0.20363 -0.205778,-0.89678 -0.205779,-0.89679 -0.958941,0.2172 -0.958939,0.2172 -0.219498,-0.95657 -0.219498,-0.95658 -0.958941,0.2172 -0.95894,0.21721 -0.644774,-2.80994 -0.644774,-2.80993 0.958941,-0.2172 0.95894,-0.2172 -0.201754,-0.87925 -0.201753,-0.87924 0.899356,-0.28501 c 0.494633,-0.15682 1.32272,-0.38101 1.84019,-0.49821 L 16.650499,21.3522 16.431,20.39563 l -0.219496,-0.95657 0.95894,-0.2172 0.95894,-0.2172 -0.425278,-1.85337 -0.425276,-1.85336 -1.852904,0.41969 -1.852904,0.41969 -0.247647,-0.91876 -0.247645,-0.91875 -2.77829,0.59552 -2.778289,0.59552 -0.202725,-0.5354 C 7.206921,14.66097 7.080382,14.26613 7.037217,14.07801 L 6.958737,13.73599 5.999797,13.95319 5.040857,14.1704 4.821359,13.21382 4.601861,12.25724 3.702855,12.46087 2.803849,12.6645 2.598069,11.76771 2.392292,10.87093 1.433351,11.08813 0.474411,11.30533 0.237207,10.27159 2e-6,9.23785 8.491465,7.3642 16.982927,5.49055 16.505002,3.61767 16.027078,1.74478 19.87866,0.87239 23.730244,0 23.949742,0.95658 24.169241,1.91315 23.218926,2.1284 22.268611,2.34365 22.334921,2.998 c 0.03647,0.35991 0.114796,0.78084 0.174043,0.93542 l 0.107733,0.28107 8.469721,-1.9684 8.469722,-1.9684 0.237253,1.03396 0.237256,1.03396 -0.95894,0.2172 -0.95894,0.2172 0.205777,0.89678 0.20578,0.89679 -0.899006,0.20363 -0.899006,0.20363 0.219498,0.95657 0.219498,0.95658 -0.948713,0.21488 -0.948712,0.21489 0.121238,0.91365 0.121239,0.91365 -2.765676,0.6602 -2.765675,0.6602 0.177631,0.93461 0.177633,0.93462 -1.792971,0.40611 -1.79297,0.40611 0.425276,1.85335 0.425278,1.85337 0.899006,-0.20363 0.899006,-0.20362 0.219496,0.95656 0.219498,0.95658 1.049035,-0.23672 c 0.576971,-0.13019 1.420993,-0.28493 1.875636,-0.34374 l 0.826596,-0.10704 0.201812,0.8795 0.20181,0.87949 0.95894,-0.2172 0.95894,-0.2172 0.644776,2.80994 0.644774,2.80993 -0.95894,0.2172 -0.95894,0.2172 0.219498,0.95658 0.219498,0.95657 -0.958939,0.21721 -0.95894,0.2172 0.205777,0.89678 0.20578,0.89679 -0.899006,0.20363 -0.899007,0.20362 0.218343,0.95155 0.218344,0.95154 -0.920962,0.24532 -0.920963,0.24533 0.177631,0.93461 0.17763,0.9346 -0.956702,0.2167 -0.956703,0.21669 0.299467,0.93847 0.299468,0.93846 -0.976173,0.2211 -0.976174,0.22111 0.219496,0.95656 0.219498,0.95658 -0.95894,0.2172 -0.958941,0.2172 -0.219498,-0.95657 z m -1.978205,-17.41358 -0.219498,-0.95658 0.899006,-0.20362 0.899006,-0.20363 -0.20578,-0.89679 -0.205777,-0.89678 -2.756953,0.62446 -2.756952,0.62445 0.205778,0.89678 0.205779,0.89679 0.899006,-0.20363 0.899006,-0.20362 0.219499,0.95657 0.219498,0.95658 0.95894,-0.2172 0.95894,-0.21721 z"
         style="opacity:1;fill:#445500;fill-opacity:1;stroke-width:0.12279122" />
    </g>
  </g>
</svg>
