<?xml version="1.0" encoding="UTF-8" standalone="no"?>
<svg
   xmlns:dc="http://purl.org/dc/elements/1.1/"
   xmlns:cc="http://creativecommons.org/ns#"
   xmlns:rdf="http://www.w3.org/1999/02/22-rdf-syntax-ns#"
   xmlns:svg="http://www.w3.org/2000/svg"
   xmlns="http://www.w3.org/2000/svg"
   width="164"
   height="164"
   viewBox="0 0 43.391667 43.391665"
   version="1.1"
   id="svg8">
  <defs
     id="defs2" />
  <metadata
     id="metadata5">
    <rdf:RDF>
      <cc:Work
         rdf:about="">
        <dc:format>image/svg+xml</dc:format>
        <dc:type
           rdf:resource="http://purl.org/dc/dcmitype/StillImage" />
        <dc:title></dc:title>
      </cc:Work>
    </rdf:RDF>
  </metadata>
  <g
     style="opacity:0.784"
     id="g2880">
    <ellipse
       style="opacity:1;fill:none;fill-opacity:0.6476684;stroke:#416a00;stroke-width:8.00697803;stroke-linecap:round;stroke-linejoin:round;stroke-miterlimit:10;stroke-dasharray:none;stroke-opacity:0.66321242;paint-order:normal"
       id="path874"
       cx="19.427938"
       cy="26.657154"
       transform="matrix(0.97529502,-0.22090638,0.2236501,0.9746695,0,0)"
       rx="14.06626"
       ry="14.04055" />
    <path
       id="path867"
       d="m 28.532025,41.534286 -0.235027,-1.02424 -1.04523,0.236741 -1.04523,0.236752 -0.1494,-1.043642 -0.149399,-1.043641 -1.02978,0.23325 -1.029781,0.23324 -0.235023,-1.024229 -0.235026,-1.024251 -1.026779,0.232565 -1.026776,0.232576 -0.235026,-1.02425 -0.235025,-1.02424 -0.962605,0.218025 -0.962604,0.218035 -0.220335,-0.96022 -0.220336,-0.960231 -1.026779,0.232565 -1.026776,0.232565 -0.235026,-1.02424 -0.235025,-1.02425 -1.026779,0.232565 -1.026777,0.232576 -0.690387,-3.008721 -0.690387,-3.00871 1.026779,-0.232566 1.026777,-0.232565 -0.216026,-0.94145 -0.216026,-0.941439 0.962979,-0.305172 c 0.529624,-0.167914 1.416292,-0.407964 1.970369,-0.533455 l 1.007413,-0.228186 -0.235027,-1.024239 -0.235024,-1.02424 1.026778,-0.232565 1.026777,-0.232565 -0.455363,-1.984482 -0.455361,-1.98447 -1.983982,0.449379 -1.983983,0.44938 -0.265166,-0.983755 -0.265164,-0.983744 -2.974832,0.637648 -2.9748306,0.637649 -0.2170662,-0.573276 C 7.9813351,16.531462 7.8458444,16.10869 7.7996258,15.907262 L 7.715594,15.541047 6.6888166,15.773612 5.6620391,16.006188 5.4270134,14.981937 5.1919877,13.957687 4.2293841,14.175722 3.2667805,14.393757 3.0464432,13.433527 2.8261091,12.473306 1.7993306,12.705872 0.77255317,12.938437 0.51856886,11.831568 0.26458348,10.724699 9.3567504,8.718503 18.448916,6.7123071 17.937182,4.7069356 17.425448,2.7015534 l 4.124051,-0.9341047 4.124054,-0.93410468 0.235025,1.02425048 0.235027,1.0242398 -1.017542,0.2304772 -1.017542,0.2304772 0.071,0.7006401 c 0.03905,0.3853708 0.122916,0.8360783 0.186355,1.0015936 l 0.115354,0.3009535 9.068887,-2.1076488 9.068888,-2.1076487 0.254037,1.1071045 0.25404,1.1071045 -1.026778,0.2325652 -1.026777,0.2325652 0.220334,0.9602201 0.220337,0.9602308 -0.962604,0.2180352 -0.962603,0.2180352 0.235026,1.0242398 0.235025,1.0242504 -1.015827,0.2300811 -1.015825,0.2300918 0.129814,0.9782835 0.129816,0.9782833 -2.961326,0.706904 -2.961324,0.706904 0.190197,1.000726 0.190199,1.000737 -1.91981,0.434839 -1.919808,0.434839 0.455361,1.98446 0.455363,1.984482 0.962603,-0.218036 0.962604,-0.218024 0.235023,1.024229 0.235026,1.02425 1.123246,-0.253466 c 0.617787,-0.1394 1.521517,-0.305086 2.008323,-0.368056 l 0.885071,-0.114613 0.216088,0.941718 0.216087,0.941707 1.026777,-0.232565 1.026778,-0.232565 0.690388,3.008721 0.690387,3.00871 -1.026777,0.232565 -1.026778,0.232565 0.235026,1.024251 0.235026,1.02424 -1.026777,0.232575 -1.026777,0.232566 0.220334,0.96022 0.220337,0.960231 -0.962603,0.218035 -0.962605,0.218024 0.233789,1.018865 0.23379,1.018854 -0.986113,0.262674 -0.986113,0.262685 0.190197,1.000727 0.190196,1.000715 -1.024382,0.23203 -1.024382,0.232019 0.320652,1.00486 0.320653,1.004848 -1.045229,0.236741 -1.045231,0.236752 0.235024,1.024229 0.235025,1.024251 -1.026777,0.232565 -1.026779,0.232565 -0.235025,-1.02424 z m -2.118147,-18.645454 -0.235026,-1.02425 0.962603,-0.218025 0.962604,-0.218035 -0.220337,-0.960231 -0.220334,-0.96022 -2.951986,0.668636 -2.951985,0.668625 0.220336,0.96022 0.220336,0.960231 0.962603,-0.218035 0.962604,-0.218025 0.235027,1.02424 0.235026,1.02425 1.026777,-0.232565 1.026777,-0.232576 z"
       style="opacity:1;fill:#ff00ff;fill-opacity:1;stroke-width:0.13147773" />
  </g>
</svg>
