<svg width="725.3mm" height="374.8mm" version="1.1" viewBox="0 0 725.3 374.8" xmlns="http://www.w3.org/2000/svg" xmlns:xlink="http://www.w3.org/1999/xlink">
  <defs>
    <linearGradient id="linearGradient2113">
      <stop stop-color="#5fb49c" offset="0"/>
      <stop stop-color="#682d63" offset="1"/>
    </linearGradient>
    <linearGradient id="linearGradient2086-7">
      <stop stop-color="#682d63" offset="0"/>
      <stop stop-color="#5fb49c" offset="1"/>
    </linearGradient>
    <radialGradient id="radialGradient2092" cx="-102.2" cy="113.8" r="118.9" gradientTransform="matrix(1 0 0 .8748 296.2 113)" gradientUnits="userSpaceOnUse" xlink:href="#linearGradient2086-7"/>
    <radialGradient id="radialGradient2185" cx="117.1" cy="175.3" r="94.02" gradientTransform="matrix(.7856 0 0 .792 408.9 133.5)" gradientUnits="userSpaceOnUse" xlink:href="#linearGradient2086-7"/>
    <radialGradient id="radialGradient2203" cx="-293.6" cy="149.3" r="66.99" gradientTransform="matrix(1 0 0 .921 366.2 115)" gradientUnits="userSpaceOnUse" xlink:href="#linearGradient2113"/>
    <radialGradient id="radialGradient838" cx="337.9" cy="103.7" r="269.1" gradientTransform="matrix(.7908 .03768 -.03176 .6666 116.5 60.4)" gradientUnits="userSpaceOnUse" xlink:href="#linearGradient2113"/>
    <linearGradient id="linearGradient889" x1="617.5" x2="656.4" y1="56.28" y2="56.28" gradientTransform="matrix(1.096 0 0 1.096 -21.62 3.933)" gradientUnits="userSpaceOnUse" xlink:href="#linearGradient2113"/>
  </defs>
  <g>
    <path d="m264.1 6.308a72.46 73.05 0 0 0-72.46 73.05 72.46 73.05 0 0 0 6.2 29.31 118.9 104 0 0 0-3.853-0.1685 118.9 104 0 0 0-116.3 82.53 66.99 61.69 0 0 0-5.14-0.2367 66.99 61.69 0 0 0-66.99 61.69 66.99 61.69 0 0 0 66.99 61.69 66.99 61.69 0 0 0 48.75-19.49 118.9 104 0 0 0 72.69 21.86 118.9 104 0 0 0 17-1.173 171.4 150 0 0 0 127.1 49.59 171.4 150 0 0 0 113.3-37.56 73.86 74.46 0 0 0 49.57 19.38 73.86 74.46 0 0 0 73.86-74.46 73.86 74.46 0 0 0-66.41-74.08 171.4 150 0 0 0-1.211-7.853 78.64 78.64 0 0 0 26.41 4.65 78.64 78.64 0 0 0 73-49.57 55.82 55.82 0 0 0 42.5 19.73 55.82 55.82 0 0 0 55.82-55.82 55.82 55.82 0 0 0-55.82-55.82 55.82 55.82 0 0 0-46.59 25.14 78.64 78.64 0 0 0-68.92-40.94 78.64 78.64 0 0 0-77.87 68.36 171.4 150 0 0 0-117.6-41.1 171.4 150 0 0 0-2.992 0.0925 72.46 73.05 0 0 0-71-58.8z" fill="#fbffff" opacity=".443" style="paint-order:normal"/>
    <path d="m264.1 6.308a72.46 73.05 0 0 0-72.46 73.05 72.46 73.05 0 0 0 13.03 41.65 171.4 150 0 0 0-38.02 93.98 171.4 150 0 0 0 171.4 150 171.4 150 0 0 0 171.4-150 171.4 150 0 0 0-2.37-24.59 78.64 78.64 0 0 0 26.41 4.65 78.64 78.64 0 0 0 73-49.57 55.82 55.82 0 0 0 42.5 19.73 55.82 55.82 0 0 0 55.82-55.82 55.82 55.82 0 0 0-55.82-55.82 55.82 55.82 0 0 0-46.59 25.14 78.64 78.64 0 0 0-68.92-40.94 78.64 78.64 0 0 0-77.87 68.36 171.4 150 0 0 0-117.6-41.1 171.4 150 0 0 0-2.992 0.0925 72.46 73.05 0 0 0-71-58.8z" fill="url(#radialGradient838)" opacity=".443" style="paint-order:normal"/>
    <ellipse cx="72.55" cy="252.5" rx="66.99" ry="61.69" fill="url(#radialGradient2203)" opacity=".443" style="paint-order:normal"/>
    <ellipse cx="194" cy="212.5" rx="118.9" ry="104" fill="url(#radialGradient2092)" opacity=".285" style="paint-order:normal"/>
    <ellipse cx="500.9" cy="272.3" rx="73.86" ry="74.46" fill="url(#radialGradient2185)" opacity=".443" style="paint-order:normal"/>
    <circle cx="676.6" cy="65.63" r="21.31" fill="url(#linearGradient889)" opacity=".306" style="paint-order:normal"/>
  </g>
</svg>
